<svg width="20" height="20" viewBox="0 0 20 20" fill="none" xmlns="http://www.w3.org/2000/svg">
<path d="M14.8461 7.84615C14.8461 11.0769 9.99999 14.8462 9.99999 14.8462C9.99999 14.8462 5.15384 11.0769 5.15384 7.84615C5.15384 5.20662 7.36045 3 9.99999 3C12.6395 3 14.8461 5.20662 14.8461 7.84615Z" stroke="#686262" stroke-width="1.3" stroke-linecap="round" stroke-linejoin="round"/>
<path d="M10 9.46148C10.8922 9.46148 11.6154 8.73825 11.6154 7.8461C11.6154 6.95394 10.8922 6.23071 10 6.23071C9.10784 6.23071 8.38461 6.95394 8.38461 7.8461C8.38461 8.73825 9.10784 9.46148 10 9.46148Z" stroke="#686262" stroke-width="1.3" stroke-linecap="round" stroke-linejoin="round"/>
<path d="M14.3909 13.2307H15.3846L17 16.9999H3L4.61538 13.2307H5.60906" stroke="#686262" stroke-width="1.3" stroke-linecap="round" stroke-linejoin="round"/>
</svg>
