<svg width="14" height="14" viewBox="0 0 14 14" fill="none" xmlns="http://www.w3.org/2000/svg">
<path d="M6.154 1.96837C6.24379 1.82502 6.36853 1.70683 6.51651 1.62491C6.66449 1.54298 6.83086 1.5 7 1.5C7.16914 1.5 7.33551 1.54298 7.48348 1.62491C7.63147 1.70683 7.75621 1.82502 7.84599 1.96837L9.48723 4.56583L11.6276 4.82812C11.8051 4.84795 11.9739 4.91587 12.1156 5.02453C12.2574 5.1332 12.3669 5.2785 12.4321 5.44478C12.4973 5.61105 12.5161 5.792 12.4861 5.96811C12.4562 6.14421 12.3787 6.3088 12.2621 6.44414L10.4771 8.49165L11.0523 11.326C11.0884 11.5109 11.0709 11.7023 11.002 11.8777C10.933 12.053 10.8155 12.2051 10.6632 12.3159C10.5089 12.4248 10.3272 12.488 10.1387 12.4984C9.95024 12.5089 9.76256 12.4662 9.59721 12.3752L7 10.9537L4.40279 12.3752C4.23742 12.4662 4.0498 12.5089 3.86131 12.4984C3.67282 12.488 3.49109 12.4248 3.33683 12.3159C3.18449 12.2051 3.06695 12.053 2.99802 11.8777C2.92907 11.7023 2.91162 11.5109 2.94768 11.326L3.52295 8.49165L1.73789 6.44414C1.6213 6.3088 1.54386 6.14421 1.5139 5.96811C1.48394 5.792 1.50261 5.61105 1.5679 5.44478C1.63318 5.2785 1.74261 5.1332 1.88437 5.02453C2.02615 4.91587 2.19488 4.84795 2.37239 4.82812L4.51277 4.56583L6.154 1.96837Z" fill="#FFA400" stroke="#FFA400" stroke-linecap="round" stroke-linejoin="round"/>
</svg>
