<svg width="28" height="28" viewBox="0 0 28 28" fill="none" xmlns="http://www.w3.org/2000/svg">
<rect width="28" height="28" rx="8" fill="white"/>
<path d="M4 4.66626L24 7.8547" stroke="black" stroke-width="1.75" stroke-linecap="round" stroke-linejoin="round"/>
<path d="M5.37109 4.88843L6.27243 8.57998C6.32647 8.74569 6.42516 8.89328 6.55766 9.00652C6.69016 9.11975 6.85132 9.19425 7.02342 9.22181C7.19552 9.24938 7.37189 9.22894 7.53313 9.16276C7.69436 9.09656 7.83422 8.98718 7.93732 8.84665L9.94265 5.61376" stroke="black" stroke-width="1.75" stroke-linecap="round" stroke-linejoin="round"/>
<path d="M11.7725 5.90552L12.6738 9.59974C12.7279 9.76524 12.8266 9.91262 12.959 10.0257C13.0915 10.1388 13.2525 10.2132 13.4245 10.2407C13.5964 10.2683 13.7726 10.2479 13.9337 10.1819C14.0949 10.1159 14.2346 10.0067 14.3378 9.86641L16.344 6.63441" stroke="black" stroke-width="1.75" stroke-linecap="round" stroke-linejoin="round"/>
<path d="M18.1729 6.92578L19.0742 10.6209C19.1282 10.7866 19.2269 10.9342 19.3594 11.0474C19.492 11.1607 19.6531 11.2352 19.8252 11.2627C19.9973 11.2903 20.1737 11.2699 20.3349 11.2037C20.4961 11.1375 20.636 11.0281 20.7391 10.8876L22.7444 7.65556" stroke="black" stroke-width="1.75" stroke-linecap="round" stroke-linejoin="round"/>
<path d="M4.00781 20.7047L23.9998 12.9758" stroke="black" stroke-width="1.75" stroke-linecap="round" stroke-linejoin="round"/>
<path d="M5.37793 20.1773L8.17171 23.0804C8.30967 23.2029 8.47873 23.2851 8.66032 23.3179C8.84191 23.3507 9.02903 23.3328 9.20112 23.2662C9.37322 23.1996 9.52365 23.0869 9.6359 22.9404C9.74816 22.794 9.8179 22.6195 9.83749 22.436L9.95215 18.4084" stroke="black" stroke-width="1.75" stroke-linecap="round" stroke-linejoin="round"/>
<path d="M11.7842 17.6982L14.578 20.6013C14.7158 20.7238 14.8848 20.806 15.0664 20.8388C15.2479 20.8716 15.4349 20.8538 15.607 20.7873C15.7791 20.7208 15.9295 20.6082 16.0419 20.4619C16.1541 20.3156 16.224 20.1411 16.2437 19.9577L16.3584 15.9302" stroke="black" stroke-width="1.75" stroke-linecap="round" stroke-linejoin="round"/>
<path d="M18.1875 15.223L20.9822 18.1261C21.12 18.2487 21.289 18.3309 21.4706 18.3637C21.6521 18.3965 21.8392 18.3786 22.0113 18.3121C22.1834 18.2455 22.3337 18.1327 22.4459 17.9862C22.5581 17.8397 22.6277 17.6651 22.6471 17.4817L22.7617 13.4541" stroke="black" stroke-width="1.75" stroke-linecap="round" stroke-linejoin="round"/>
</svg>
