<svg width="28" height="28" viewBox="0 0 28 28" fill="none" xmlns="http://www.w3.org/2000/svg">
<rect width="28" height="28" rx="8" fill="white"/>
<path d="M4 14.2039C4 11.9155 4 10.7713 4.5192 9.82274C5.0384 8.87421 5.98695 8.28551 7.88403 7.10813L9.88403 5.86687C11.8894 4.62229 12.8921 4 14 4C15.1079 4 16.1106 4.62229 18.116 5.86687L20.116 7.10812C22.0131 8.28551 22.9616 8.87421 23.4808 9.82274C24 10.7713 24 11.9155 24 14.2039V15.725C24 19.6258 24 21.5763 22.8284 22.7881C21.6569 24 19.7712 24 16 24H12C8.22876 24 6.34315 24 5.17157 22.7881C4 21.5763 4 19.6258 4 15.725V14.2039Z" stroke="#FF3A44" stroke-width="1.8"/>
<path d="M10.999 17.9998C11.8494 18.6301 12.8836 18.9998 13.999 18.9998C15.1144 18.9998 16.1486 18.6301 16.999 17.9998" stroke="#FF3A44" stroke-width="1.8" stroke-linecap="round"/>
</svg>
