<svg width="28" height="28" viewBox="0 0 28 28" fill="none" xmlns="http://www.w3.org/2000/svg">
<rect width="28" height="28" rx="8" fill="white"/>
<path d="M24.651 4.55049L23.7458 3.8716C23.1069 3.39238 22.1917 3.81866 22.1474 4.61613L22.138 4.78485C22.1156 5.18793 21.853 5.53801 21.4723 5.67237L20.1797 6.12861C19.799 6.26297 19.5364 6.61305 19.514 7.01613L19.4383 8.37902C19.4157 8.78503 19.1496 9.13695 18.7651 9.26919L17.3505 9.75567C17.0017 9.87561 16.7473 10.1778 16.6885 10.5419L16.3868 12.4099C16.3085 12.8944 15.8903 13.2505 15.3996 13.2505H12.6022C12.1116 13.2505 11.6934 12.8946 11.615 12.4102L11.3127 10.5416C11.2538 10.1777 10.9994 9.87564 10.6507 9.75574L9.2357 9.26911C8.8513 9.13691 8.58517 8.78517 8.56247 8.3793L8.48622 7.01576C8.46368 6.61287 8.20121 6.263 7.82071 6.12865L6.52855 5.67241C6.14793 5.53802 5.88542 5.18798 5.86302 4.78495L5.85369 4.61708C5.80937 3.81962 4.89418 3.39336 4.25523 3.87257L3.35001 4.55149C3.03175 4.79018 2.82134 5.14553 2.76508 5.53936C2.70882 5.93318 2.81131 6.33323 3.05001 6.65149L9.95001 15.8515C10.1389 16.1033 10.4353 16.2515 10.75 16.2515H17.25C17.5648 16.2515 17.8611 16.1033 18.05 15.8515L24.95 6.65149C25.0684 6.49393 25.1546 6.31459 25.2036 6.12371C25.2527 5.93283 25.2637 5.73415 25.2359 5.53903C25.2081 5.34391 25.1422 5.15618 25.0418 4.98656C24.9415 4.81694 24.8087 4.66876 24.651 4.55049Z" stroke="black" stroke-width="1.8" stroke-linecap="round" stroke-linejoin="round"/>
<path d="M17.7508 16.2495L20.9448 22.5115C21.0737 22.7642 21.0971 23.0576 21.0097 23.3275C20.9223 23.5973 20.7314 23.8214 20.4788 23.9505L18.1588 25.1325C18.0333 25.1967 17.8964 25.2354 17.7559 25.2464C17.6153 25.2574 17.474 25.2405 17.34 25.1966C17.2061 25.1528 17.0821 25.0828 16.9753 24.9908C16.8686 24.8988 16.781 24.7865 16.7178 24.6605L13.9998 19.2495L11.2838 24.6605C11.2204 24.7865 11.1327 24.8986 11.0258 24.9906C10.9189 25.0825 10.7949 25.1524 10.6609 25.1963C10.5269 25.2402 10.3856 25.2571 10.245 25.2462C10.1044 25.2352 9.9674 25.1966 9.8418 25.1325L7.5228 23.9505C7.27029 23.8214 7.07931 23.5974 6.99176 23.3276C6.90421 23.0578 6.92724 22.7643 7.0558 22.5115L10.2508 16.2495" stroke="black" stroke-width="1.8" stroke-linecap="round" stroke-linejoin="round"/>
</svg>
