<svg width="28" height="28" viewBox="0 0 28 28" fill="none" xmlns="http://www.w3.org/2000/svg">
<path d="M16.3 20.9004V7.10016C16.3 6.49015 16.0577 5.90512 15.6264 5.47378C15.195 5.04244 14.61 4.80011 14 4.80011H4.8C4.19 4.80011 3.60499 5.04244 3.17366 5.47378C2.74232 5.90512 2.5 6.49015 2.5 7.10016V19.7504C2.5 20.0554 2.62116 20.3479 2.83683 20.5636C3.05249 20.7793 3.345 20.9004 3.65 20.9004H5.95" stroke="#FF3A44" stroke-width="1.75" stroke-linecap="round" stroke-linejoin="round"/>
<path d="M17.4498 20.9011H10.5498" stroke="#FF3A44" stroke-width="1.75" stroke-linecap="round" stroke-linejoin="round"/>
<path d="M22.0498 20.9009H24.3498C24.6548 20.9009 24.9473 20.7798 25.163 20.5641C25.3787 20.3484 25.4998 20.0559 25.4998 19.7509V15.5533C25.4994 15.2923 25.4101 15.0393 25.2468 14.8357L21.2448 9.8331C21.1373 9.69841 21.0008 9.58962 20.8455 9.51478C20.6903 9.43993 20.5202 9.40094 20.3478 9.4007H16.2998" stroke="#FF3A44" stroke-width="1.75" stroke-linecap="round" stroke-linejoin="round"/>
<path d="M17.4502 20.8998C17.4502 21.5098 17.6925 22.0949 18.1239 22.5262C18.5552 22.9576 19.1402 23.1999 19.7502 23.1999C20.3602 23.1999 20.9452 22.9576 21.3765 22.5262C21.8079 22.0949 22.0502 21.5098 22.0502 20.8998C22.0502 20.2898 21.8079 19.7048 21.3765 19.2735C20.9452 18.8421 20.3602 18.5998 19.7502 18.5998C19.1402 18.5998 18.5552 18.8421 18.1239 19.2735C17.6925 19.7048 17.4502 20.2898 17.4502 20.8998Z" stroke="#FF3A44" stroke-width="1.75" stroke-linecap="round" stroke-linejoin="round"/>
<path d="M5.9502 20.8998C5.9502 21.5098 6.19252 22.0949 6.62385 22.5262C7.05518 22.9576 7.6402 23.1999 8.2502 23.1999C8.8602 23.1999 9.44521 22.9576 9.87655 22.5262C10.3079 22.0949 10.5502 21.5098 10.5502 20.8998C10.5502 20.2898 10.3079 19.7048 9.87655 19.2735C9.44521 18.8421 8.8602 18.5998 8.2502 18.5998C7.6402 18.5998 7.05518 18.8421 6.62385 19.2735C6.19252 19.7048 5.9502 20.2898 5.9502 20.8998Z" stroke="#FF3A44" stroke-width="1.75" stroke-linecap="round" stroke-linejoin="round"/>
</svg>
