<svg width="36" height="36" viewBox="0 0 36 36" fill="none" xmlns="http://www.w3.org/2000/svg">
<path d="M10.1813 27.0181C6.77998 26.9992 4.93797 26.8483 3.73638 25.6467C2.3623 24.2725 2.3623 22.061 2.3623 17.638V11.3828C2.3623 6.95969 2.3623 4.74816 3.73638 3.37408C5.11046 2 7.32199 2 11.7451 2H24.2555C28.6785 2 30.89 2 32.2641 3.37408C33.6382 4.74816 33.6382 6.95969 33.6382 11.3828V17.638C33.6382 22.061 33.6382 24.2725 32.2641 25.6467C31.1229 26.7881 29.4036 26.9814 26.3192 27.014L25.0374 27.0181" stroke="#FF3A44" stroke-width="2.3"/>
<path d="M13.3086 8.25513H22.6914" stroke="#FF3A44" stroke-width="2.3" stroke-linecap="round"/>
<path d="M10.1816 13.7285H25.8196" stroke="#FF3A44" stroke-width="2.3" stroke-linecap="round"/>
<path d="M16.2663 20.6799C17.2659 19.8279 18.7362 19.8279 19.7357 20.6799C20.1642 21.0449 20.6968 21.2655 21.2578 21.3102C22.567 21.4148 23.6068 22.4545 23.7112 23.7637C23.7559 24.3248 23.9766 24.8572 24.3416 25.2857C25.1935 26.2853 25.1935 27.7556 24.3416 28.7553C23.9766 29.1836 23.7559 29.7163 23.7112 30.2772C23.6068 31.5866 22.567 32.6262 21.2578 32.7306C20.6968 32.7754 20.1642 32.996 19.7357 33.361C18.7362 34.213 17.2659 34.213 16.2663 33.361C15.8378 32.996 15.3052 32.7754 14.7442 32.7306C13.435 32.6262 12.3953 31.5866 12.2908 30.2772C12.2461 29.7163 12.0255 29.1836 11.6604 28.7553C10.8085 27.7556 10.8085 26.2853 11.6604 25.2857C12.0255 24.8572 12.2461 24.3248 12.2908 23.7637C12.3953 22.4545 13.435 21.4148 14.7442 21.3102C15.3052 21.2655 15.8378 21.0449 16.2663 20.6799Z" stroke="#FF3A44" stroke-width="2.3"/>
<path d="M15.6543 27.3335L16.9946 28.5845L20.3457 25.4569" stroke="#FF3A44" stroke-width="2.3" stroke-linecap="round" stroke-linejoin="round"/>
</svg>
