<svg width="36" height="36" viewBox="0 0 36 36" fill="none" xmlns="http://www.w3.org/2000/svg">
<path d="M5.2 14.8C4.35131 14.8 3.53737 14.4629 2.93726 13.8627C2.33714 13.2626 2 12.4487 2 11.6V5.2C2 4.35131 2.33714 3.53737 2.93726 2.93726C3.53737 2.33714 4.35131 2 5.2 2H11.6C12.4487 2 13.2626 2.33714 13.8627 2.93726C14.4629 3.53737 14.8 4.35131 14.8 5.2M21.2 30.8C21.2 31.6487 21.5371 32.4626 22.1373 33.0627C22.7374 33.6629 23.5513 34 24.4 34H30.8C31.6487 34 32.4626 33.6629 33.0627 33.0627C33.6629 32.4626 34 31.6487 34 30.8V24.4C34 23.5513 33.6629 22.7374 33.0627 22.1373C32.4626 21.5371 31.6487 21.2 30.8 21.2M14.8 11.6H21.2C22.9673 11.6 24.4 13.0327 24.4 14.8V21.2C24.4 22.9673 22.9673 24.4 21.2 24.4H14.8C13.0327 24.4 11.6 22.9673 11.6 21.2V14.8C11.6 13.0327 13.0327 11.6 14.8 11.6Z" stroke="#FF3A44" stroke-width="2.3" stroke-linecap="round" stroke-linejoin="round"/>
</svg>
