<svg width="36" height="36" viewBox="0 0 36 36" fill="none" xmlns="http://www.w3.org/2000/svg">
<path d="M2 18C2 11.966 2 8.94899 3.87451 7.07446C5.74904 5.19995 8.76602 5.19995 14.8 5.19995H21.2C27.2339 5.19995 30.251 5.19995 32.1254 7.07446C34 8.94899 34 11.966 34 18C34 24.0339 34 27.051 32.1254 28.9254C30.251 30.8 27.2339 30.8 21.2 30.8H14.8C8.76602 30.8 5.74904 30.8 3.87451 28.9254C2 27.051 2 24.0339 2 18Z" stroke="#FF3A44" stroke-width="2.3"/>
<path d="M14.8004 24.3999H8.40039" stroke="#FF3A44" stroke-width="2.3" stroke-linecap="round"/>
<path d="M21.1998 24.3999H18.7998" stroke="#FF3A44" stroke-width="2.3" stroke-linecap="round"/>
<path d="M2 14.7999H34" stroke="#FF3A44" stroke-width="2.3" stroke-linecap="round"/>
</svg>
