<svg width="36" height="36" viewBox="0 0 36 36" fill="none" xmlns="http://www.w3.org/2000/svg">
<path d="M15.693 4.27738C15.9379 3.88642 16.2781 3.56409 16.6817 3.34065C17.0854 3.11722 17.5391 3 18.0005 3C18.4618 3 18.9156 3.11722 19.3192 3.34065C19.7228 3.56409 20.063 3.88642 20.3079 4.27738L24.7845 11.3614L30.6225 12.0767C31.1066 12.1308 31.5669 12.316 31.9535 12.6124C32.3402 12.9087 32.6387 13.305 32.8168 13.7585C32.9947 14.212 33.0458 14.7055 32.9639 15.1857C32.8823 15.666 32.6711 16.1149 32.3531 16.484L27.4843 22.0681L29.0534 29.7982C29.1518 30.3025 29.104 30.8245 28.9161 31.3028C28.7279 31.7809 28.4073 32.1956 27.9919 32.498C27.5711 32.7949 27.0755 32.9672 26.5614 32.9958C26.0474 33.0243 25.5354 32.9079 25.0845 32.6595L18.0005 28.7828L10.9165 32.6595C10.4654 32.9079 9.95369 33.0243 9.43958 32.9958C8.92548 32.9672 8.42978 32.7949 8.00904 32.498C7.59352 32.1956 7.27293 31.7809 7.08491 31.3028C6.89687 30.8245 6.84926 30.3025 6.94761 29.7982L8.51669 22.0681L3.64789 16.484C3.32988 16.1149 3.11865 15.666 3.03694 15.1857C2.95523 14.7055 3.00615 14.212 3.18422 13.7585C3.36229 13.305 3.66075 12.9087 4.04742 12.6124C4.43411 12.316 4.89433 12.1308 5.37851 12.0767L11.2165 11.3614L15.693 4.27738Z" stroke="#FFA400" stroke-width="2.3" stroke-linecap="round" stroke-linejoin="round"/>
</svg>
