<svg width="26" height="26" viewBox="0 0 26 26" fill="none" xmlns="http://www.w3.org/2000/svg">
<path d="M19.2308 10.2308C19.2308 14.3846 13.0001 19.2308 13.0001 19.2308C13.0001 19.2308 6.76929 14.3846 6.76929 10.2308C6.76929 6.83708 9.60636 4 13.0001 4C16.3937 4 19.2308 6.83708 19.2308 10.2308Z" stroke="#B9BFC3" stroke-width="1.5" stroke-linecap="round" stroke-linejoin="round"/>
<path d="M13.0001 12.3077C14.1471 12.3077 15.077 11.3778 15.077 10.2308C15.077 9.08374 14.1471 8.15387 13.0001 8.15387C11.853 8.15387 10.9232 9.08374 10.9232 10.2308C10.9232 11.3778 11.853 12.3077 13.0001 12.3077Z" stroke="#B9BFC3" stroke-width="1.5" stroke-linecap="round" stroke-linejoin="round"/>
<path d="M18.6455 17.1539H19.9231L22 22H4L6.07692 17.1539H7.35451" stroke="#B9BFC3" stroke-width="1.5" stroke-linecap="round" stroke-linejoin="round"/>
</svg>
