<svg width="26" height="26" viewBox="0 0 26 26" fill="none" xmlns="http://www.w3.org/2000/svg">
<path d="M4 12.775C4 9.38084 4 7.68379 5.05441 6.62936C6.10883 5.57495 7.80588 5.57495 11.2 5.57495H14.8C18.1941 5.57495 19.8912 5.57495 20.9456 6.62936C22 7.68379 22 9.38084 22 12.775V14.575C22 17.969 22 19.6662 20.9456 20.7205C19.8912 21.775 18.1941 21.775 14.8 21.775H11.2C7.80588 21.775 6.10883 21.775 5.05441 20.7205C4 19.6662 4 17.969 4 14.575V12.775Z" stroke="#B9BFC3" stroke-width="1.5"/>
<path d="M8.5 5.57473V4.22473" stroke="#B9BFC3" stroke-width="1.5" stroke-linecap="round"/>
<path d="M17.5 5.57473V4.22473" stroke="#B9BFC3" stroke-width="1.5" stroke-linecap="round"/>
<path d="M4.45007 10.075H21.5501" stroke="#B9BFC3" stroke-width="1.5" stroke-linecap="round"/>
<path d="M18.4 17.2745C18.4 17.7716 17.997 18.1745 17.5 18.1745C17.0029 18.1745 16.6 17.7716 16.6 17.2745C16.6 16.7774 17.0029 16.3745 17.5 16.3745C17.997 16.3745 18.4 16.7774 18.4 17.2745Z" fill="#B9BFC3"/>
<path d="M18.4 13.6743C18.4 14.1714 17.997 14.5743 17.5 14.5743C17.0029 14.5743 16.6 14.1714 16.6 13.6743C16.6 13.1772 17.0029 12.7743 17.5 12.7743C17.997 12.7743 18.4 13.1772 18.4 13.6743Z" fill="#B9BFC3"/>
<path d="M13.9 17.2745C13.9 17.7716 13.497 18.1745 13 18.1745C12.5029 18.1745 12.1 17.7716 12.1 17.2745C12.1 16.7774 12.5029 16.3745 13 16.3745C13.497 16.3745 13.9 16.7774 13.9 17.2745Z" fill="#B9BFC3"/>
<path d="M13.9 13.6743C13.9 14.1714 13.497 14.5743 13 14.5743C12.5029 14.5743 12.1 14.1714 12.1 13.6743C12.1 13.1772 12.5029 12.7743 13 12.7743C13.497 12.7743 13.9 13.1772 13.9 13.6743Z" fill="#B9BFC3"/>
<path d="M9.39998 17.2745C9.39998 17.7716 8.99703 18.1745 8.49998 18.1745C8.00292 18.1745 7.59998 17.7716 7.59998 17.2745C7.59998 16.7774 8.00292 16.3745 8.49998 16.3745C8.99703 16.3745 9.39998 16.7774 9.39998 17.2745Z" fill="#B9BFC3"/>
<path d="M9.39998 13.6743C9.39998 14.1714 8.99703 14.5743 8.49998 14.5743C8.00292 14.5743 7.59998 14.1714 7.59998 13.6743C7.59998 13.1772 8.00292 12.7743 8.49998 12.7743C8.99703 12.7743 9.39998 13.1772 9.39998 13.6743Z" fill="#B9BFC3"/>
</svg>
