<svg width="24" height="24" viewBox="0 0 24 24" fill="none" xmlns="http://www.w3.org/2000/svg">
<path d="M4.79999 10.7334C4.79999 8.17526 4.79999 6.89622 5.102 6.46593C5.40401 6.03563 6.60664 5.62397 9.01192 4.80063L9.47016 4.64378C10.724 4.21459 11.3509 4 12 4C12.6491 4 13.276 4.21459 14.5298 4.64378L14.9881 4.80063C17.3933 5.62397 18.596 6.03563 18.898 6.46593C19.2 6.89622 19.2 8.17526 19.2 10.7334V11.9931C19.2 16.5035 15.8088 18.6924 13.6811 19.6218C13.104 19.8739 12.8154 20 12 20C11.1845 20 10.896 19.8739 10.3188 19.6218C8.19116 18.6924 4.79999 16.5035 4.79999 11.9931V10.7334Z" stroke="white" stroke-width="1.5"/>
<path d="M10 12.32L11.1429 13.6L14 10.4" stroke="white" stroke-width="1.5" stroke-linecap="round" stroke-linejoin="round"/>
</svg>
