<svg width="24" height="24" viewBox="0 0 24 24" fill="none" xmlns="http://www.w3.org/2000/svg">
<path d="M16.5958 8.51499V6.67666C16.5958 4.94347 16.5958 4.07687 16.0573 3.53844C15.5189 3 14.6523 3 12.9191 3H11.0808C9.34758 3 8.48098 3 7.94255 3.53844C7.40411 4.07687 7.40411 4.94347 7.40411 6.67666V8.51499" stroke="white" stroke-width="1.5"/>
<path d="M10.6799 6.47733C11.5028 6.02863 12.4973 6.02863 13.3201 6.47733L17.7268 8.88019C18.6128 9.36334 19.1642 10.2919 19.1642 11.3012V15.8397C19.1642 16.8489 18.6128 17.7775 17.7268 18.2607L13.3201 20.6635C12.4973 21.1122 11.5028 21.1122 10.6799 20.6635L6.27322 18.2607C5.38715 17.7775 4.83582 16.8489 4.83582 15.8397V11.3012C4.83582 10.2919 5.38715 9.36334 6.27322 8.88019L10.6799 6.47733Z" stroke="white" stroke-width="1.5"/>
<path d="M11.2149 11.7528C11.5642 11.1262 11.7389 10.8129 12 10.8129C12.2611 10.8129 12.4358 11.1262 12.785 11.7528L12.8754 11.9149C12.9746 12.093 13.0242 12.1819 13.1016 12.2407C13.179 12.2994 13.2753 12.3213 13.4681 12.3648L13.6435 12.4046C14.3218 12.5581 14.661 12.6347 14.7417 12.8942C14.8224 13.1537 14.5911 13.424 14.1288 13.9647L14.0091 14.1046C13.8778 14.2582 13.812 14.3351 13.7824 14.4301C13.7529 14.5252 13.7629 14.6276 13.7827 14.8327L13.8008 15.0193C13.8707 15.7408 13.9057 16.1014 13.6945 16.2618C13.4832 16.4221 13.1657 16.276 12.5306 15.9836L12.3664 15.908C12.1858 15.8249 12.0957 15.7833 12 15.7833C11.9043 15.7833 11.8141 15.8249 11.6336 15.908L11.4694 15.9836C10.8343 16.276 10.5168 16.4221 10.3055 16.2618C10.0943 16.1014 10.1293 15.7408 10.1992 15.0193L10.2173 14.8327C10.2371 14.6276 10.247 14.5252 10.2175 14.4301C10.1879 14.3351 10.1223 14.2582 9.99086 14.1046L9.87123 13.9647C9.40883 13.424 9.17764 13.1537 9.25833 12.8942C9.33901 12.6347 9.67814 12.5581 10.3564 12.4046L10.5319 12.3648C10.7246 12.3213 10.821 12.2994 10.8984 12.2407C10.9758 12.1819 11.0254 12.093 11.1246 11.9149L11.2149 11.7528Z" stroke="white" stroke-width="1.5"/>
</svg>
