<svg width="24" height="24" viewBox="0 0 24 24" fill="none" xmlns="http://www.w3.org/2000/svg">
<path d="M10.0739 4.96022C10.5634 4.54306 10.8082 4.33449 11.0641 4.21218C11.656 3.92927 12.344 3.92927 12.9359 4.21218C13.1918 4.33449 13.4366 4.54306 13.9261 4.96022C14.1209 5.12624 14.2183 5.20926 14.3224 5.27899C14.5609 5.43884 14.8287 5.54977 15.1103 5.60538C15.2332 5.62964 15.3607 5.63982 15.616 5.66018C16.2571 5.71134 16.5776 5.73692 16.8451 5.83138C17.4636 6.04987 17.9502 6.53641 18.1687 7.15497C18.2631 7.42241 18.2886 7.74296 18.3399 8.38407C18.3602 8.63923 18.3703 8.76681 18.3946 8.88968C18.4502 9.17134 18.5611 9.43917 18.7211 9.67766C18.7908 9.78169 18.8738 9.8791 19.0398 10.0739C19.457 10.5634 19.6656 10.8082 19.7879 11.0641C20.0707 11.656 20.0707 12.344 19.7879 12.9359C19.6656 13.1918 19.457 13.4365 19.0398 13.9261C18.8738 14.1209 18.7908 14.2183 18.7211 14.3224C18.5611 14.5608 18.4502 14.8287 18.3946 15.1104C18.3703 15.2332 18.3602 15.3608 18.3399 15.616C18.2886 16.2571 18.2631 16.5776 18.1687 16.845C17.9502 17.4636 17.4636 17.9502 16.8451 18.1687C16.5776 18.2631 16.2571 18.2886 15.616 18.3399C15.3607 18.3602 15.2332 18.3704 15.1103 18.3946C14.8287 18.4503 14.5609 18.5611 14.3224 18.721C14.2183 18.7908 14.1209 18.8737 13.9261 19.0398C13.4366 19.4569 13.1918 19.6656 12.9359 19.7879C12.344 20.0707 11.656 20.0707 11.0641 19.7879C10.8082 19.6656 10.5634 19.4569 10.0739 19.0398C9.87911 18.8737 9.78169 18.7908 9.67765 18.721C9.43917 18.5611 9.17135 18.4503 8.88969 18.3946C8.76681 18.3704 8.63923 18.3602 8.38407 18.3399C7.74296 18.2886 7.4224 18.2631 7.15497 18.1687C6.53641 17.9502 6.04986 17.4636 5.83138 16.845C5.73692 16.5776 5.71134 16.2571 5.66018 15.616C5.63982 15.3608 5.62964 15.2332 5.60538 15.1104C5.54978 14.8287 5.43884 14.5608 5.27899 14.3224C5.20926 14.2183 5.12625 14.1209 4.96022 13.9261C4.54306 13.4365 4.33449 13.1918 4.21217 12.9359C3.92928 12.344 3.92928 11.656 4.21217 11.0641C4.33449 10.8081 4.54306 10.5634 4.96022 10.0739C5.12625 9.8791 5.20926 9.78169 5.27899 9.67766C5.43884 9.43917 5.54978 9.17134 5.60538 8.88968C5.62964 8.76681 5.63982 8.63923 5.66018 8.38407C5.71134 7.74296 5.73692 7.42241 5.83138 7.15497C6.04986 6.53641 6.53641 6.04987 7.15497 5.83138C7.4224 5.73692 7.74296 5.71134 8.38407 5.66018C8.63923 5.63982 8.76681 5.62964 8.88969 5.60538C9.17135 5.54977 9.43917 5.43884 9.67765 5.27899C9.78169 5.20926 9.87911 5.12624 10.0739 4.96022Z" stroke="white" stroke-width="1.5"/>
<path d="M8.96161 12.4345L10.6978 14.1707L15.0384 9.83014" stroke="white" stroke-width="1.5" stroke-linecap="round" stroke-linejoin="round"/>
</svg>
