<svg width="36" height="36" viewBox="0 0 36 36" fill="none" xmlns="http://www.w3.org/2000/svg">
<path d="M8.91406 29.3881C9.06198 30.3427 9.21573 31.2112 9.34398 31.8977C9.52615 32.8631 10.2126 33.6384 11.1839 33.7849C11.9461 33.9008 13.0048 34.0006 14.3878 34.0006C15.7031 34.0006 16.7837 33.9102 17.6064 33.8024C18.7606 33.6508 19.5694 32.6904 19.6947 31.5333L19.9286 29.375" stroke="black" stroke-width="1.8" stroke-linecap="round" stroke-linejoin="round"/>
<path d="M26.5001 2.37855C26.5629 2.26395 26.6553 2.16834 26.7677 2.10174C26.8802 2.03514 27.0084 2 27.1391 2C27.2698 2 27.3981 2.03514 27.5105 2.10174C27.6229 2.16834 27.7154 2.26395 27.7782 2.37855L29.2297 5.03237C29.6309 5.76592 30.234 6.36904 30.9676 6.77024L33.6214 8.22176C33.736 8.28454 33.8316 8.37699 33.8982 8.48942C33.9648 8.60185 33.9999 8.73012 33.9999 8.8608C33.9999 8.99147 33.9648 9.11974 33.8982 9.23217C33.8316 9.3446 33.736 9.43705 33.6214 9.49984L30.9676 10.9514C30.234 11.3526 29.6309 11.9557 29.2297 12.6892L27.7782 15.343C27.7154 15.4577 27.6229 15.5533 27.5105 15.6199C27.3981 15.6865 27.2698 15.7216 27.1391 15.7216C27.0084 15.7216 26.8802 15.6865 26.7677 15.6199C26.6553 15.5533 26.5629 15.4577 26.5001 15.343L25.0486 12.6892C24.6474 11.9557 24.0442 11.3526 23.3107 10.9514L20.6569 9.49984C20.5423 9.43705 20.4467 9.3446 20.3801 9.23217C20.3135 9.11974 20.2783 8.99147 20.2783 8.8608C20.2783 8.73012 20.3135 8.60185 20.3801 8.48942C20.4467 8.37699 20.5423 8.28454 20.6569 8.22176L23.3107 6.77024C24.0442 6.36904 24.6474 5.76592 25.0486 5.03237L26.5001 2.37855Z" stroke="black" stroke-width="1.8"/>
<path d="M19.1237 4.33429C17.622 3.71314 16.0125 3.39445 14.3874 3.39649C7.54591 3.39649 2 8.9424 2 15.7839C2 19.7427 3.85738 23.2681 6.74801 25.5357C6.96092 26.3872 7.19685 27.2327 7.45555 28.0714C7.67925 28.7987 8.28332 29.3269 9.04041 29.4064C10.0554 29.512 11.7671 29.6286 14.3874 29.6286C17.0077 29.6286 18.7193 29.512 19.7344 29.4064C20.4915 29.3269 21.0955 28.7987 21.3185 28.0707C21.5276 27.3909 21.7921 26.4822 22.0268 25.5357C23.8659 24.0942 25.2611 22.1631 26.0519 19.9643" stroke="black" stroke-width="1.8" stroke-linecap="round" stroke-linejoin="round"/>
</svg>
