<svg width="36" height="36" viewBox="0 0 36 36" fill="none" xmlns="http://www.w3.org/2000/svg">
<path d="M16.5074 18.0215C15.6698 19.0209 15.1588 20.253 15.0434 21.5517C14.928 22.8505 15.2136 24.1534 15.8617 25.2848C16.4348 25.3269 17.0026 25.1505 17.4512 24.7913C17.8996 24.432 18.1956 23.9163 18.2795 23.3477C19.1376 23.8168 19.8441 24.5209 20.3159 25.3774C20.7878 26.234 21.0054 27.2073 20.9433 28.1833C20.944 28.9467 20.7944 29.7028 20.5028 30.4082C20.2113 31.1137 19.7836 31.7549 19.2443 32.2952C18.7049 32.8353 18.0643 33.2639 17.3593 33.5566C16.6542 33.8491 15.8984 33.9999 15.135 34.0001C13.6005 33.9795 12.1347 33.3609 11.0496 32.2757C9.96451 31.1907 9.3458 29.7248 9.32518 28.1904C9.13109 25.9206 9.74542 23.6553 11.0596 21.7946C12.3738 19.9339 14.3034 18.5975 16.5074 18.0215Z" stroke="black" stroke-width="1.8" stroke-linecap="round" stroke-linejoin="round"/>
<path d="M4.29581 13.8853H4.74381L7.95234 17.8959C9.16743 14.1907 9.01147 10.1722 7.51288 6.57227C10.3064 6.71288 13.017 7.56886 15.3846 9.05812C17.7523 10.5474 19.6975 12.62 21.0339 15.0771L23.9438 12.2427C25.6439 13.9782 26.815 16.1618 27.3202 18.5382C27.8253 20.9146 27.6438 23.3857 26.7968 25.6628C25.9497 27.9398 24.472 29.9288 22.5365 31.3972C20.601 32.8657 18.2875 33.7528 15.8664 33.9554C13.4453 34.1578 11.0167 33.6669 8.86417 32.5403C6.71168 31.4136 4.92429 29.6977 3.71085 27.5929C2.49743 25.488 1.90806 23.0814 2.01164 20.654C2.11522 18.2267 2.90747 15.8791 4.29581 13.8853Z" stroke="black" stroke-width="1.8" stroke-linecap="round" stroke-linejoin="round"/>
<path d="M29.7334 2L34.0001 6.26666L29.7334 10.5333" stroke="black" stroke-width="1.8" stroke-linecap="round" stroke-linejoin="round"/>
<path d="M34.0004 6.26758H24.4004" stroke="black" stroke-width="1.8" stroke-linecap="round" stroke-linejoin="round"/>
</svg>
