<svg width="36" height="36" viewBox="0 0 36 36" fill="none" xmlns="http://www.w3.org/2000/svg">
<path d="M14.1826 5.81723C14.1826 6.82963 14.5848 7.80056 15.3006 8.51642C16.0166 9.23229 16.9875 9.63447 17.9999 9.63447C19.0122 9.63447 19.9831 9.23229 20.6991 8.51642C21.4149 7.80056 21.8171 6.82963 21.8171 5.81723C21.8171 4.80484 21.4149 3.83391 20.6991 3.11805C19.9831 2.40217 19.0122 2 17.9999 2C16.9875 2 16.0166 2.40217 15.3006 3.11805C14.5848 3.83391 14.1826 4.80484 14.1826 5.81723Z" stroke="black" stroke-width="1.8" stroke-linecap="round" stroke-linejoin="round"/>
<path d="M22.5469 18.889C22.9808 18.882 23.4099 18.9803 23.7974 19.1755C24.185 19.3707 24.5193 19.657 24.7721 20.0097C25.0248 20.3626 25.1881 20.7713 25.2481 21.2011C25.3081 21.6308 25.2632 22.0688 25.1168 22.4773" stroke="black" stroke-width="1.8" stroke-linecap="round" stroke-linejoin="round"/>
<path d="M17.999 9.63477V34.0002" stroke="black" stroke-width="1.8" stroke-linecap="round" stroke-linejoin="round"/>
<path d="M21.501 7.33398H32.7209C36.5281 7.33398 31.0142 16.5116 23.0896 13.4495" stroke="black" stroke-width="1.8" stroke-linecap="round" stroke-linejoin="round"/>
<path d="M14.4964 7.33398H3.2794C-0.526449 7.33398 4.98606 16.5116 12.9107 13.4495" stroke="black" stroke-width="1.8" stroke-linecap="round" stroke-linejoin="round"/>
<path d="M13.4509 18.8888C12.7357 18.8816 12.0468 19.1582 11.5352 19.6581C11.0236 20.158 10.7311 20.8402 10.7217 21.5555C10.7254 22.2841 11.0122 22.9828 11.5215 23.5039C12.0307 24.0252 12.7225 24.3281 13.4509 24.3487H20.727C21.4509 24.3487 22.145 24.6363 22.6569 25.148C23.1686 25.6598 23.4562 26.354 23.4562 27.0779C23.4562 27.8017 23.1686 28.4959 22.6569 29.0078C22.145 29.5196 21.4509 29.8072 20.727 29.8072H15.725C15.1074 29.8213 14.5207 30.0802 14.0939 30.527C13.6672 30.9737 13.4354 31.5717 13.4495 32.1894C13.4477 32.5209 13.5138 32.8492 13.6436 33.1542C13.7735 33.4593 13.9645 33.7345 14.2047 33.9629" stroke="black" stroke-width="1.8" stroke-linecap="round" stroke-linejoin="round"/>
</svg>
