<svg width="36" height="36" viewBox="0 0 36 36" fill="none" xmlns="http://www.w3.org/2000/svg">
<path d="M17.9996 8.0957C26.0624 8.0957 32.7324 14.0597 33.8385 21.8168C34.0167 23.0665 32.9794 24.0957 31.717 24.0957H4.28217C3.01981 24.0957 1.98242 23.0665 2.16063 21.8168C3.26681 14.0597 9.9367 8.0957 17.9996 8.0957Z" stroke="black" stroke-width="1.8" stroke-linecap="round" stroke-linejoin="round"/>
<path d="M18 11.9043C22.3856 11.9043 26.1942 14.3745 28.1104 17.9995" stroke="black" stroke-width="1.8" stroke-linecap="round" stroke-linejoin="round"/>
<path d="M31.8245 28.7353C32.7462 28.7472 33.7371 29.0576 33.9355 29.9577C33.9756 30.1395 34 30.3436 34 30.5708C34 30.798 33.9756 31.002 33.9355 31.1838C33.7371 32.084 32.7462 32.3943 31.8245 32.4062C29.7458 32.433 25.3006 32.4755 18 32.4755C10.6994 32.4755 6.25416 32.433 4.17556 32.4062C3.25379 32.3943 2.26283 32.084 2.06446 31.1838C2.0244 31.002 2 30.798 2 30.5708C2 30.3436 2.0244 30.1395 2.06446 29.9577C2.26283 29.0576 3.25379 28.7472 4.17557 28.7353C6.25416 28.7085 10.6994 28.666 18 28.666C25.3006 28.666 29.7458 28.7085 31.8245 28.7353Z" stroke="black" stroke-width="1.8" stroke-linecap="round" stroke-linejoin="round"/>
<path d="M18 3.52344V8.09487" stroke="black" stroke-width="1.8" stroke-linecap="round" stroke-linejoin="round"/>
<path d="M21.0484 3.52344H14.9531" stroke="black" stroke-width="1.8" stroke-linecap="round" stroke-linejoin="round"/>
</svg>
