<svg width="36" height="36" viewBox="0 0 36 36" fill="none" xmlns="http://www.w3.org/2000/svg">
<path d="M2 18C2 22.2435 3.6857 26.3132 6.68629 29.3138C9.68687 32.3142 13.7565 34 18 34C22.2435 34 26.3132 32.3142 29.3138 29.3138C32.3142 26.3132 34 22.2435 34 18C34 13.7565 32.3142 9.68687 29.3138 6.68629C26.3132 3.6857 22.2435 2 18 2C13.7565 2 9.68687 3.6857 6.68629 6.68629C3.6857 9.68687 2 13.7565 2 18Z" stroke="black" stroke-width="1.8" stroke-linecap="round" stroke-linejoin="round"/>
<path d="M15.8288 13.1369L11.4854 3.40039" stroke="black" stroke-width="1.8" stroke-linecap="round" stroke-linejoin="round"/>
<path d="M3.35254 11.5898L13.1204 15.8636" stroke="black" stroke-width="1.8" stroke-linecap="round" stroke-linejoin="round"/>
<path d="M32.6463 24.41L22.8799 20.1348" stroke="black" stroke-width="1.8" stroke-linecap="round" stroke-linejoin="round"/>
<path d="M20.1699 22.8633L24.5134 32.5998" stroke="black" stroke-width="1.8" stroke-linecap="round" stroke-linejoin="round"/>
<path d="M12.667 17.9993C12.667 19.4139 13.2289 20.7704 14.2291 21.7707C15.2293 22.7708 16.5858 23.3327 18.0003 23.3327C19.4149 23.3327 20.7714 22.7708 21.7716 21.7707C22.7717 20.7704 23.3337 19.4139 23.3337 17.9993C23.3337 16.5848 22.7717 15.2283 21.7716 14.2281C20.7714 13.2279 19.4149 12.666 18.0003 12.666C16.5858 12.666 15.2293 13.2279 14.2291 14.2281C13.2289 15.2283 12.667 16.5848 12.667 17.9993Z" stroke="black" stroke-width="1.8" stroke-linecap="round" stroke-linejoin="round"/>
</svg>
