<svg width="36" height="36" viewBox="0 0 36 36" fill="none" xmlns="http://www.w3.org/2000/svg">
<path d="M30.1904 8.85742C35.2703 13.9067 35.2703 22.0942 30.1904 27.1435" stroke="black" stroke-width="1.8" stroke-linecap="round" stroke-linejoin="round"/>
<path d="M26.3828 11.9043C29.4306 15.2705 29.4306 20.7288 26.3828 24.095" stroke="black" stroke-width="1.8" stroke-linecap="round" stroke-linejoin="round"/>
<path d="M21.3167 5.19571C21.197 3.87607 19.9444 3.00139 18.6964 3.44787C12.8561 5.53705 8.09552 10.0004 8.09552 10.0004C8.09552 10.0004 5.99866 10.4659 4.17382 11.0335C3.7338 11.1677 3.33931 11.4206 3.03376 11.7644C2.7282 12.1083 2.52341 12.5298 2.44193 12.9825C2.14666 14.6388 1.99878 16.3181 2.00001 18.0005C2.00001 20.1095 2.23392 21.868 2.44193 23.0177C2.52341 23.4705 2.7282 23.8919 3.03376 24.2358C3.33931 24.5797 3.7338 24.8326 4.17382 24.9667C5.99866 25.5344 8.09552 26.0006 8.09552 26.0006C8.09552 26.0006 12.8561 30.464 18.6964 32.5531C19.9444 32.9996 21.197 32.1249 21.3167 30.8053C21.5361 28.3672 21.8104 24.0997 21.8104 18.0005C21.8104 11.9014 21.5361 7.63309 21.3167 5.19571Z" stroke="black" stroke-width="1.8" stroke-linejoin="round"/>
<path d="M8.09581 10C8.09581 10 7.71484 13.6465 7.71484 18.0001C7.71484 22.3537 8.09581 26.0003 8.09581 26.0003" stroke="black" stroke-width="1.8" stroke-linecap="round" stroke-linejoin="round"/>
</svg>
