<svg width="36" height="36" viewBox="0 0 36 36" fill="none" xmlns="http://www.w3.org/2000/svg">
<path d="M12.4188 24.2662L7.78495 19.5595C7.50111 19.2813 7.16336 19.0641 6.79248 18.9213C6.4216 18.7785 6.02542 18.713 5.62831 18.7289C4.85536 18.7289 4.11408 19.036 3.56752 19.5825C3.02097 20.1291 2.71392 20.8703 2.71392 21.6433C2.71168 22.0303 2.78655 22.4139 2.93417 22.7717C3.08178 23.1294 3.29917 23.4542 3.57366 23.7271L9.66474 29.8182H30.5026C30.8687 29.8201 31.2315 29.7494 31.57 29.6102C31.9086 29.471 32.2161 29.2661 32.475 29.0073C32.7338 28.7484 32.9388 28.4408 33.0779 28.1023C33.2171 27.7637 33.2878 27.401 33.2859 27.0349C33.2859 26.6701 33.2138 26.3089 33.0737 25.972C32.9337 25.6351 32.7284 25.3293 32.4698 25.072C32.2112 24.8147 31.9042 24.6111 31.5666 24.4728C31.229 24.3345 30.8674 24.2643 30.5026 24.2662H12.4188Z" stroke="black" stroke-width="1.8" stroke-miterlimit="10"/>
<path d="M9.63574 34.0005V29.8184" stroke="black" stroke-width="1.8" stroke-miterlimit="10" stroke-linecap="round"/>
<path d="M29.1182 34.0005V29.8184" stroke="black" stroke-width="1.8" stroke-miterlimit="10" stroke-linecap="round"/>
<path d="M25.9083 8.17073C27.4102 9.34043 26.5831 11.7486 24.6794 11.7486H11.2907C9.38707 11.7486 8.55993 9.34042 10.0618 8.17072L16.7562 2.95708C17.4788 2.3943 18.4914 2.3943 19.214 2.95708L25.9083 8.17073Z" stroke="black" stroke-width="1.8" stroke-miterlimit="10"/>
<path d="M17.9854 24.2663V11.7344" stroke="black" stroke-width="1.8" stroke-miterlimit="10"/>
<path d="M17.9854 34.0005V29.8184" stroke="black" stroke-width="1.8" stroke-miterlimit="10" stroke-linecap="round"/>
</svg>
