<svg width="36" height="36" viewBox="0 0 36 36" fill="none" xmlns="http://www.w3.org/2000/svg">
<path d="M13.4287 4.28572C13.4287 3.02336 14.452 2 15.7144 2H31.7144C32.9767 2 34.0002 3.02336 34.0002 4.28572V31.7142C34.0002 32.9768 32.9767 34 31.7144 34H23.7144" stroke="black" stroke-width="1.8" stroke-linecap="round" stroke-linejoin="round"/>
<path d="M16.8555 14.0013C16.8555 15.0625 17.277 16.0802 18.0274 16.8306C18.7778 17.581 19.7955 18.0026 20.8567 18.0026C21.918 18.0026 22.9357 17.581 23.6861 16.8306C24.4365 16.0802 24.858 15.0625 24.858 14.0013C24.858 12.9401 24.4365 11.9223 23.6861 11.1719C22.9357 10.4216 21.918 10 20.8567 10C19.7955 10 18.7778 10.4216 18.0274 11.1719C17.277 11.9223 16.8555 12.9401 16.8555 14.0013Z" stroke="black" stroke-width="1.8" stroke-linecap="round" stroke-linejoin="round"/>
<path d="M6.57129 15.7148L11.2255 15.7149C11.9044 15.7149 12.5556 15.9846 13.0356 16.4647L19.536 22.9651C20.0162 23.4452 20.6673 23.7149 21.3463 23.7149L24.857 23.7148" stroke="black" stroke-width="1.8" stroke-linecap="round" stroke-linejoin="round"/>
<path d="M15.7143 19.1426L9.60694 25.2499C9.12686 25.7299 8.4757 25.9998 7.79676 25.9998H2" stroke="black" stroke-width="1.8" stroke-linecap="round" stroke-linejoin="round"/>
<path d="M11.1426 23.7148L14.9642 27.5365C15.4443 28.0165 15.714 28.6677 15.714 29.3466V34.0005" stroke="black" stroke-width="1.8" stroke-linecap="round" stroke-linejoin="round"/>
</svg>
