<svg width="36" height="36" viewBox="0 0 36 36" fill="none" xmlns="http://www.w3.org/2000/svg">
<path d="M15.0908 28.0204C15.0908 28.792 15.3973 29.5319 15.9429 30.0775C16.4884 30.623 17.2284 30.9295 17.9999 30.9295C18.7715 30.9295 19.5114 30.623 20.0569 30.0775C20.6025 29.5319 20.909 28.792 20.909 28.0204C20.909 27.2489 20.6025 26.5089 20.0569 25.9634C19.5114 25.4178 18.7715 25.1113 17.9999 25.1113C17.2284 25.1113 16.4884 25.4178 15.9429 25.9634C15.3973 26.5089 15.0908 27.2489 15.0908 28.0204Z" stroke="black" stroke-width="1.8" stroke-miterlimit="10" stroke-linecap="round"/>
<path d="M11.1494 20.8364C12.049 19.9365 13.117 19.2227 14.2925 18.7357C15.468 18.2487 16.7279 17.998 18.0003 17.998C19.2727 17.998 20.5326 18.2487 21.7081 18.7357C22.8836 19.2227 23.9517 19.9365 24.8512 20.8364" stroke="black" stroke-width="1.8" stroke-miterlimit="10" stroke-linecap="round"/>
<path d="M6.56738 16.2682C9.60034 13.2375 13.7125 11.5352 18.0001 11.5352C22.2877 11.5352 26.3999 13.2375 29.4328 16.2682" stroke="black" stroke-width="1.8" stroke-miterlimit="10" stroke-linecap="round"/>
<path d="M2 11.7016C4.10053 9.59931 6.59476 7.93161 9.34013 6.79379C12.0855 5.65596 15.0282 5.07031 18 5.07031C20.9718 5.07031 23.9145 5.65596 26.6599 6.79379C29.4052 7.93161 31.8995 9.59931 34 11.7016" stroke="black" stroke-width="1.8" stroke-miterlimit="10" stroke-linecap="round"/>
</svg>
