<svg width="36" height="36" viewBox="0 0 36 36" fill="none" xmlns="http://www.w3.org/2000/svg">
<path d="M6.3584 31.0902C6.3584 31.8621 6.66504 32.6024 7.21086 33.1482C7.75668 33.694 8.49697 34.0006 9.26888 34.0006C10.0408 34.0006 10.7811 33.694 11.3269 33.1482C11.8727 32.6024 12.1794 31.8621 12.1794 31.0902C12.1794 30.3183 11.8727 29.578 11.3269 29.0321C10.7811 28.4863 10.0408 28.1797 9.26888 28.1797C8.49697 28.1797 7.75668 28.4863 7.21086 29.0321C6.66504 29.578 6.3584 30.3183 6.3584 31.0902Z" stroke="black" stroke-width="1.8" stroke-miterlimit="10"/>
<path d="M22.3584 31.0902C22.3584 31.4724 22.4337 31.8508 22.5799 32.204C22.7262 32.5571 22.9406 32.8779 23.2109 33.1482C23.4811 33.4184 23.802 33.6328 24.1551 33.7791C24.5082 33.9254 24.8867 34.0006 25.2689 34.0006C25.6511 34.0006 26.0295 33.9254 26.3827 33.7791C26.7358 33.6328 27.0566 33.4184 27.3269 33.1482C27.5972 32.8779 27.8115 32.5571 27.9578 32.204C28.1041 31.8508 28.1794 31.4724 28.1794 31.0902C28.1794 30.708 28.1041 30.3295 27.9578 29.9764C27.8115 29.6233 27.5972 29.3024 27.3269 29.0321C27.0566 28.7619 26.7358 28.5475 26.3827 28.4012C26.0295 28.255 25.6511 28.1797 25.2689 28.1797C24.8867 28.1797 24.5082 28.255 24.1551 28.4012C23.802 28.5475 23.4811 28.7619 23.2109 29.0321C22.9406 29.3024 22.7262 29.6233 22.5799 29.9764C22.4337 30.3295 22.3584 30.708 22.3584 31.0902Z" stroke="black" stroke-width="1.8" stroke-miterlimit="10"/>
<path d="M22.3578 31.0898H12.1787" stroke="black" stroke-width="1.8" stroke-miterlimit="10"/>
<path d="M28.179 31.0898H34V24.7508C34.0016 24.0862 33.7757 23.4412 33.3599 22.9228C32.944 22.4044 32.3633 22.0439 31.7143 21.9013L28.179 21.1851C27.9097 21.1258 27.6487 21.0337 27.4019 20.9108C26.8618 20.6324 26.4242 20.1895 26.1524 19.646L25.8933 19.1127C25.2885 17.9047 24.3597 16.8887 23.2106 16.1783C22.0616 15.4679 20.7376 15.091 19.3867 15.0898H13.6724C11.9441 15.093 10.2562 15.6125 8.82528 16.5819C7.39439 17.5512 6.28584 18.926 5.6419 20.5298C5.42605 21.0689 5.05387 21.5311 4.57322 21.857C4.09258 22.1828 3.52545 22.3575 2.94476 22.3584H2V31.0898H6.35809" stroke="black" stroke-width="1.8" stroke-miterlimit="10"/>
<path d="M27.3413 20.9102H15.0898" stroke="black" stroke-width="1.8" stroke-miterlimit="10"/>
<path d="M28.1794 2.00064H29.7032C30.8485 2.01666 31.9414 2.48287 32.7456 3.29845C33.5497 4.11402 34.0005 5.21338 34.0004 6.35873C34.0004 7.51457 33.5412 8.62307 32.7239 9.44037C31.9066 10.2577 30.7981 10.7168 29.6423 10.7168H28.1185C27.3466 10.7168 26.6063 10.4102 26.0605 9.86437C25.5146 9.31855 25.208 8.57826 25.208 7.80635V4.91111C25.2079 4.52372 25.2852 4.14021 25.4352 3.78306C25.5853 3.42592 25.8051 3.10232 26.0819 2.83124C26.3587 2.56017 26.6867 2.34707 27.0469 2.20444C27.4071 2.06181 27.7921 1.99253 28.1794 2.00064Z" stroke="black" stroke-width="1.8" stroke-miterlimit="10"/>
<path d="M10.7314 6.35742H25.2686" stroke="black" stroke-width="1.8" stroke-miterlimit="10"/>
<path d="M13.6416 9.2679V6.35742" stroke="black" stroke-width="1.8" stroke-miterlimit="10"/>
<path d="M18 9.2679V6.35742" stroke="black" stroke-width="1.8" stroke-miterlimit="10"/>
</svg>
