<svg width="36" height="36" viewBox="0 0 36 36" fill="none" xmlns="http://www.w3.org/2000/svg">
<path d="M18.0001 25.4671C15.7369 25.4671 13.5665 24.5681 11.9662 22.9676C10.3658 21.3674 9.4668 19.1969 9.4668 16.9337V10.5337C9.4668 9.96794 9.69157 9.4253 10.0916 9.02523C10.4917 8.62516 11.0343 8.40039 11.6001 8.40039H24.4001C24.9659 8.40039 25.5086 8.62516 25.9087 9.02523C26.3088 9.4253 26.5335 9.96794 26.5335 10.5337V16.9337C26.5335 19.1969 25.6345 21.3674 24.034 22.9676C22.4338 24.5681 20.2633 25.4671 18.0001 25.4671Z" stroke="black" stroke-width="1.8" stroke-linecap="round" stroke-linejoin="round"/>
<path d="M13.7334 24.3242V27.5953C13.7334 28.1611 13.9582 28.7038 14.3582 29.1039C14.7583 29.504 15.301 29.7287 15.8667 29.7287H20.1334C20.6992 29.7287 21.2419 29.504 21.642 29.1039C22.042 28.7038 22.2667 28.1611 22.2667 27.5953V24.3242" stroke="black" stroke-width="1.8" stroke-linecap="round" stroke-linejoin="round"/>
<path d="M13.7334 8.4V2" stroke="black" stroke-width="1.8" stroke-linecap="round" stroke-linejoin="round"/>
<path d="M22.2666 8.4V2" stroke="black" stroke-width="1.8" stroke-linecap="round" stroke-linejoin="round"/>
<path d="M18 29.7324V33.9991" stroke="black" stroke-width="1.8" stroke-linecap="round" stroke-linejoin="round"/>
</svg>
