<svg width="36" height="36" viewBox="0 0 36 36" fill="none" xmlns="http://www.w3.org/2000/svg">
<path d="M3.3913 2H32.6087C32.9777 2 33.3316 2.14658 33.5925 2.4075C33.8534 2.66842 34 3.02231 34 3.3913V6.86957C34 7.05406 33.9267 7.23101 33.7962 7.36147C33.6658 7.49193 33.4888 7.56522 33.3043 7.56522H2.69565C2.51115 7.56522 2.33421 7.49193 2.20375 7.36147C2.07329 7.23101 2 7.05406 2 6.86957V3.3913C2 3.02231 2.14658 2.66842 2.4075 2.4075C2.66842 2.14658 3.02231 2 3.3913 2Z" stroke="black" stroke-width="1.8" stroke-linecap="round" stroke-linejoin="round"/>
<path d="M2.54199 2.29217L9.65156 7.56522L17.9994 2L26.3472 7.56522L33.4568 2.29217" stroke="black" stroke-width="1.8" stroke-linecap="round" stroke-linejoin="round"/>
<path d="M3.3916 7.56445V33.9992" stroke="black" stroke-width="1.8" stroke-linecap="round" stroke-linejoin="round"/>
<path d="M32.6094 7.56445V33.9992" stroke="black" stroke-width="1.8" stroke-linecap="round" stroke-linejoin="round"/>
<path d="M22.1748 31.9124V23.2168" stroke="black" stroke-width="1.8" stroke-linecap="round" stroke-linejoin="round"/>
<path d="M20.5605 22.4102L24.971 24.6223" stroke="black" stroke-width="1.8" stroke-linecap="round" stroke-linejoin="round"/>
<path d="M16.6084 21.4776C16.6084 21.7516 16.6624 22.023 16.7673 22.2762C16.8721 22.5294 17.0259 22.7595 17.2197 22.9533C17.4134 23.1471 17.6435 23.3008 17.8967 23.4057C18.1499 23.5106 18.4213 23.5645 18.6954 23.5645C18.9694 23.5645 19.2408 23.5106 19.494 23.4057C19.7472 23.3008 19.9773 23.1471 20.1711 22.9533C20.3648 22.7595 20.5186 22.5294 20.6235 22.2762C20.7283 22.023 20.7823 21.7516 20.7823 21.4776C20.7823 21.2035 20.7283 20.9321 20.6235 20.6789C20.5186 20.4257 20.3648 20.1957 20.1711 20.0019C19.9773 19.8081 19.7472 19.6544 19.494 19.5495C19.2408 19.4446 18.9694 19.3906 18.6954 19.3906C18.4213 19.3906 18.1499 19.4446 17.8967 19.5495C17.6435 19.6544 17.4134 19.8081 17.2197 20.0019C17.0259 20.1957 16.8721 20.4257 16.7673 20.6789C16.6624 20.9321 16.6084 21.2035 16.6084 21.4776Z" stroke="black" stroke-width="1.8" stroke-linecap="round" stroke-linejoin="round"/>
<path d="M19.3906 34.001L22.1732 31.9141" stroke="black" stroke-width="1.8" stroke-linecap="round" stroke-linejoin="round"/>
<path d="M24.9574 34.001L22.1748 31.9141" stroke="black" stroke-width="1.8" stroke-linecap="round" stroke-linejoin="round"/>
<path d="M17.3048 7.56445L15.5239 11.5158C15.4887 11.62 15.4787 11.7311 15.4948 11.84C15.5108 11.9488 15.5525 12.0523 15.6163 12.1419C15.6801 12.2315 15.7643 12.3047 15.8619 12.3555C15.9595 12.4063 16.0678 12.4332 16.1778 12.434H19.823C19.933 12.4332 20.0413 12.4063 20.1389 12.3555C20.2365 12.3047 20.3207 12.2315 20.3845 12.1419C20.4483 12.0523 20.49 11.9488 20.5061 11.84C20.5221 11.7311 20.5121 11.62 20.4769 11.5158L18.6961 7.56445" stroke="black" stroke-width="1.8" stroke-linecap="round" stroke-linejoin="round"/>
<path d="M3.37793 7.59252L9.40228 10.1803C9.50658 10.2285 9.59844 10.3 9.6708 10.3892C9.74316 10.4785 9.79409 10.5831 9.81967 10.6951C9.84479 10.803 9.84269 10.9154 9.81354 11.0223C9.7844 11.1292 9.72913 11.2271 9.65271 11.3073L7.13445 13.8256C7.05702 13.9069 6.96033 13.9674 6.85332 14.0014C6.74632 14.0354 6.63246 14.042 6.52228 14.0203C6.41027 13.9948 6.30562 13.9438 6.21638 13.8715C6.12713 13.7991 6.05567 13.7073 6.0075 13.603L3.41967 7.55078" stroke="black" stroke-width="1.8" stroke-linecap="round" stroke-linejoin="round"/>
<path d="M32.6232 7.59399L26.5988 10.1818C26.4945 10.23 26.4027 10.3015 26.3303 10.3907C26.2579 10.4799 26.207 10.5846 26.1814 10.6966C26.1598 10.8068 26.1663 10.9206 26.2004 11.0276C26.2344 11.1346 26.2949 11.2313 26.3762 11.3088L28.8667 13.827C28.9441 13.9083 29.0408 13.9688 29.1478 14.0029C29.2548 14.0369 29.3686 14.0434 29.4788 14.0218C29.5908 13.9962 29.6955 13.9453 29.7847 13.873C29.874 13.8006 29.9454 13.7087 29.9936 13.6044L32.5814 7.58008" stroke="black" stroke-width="1.8" stroke-linecap="round" stroke-linejoin="round"/>
</svg>
