<svg width="36" height="36" viewBox="0 0 36 36" fill="none" xmlns="http://www.w3.org/2000/svg">
<path d="M10.3818 25.6191H25.6199" stroke="black" stroke-width="1.8" stroke-linecap="round" stroke-linejoin="round"/>
<path d="M33.984 7.24396C33.8713 4.24462 31.3164 2.22337 28.3163 2.13181C25.9531 2.05969 22.606 2 18 2C13.394 2 10.0469 2.05969 7.68366 2.13181C4.68361 2.22337 2.12871 4.24462 2.01601 7.24396C2.00566 7.51931 2 7.80335 2 8.09524C2 8.38712 2.00566 8.67116 2.01601 8.94651C2.12871 11.9458 4.68361 13.9671 7.68366 14.0587C10.0469 14.1308 13.394 14.1905 18 14.1905C22.606 14.1905 25.9531 14.1308 28.3163 14.0587C31.3164 13.9671 33.8713 11.9458 33.984 8.94651C33.9944 8.67116 34 8.38712 34 8.09524C34 7.80335 33.9944 7.51931 33.984 7.24396Z" stroke="black" stroke-width="1.8" stroke-linecap="round" stroke-linejoin="round"/>
<path d="M3.14311 32.2276L8.09423 14.1914H14.1895L7.26571 32.7762C7.0637 33.3184 6.6617 33.7736 6.09543 33.8925C5.80413 33.9537 5.44897 34.0009 5.0466 34.0009C4.74683 34.0009 4.44706 33.9747 4.16791 33.936C3.36586 33.8249 2.92877 33.0084 3.14311 32.2276Z" stroke="black" stroke-width="1.8" stroke-linecap="round" stroke-linejoin="round"/>
<path d="M32.8569 32.2276L27.9058 14.1914H21.8105L28.7343 32.7762C28.9363 33.3184 29.3383 33.7736 29.9046 33.8925C30.1959 33.9537 30.551 34.0009 30.9534 34.0009C31.2532 34.0009 31.5529 33.9747 31.8321 33.936C32.6342 33.8249 33.0713 33.0084 32.8569 32.2276Z" stroke="black" stroke-width="1.8" stroke-linecap="round" stroke-linejoin="round"/>
</svg>
