<svg width="36" height="36" viewBox="0 0 36 36" fill="none" xmlns="http://www.w3.org/2000/svg">
<path d="M25.4658 19.0652H31.8653C32.431 19.0652 32.9737 18.8405 33.3737 18.4405C33.7738 18.0405 33.9984 17.4978 33.9984 16.9321V4.13315C33.9984 3.56741 33.7738 3.02484 33.3737 2.62478C32.9737 2.22474 32.431 2 31.8653 2H27.599C27.0333 2 26.4906 2.22474 26.0906 2.62478C25.6905 3.02484 25.4658 3.56741 25.4658 4.13315V19.0652Z" stroke="black" stroke-width="1.8" stroke-linecap="round" stroke-linejoin="round"/>
<path d="M8.40074 14.7988C7.83499 14.7988 7.2924 15.0236 6.89237 15.4237C6.49233 15.8237 6.26758 16.3662 6.26758 16.932C6.26758 17.4977 6.49233 18.0403 6.89237 18.4404C7.2924 18.8404 7.83499 19.0651 8.40074 19.0651H25.466V14.7988H8.40074Z" stroke="black" stroke-width="1.8" stroke-linecap="round" stroke-linejoin="round"/>
<path d="M28.9498 23.1201C29.7979 22.836 30.5352 22.2924 31.0576 21.5665C31.58 20.8405 31.861 19.9686 31.8609 19.0742H8.40039C8.39999 21.2371 8.99746 23.3579 10.1268 25.2025C11.2561 27.0471 12.8734 28.5436 14.7999 29.5267L13.7333 34.0006H27.5988V25.1551C27.5864 24.718 27.7097 24.2877 27.9516 23.9233C28.1934 23.559 28.5421 23.2784 28.9498 23.1201Z" stroke="black" stroke-width="1.8" stroke-linecap="round" stroke-linejoin="round"/>
<path d="M6.89648 11.51C6.97211 10.3101 7.48233 9.17878 8.33172 8.32784C9.1811 7.47688 10.3114 6.96456 11.5112 6.88672" stroke="black" stroke-width="1.8" stroke-linecap="round" stroke-linejoin="round"/>
<path d="M2.00098 10.7365C2.24933 8.5054 3.2494 6.42516 4.83678 4.83776C6.42418 3.25038 8.50442 2.25031 10.7355 2.00195" stroke="black" stroke-width="1.8" stroke-linecap="round" stroke-linejoin="round"/>
</svg>
