<svg width="19" height="19" viewBox="0 0 19 19" fill="none" xmlns="http://www.w3.org/2000/svg">
<path d="M0.75 8.82176C0.75 5.61516 0.75 4.01186 1.74583 3.01569C2.74168 2.01953 4.34445 2.01953 7.55 2.01953H10.95C14.1555 2.01953 15.7584 2.01953 16.7541 3.01569C17.75 4.01186 17.75 5.61516 17.75 8.82176V10.5223C17.75 13.7289 17.75 15.3323 16.7541 16.3284C15.7584 17.3246 14.1555 17.3246 10.95 17.3246H7.55C4.34445 17.3246 2.74168 17.3246 1.74583 16.3284C0.75 15.3323 0.75 13.7289 0.75 10.5223V8.82176Z" stroke="#FF3A44" stroke-width="1.5"/>
<path d="M4.99951 2.02542V0.75" stroke="#FF3A44" stroke-width="1.5" stroke-linecap="round"/>
<path d="M13.4995 2.02542V0.75" stroke="#FF3A44" stroke-width="1.5" stroke-linecap="round"/>
<path d="M11.8003 12.6543C11.8003 12.9926 11.9346 13.317 12.1737 13.5562C12.4128 13.7954 12.7371 13.9297 13.0753 13.9297C13.4134 13.9297 13.7377 13.7954 13.9769 13.5562C14.216 13.317 14.3503 12.9926 14.3503 12.6543C14.3503 12.3161 14.216 11.9917 13.9769 11.7525C13.7377 11.5133 13.4134 11.3789 13.0753 11.3789C12.7371 11.3789 12.4128 11.5133 12.1737 11.7525C11.9346 11.9917 11.8003 12.3161 11.8003 12.6543Z" stroke="#FF3A44" stroke-width="1.5"/>
<path d="M1.17529 6.28125H17.3253" stroke="#FF3A44" stroke-width="1.5" stroke-linecap="round"/>
</svg>
