<svg width="227" height="80" viewBox="0 0 227 80" fill="none" xmlns="http://www.w3.org/2000/svg">
<path d="M83.4626 40.0324C83.4626 42.4978 85.7675 42.8066 86.9739 42.8066C90.157 42.8066 91.572 41.3386 92.1997 41.3386C92.8268 41.3386 91.8256 42.8315 90.8789 43.4278C82.9882 48.1964 76.5022 52.3031 76.5022 56.1036C76.5022 57.8226 78.0899 57.9362 79.2973 57.9362C80.5052 57.9362 86.4093 57.1808 95.447 43.1725C95.8714 42.5148 96.5688 42.1343 97.2371 41.6531C97.9051 41.1721 100.059 39.5969 100.486 39.5945C100.911 39.5918 100.896 39.7785 100.88 39.9696C100.856 40.2454 100.568 40.8563 100.568 41.5995C100.568 42.3441 101.325 43.2069 102.556 43.2069C105.302 43.2069 107.306 41.252 108.95 39.4873C108.406 39.3728 107.785 39.2361 107.094 39.0735C106.442 39.6275 105.802 40.0427 105.461 40.0508C104.832 40.0668 104.639 39.7079 104.612 39.3839C104.589 39.1192 104.65 38.8199 104.773 38.4978C103.523 38.1706 102.131 37.7805 100.623 37.3185C100.225 37.5648 99.8064 37.7524 99.5011 37.7102C99.4056 37.6966 99.3469 37.6076 99.5588 37.3055C99.5861 37.2671 99.6522 37.1748 99.7453 37.0452C98.6616 36.7025 97.5237 36.3236 96.3412 35.9065C94.052 38.0087 91.4161 40.1163 89.9711 40.1163C89.3935 40.1163 88.8544 39.7309 88.8544 38.8077C88.8544 38.1968 89.6612 36.2094 91.257 33.9651C90.0596 33.4728 88.8357 32.9437 87.5909 32.3753C84.7683 35.3758 83.4626 38.0948 83.4626 40.0324ZM80.2908 54.4859C80.2908 52.7995 86.1516 48.3745 86.8469 48.3683C87.0266 48.3659 87.0737 48.4373 87.0748 48.5802C87.0818 49.9313 82.8012 55.2952 81.082 55.2952C80.5374 55.2952 80.2908 54.9988 80.2908 54.4859ZM132.489 40.7391C132.482 41.7278 132.726 43.3119 134.406 43.3119C137.724 43.3119 141.852 39.1076 142.049 39.0772C142.186 39.0556 142.209 39.1124 142.209 39.2464C142.209 39.3963 141.741 41.0601 136.89 46.9509C132.038 52.8425 129.689 55.1525 129.689 56.4235C129.689 57.6943 130.767 58.156 131.268 58.156C131.769 58.156 133.886 58.0404 138.93 49.8393C142.531 43.9848 144.231 40.3734 146.142 37.4636C142.691 38.9665 138.352 39.9452 132.489 40.7391ZM112.33 40.2129C112.33 41.3941 112.722 43.0857 115.468 43.0857C116.991 43.0857 118.381 42.2672 119.567 41.0796C117.26 40.9015 114.846 40.591 112.332 40.1244C112.331 40.1539 112.33 40.184 112.33 40.2129ZM122.529 41.2403C122.171 41.7852 121.864 42.2477 121.655 42.5744C121.655 42.5744 121.398 42.8827 121.783 42.8827H125.377C125.531 42.8827 125.685 42.7541 125.813 42.5744C125.857 42.5124 126.225 41.9513 126.694 41.2317C125.351 41.2793 123.963 41.2847 122.529 41.2403Z" fill="#808080"/>
<path d="M149.539 28.9118C149.539 29.5272 150.478 29.9508 150.791 29.9508C151.272 29.9508 152.87 28.9118 152.87 27.4873C152.87 26.9668 152.504 26.3892 151.965 26.3892C151.215 26.3892 149.539 28.0838 149.539 28.9118ZM145.284 33.8593C143.013 36.3236 140.279 39.6354 137.814 39.6354C136.903 39.6354 136.621 39.0581 136.621 38.4797C136.621 38.0569 136.952 37.665 137.583 37.4785C139.907 36.7935 143.552 33.7651 143.552 31.703C143.552 31.1639 143.283 30.5825 142.59 30.5825C141.583 30.5825 138.777 31.0507 135.281 35.2299C134.889 35.6976 134.468 36.0159 134.156 36.0159C133.83 36.0159 133.444 35.3996 133.444 34.1676C133.444 34.0369 133.45 33.9132 133.457 33.7936C130.916 34.7116 128.328 35.4253 125.733 35.952C124.877 37.6344 123.509 39.7491 122.529 41.2404C123.963 41.2848 125.352 41.2793 126.694 41.2317C127.598 39.8457 128.878 37.8761 128.946 37.7741C129.048 37.6204 129.202 37.5178 129.356 37.5178C129.921 37.5178 129.228 38.9555 131.333 38.9555C131.924 38.9555 132.508 38.6534 132.663 38.6534C132.817 38.6534 132.836 38.7885 132.836 38.9033C132.836 39.1336 132.547 39.6643 132.501 40.4051C132.494 40.505 132.491 40.6181 132.489 40.7391C138.352 39.9453 142.692 38.9666 146.142 37.4636C146.908 36.2966 148.028 34.7525 148.827 33.9749C150.329 32.5115 150.714 31.7412 150.714 31.3953C150.714 30.9463 150.444 30.5094 149.905 30.5094C149.366 30.5094 147.556 31.3953 145.284 33.8593ZM137.915 35.6903C137.915 35.0126 140.182 32.8311 140.943 32.8311C141.05 32.8311 141.198 32.9161 141.198 33.043C141.198 33.9113 138.932 35.965 138.212 35.965C138.064 35.965 137.915 35.86 137.915 35.6903ZM87.5913 32.3753C88.8361 32.9437 90.06 33.4728 91.2573 33.9652C91.4595 33.6802 91.6752 33.3908 91.9037 33.0996C90.6118 32.6601 89.3711 32.207 88.1924 31.7534C87.984 31.9623 87.7851 32.1688 87.5913 32.3753ZM96.3416 35.9066C97.5241 36.3236 98.6619 36.7026 99.7456 37.0452C99.9654 36.7394 100.345 36.2146 100.782 35.6145C99.6753 35.3688 98.5824 35.0978 97.5092 34.8099C97.1362 35.1674 96.7446 35.5371 96.3416 35.9066ZM101.735 36.4587C101.554 36.6354 101.104 37.0203 100.623 37.3186C102.132 37.7806 103.523 38.1706 104.774 38.4978C105.002 37.9027 105.449 37.2317 105.999 36.564C104.75 36.3902 103.507 36.1767 102.278 35.9312C102.101 36.102 101.92 36.2768 101.735 36.4587ZM120.477 36.7675C119.612 38.3449 118.382 39.7894 116.904 39.7929C116.444 39.7943 116.15 39.545 116.137 39.1084C116.119 38.5771 116.481 37.8058 116.969 37.0439C115.589 37.1118 114.22 37.1313 112.868 37.105C112.787 37.5135 112.355 39.0535 112.332 40.1245C114.847 40.5911 117.26 40.9015 119.567 41.0796C120.851 39.7951 121.896 38.0786 122.611 36.4955C121.898 36.5994 121.187 36.6901 120.477 36.7675ZM107.095 39.0735C107.786 39.2362 108.407 39.3728 108.95 39.4873C109.882 38.4878 110.698 37.5478 111.468 37.0606C110.646 37.0244 109.831 36.9721 109.025 36.9034C108.712 37.5083 107.895 38.395 107.095 39.0735Z" fill="#808080"/>
<path d="M92.7766 27.8786C90.9735 29.1896 89.4508 30.4931 88.1925 31.7535C89.3712 32.2072 90.6119 32.6602 91.9037 33.0998C92.5988 32.2126 93.4116 31.3089 94.3418 30.4517C97.9805 27.1018 102.197 25.4654 104.815 25.4654C105.913 25.4654 107.227 25.6819 107.421 25.7095C107.555 25.7285 107.601 25.7028 107.658 25.607C107.738 25.4735 109.701 21.9853 109.701 21.9853C109.732 21.9347 109.714 21.8901 109.667 21.8749C109.62 21.8597 109.276 21.7369 108.562 21.7369C105.624 21.7369 99.2206 23.1941 92.7766 27.8786ZM111.342 25.0998C111.342 26.9478 112.449 29.4798 117.099 31.0293C117.214 31.068 117.329 31.0823 117.329 31.1787C117.329 31.376 115.135 34.3407 113.152 34.6875C112.924 34.7278 112.767 34.5337 112.767 34.3218C112.767 34.1099 113.075 33.4939 113.075 32.5504C113.075 31.6071 112.786 30.2788 110.995 30.2788C109.266 30.2788 107.285 31.1053 102.278 35.9314C103.507 36.1769 104.75 36.3904 105.999 36.5642C107.557 34.6731 109.942 32.8124 110.545 32.7972C110.918 32.7875 111.071 32.9458 111.085 33.1079C111.141 33.774 110.184 34.2395 109.59 34.6685C108.897 35.1689 108.673 35.3262 108.743 35.7465C108.782 35.9774 109.116 36.0394 109.157 36.447C109.169 36.5647 109.118 36.7217 109.025 36.9036C109.831 36.9723 110.646 37.0246 111.468 37.0608C111.816 36.8402 112.154 36.712 112.49 36.712C112.773 36.712 112.881 36.8365 112.881 37.0164C112.881 37.0321 112.876 37.0633 112.868 37.1052C114.22 37.1315 115.589 37.112 116.969 37.044C117.686 35.9268 118.676 34.8309 119.149 34.5454C119.945 34.0647 120.38 33.591 120.371 33.3206C120.363 33.0503 119.796 32.6865 119.738 32.4215C119.672 32.1132 119.921 31.9473 120.474 32.087C121.266 32.2873 121.84 32.3125 121.859 32.8946C121.874 33.3702 121.37 35.14 120.477 36.7677C121.187 36.6903 121.899 36.5996 122.611 36.4957C123.297 34.9784 123.68 33.5845 123.68 32.8142C123.68 32.6467 123.735 32.444 124.042 32.444C124.349 32.444 125.204 32.536 125.581 32.5736C125.993 32.615 126.532 32.9485 126.532 33.7188C126.532 34.2035 126.213 35.0103 125.733 35.9522C128.329 35.4255 130.917 34.7118 133.457 33.7938C133.567 32.1644 134.368 31.4997 134.368 30.9643C134.368 30.5978 134.218 30.4517 133.786 30.4517C132.805 30.4517 130.883 32.8004 130.537 32.8004C130.256 32.8004 129.932 31.7251 129.613 31.2988C129.151 30.6826 128.515 30.5286 126.706 30.5286C125.801 30.5286 125.281 30.6062 124.472 30.6062C123.552 30.6062 123.336 30.5673 123.163 30.1629C122.99 29.7591 120.294 22.6544 114.153 22.6544C112.786 22.6544 111.342 23.2517 111.342 25.0998ZM114.423 25.9675C114.423 25.1498 114.978 24.6781 115.762 24.6781C119.483 24.6781 121.338 29.9707 121.338 30.3064C121.338 30.4742 121.239 30.5681 120.971 30.5681C119.612 30.5681 114.423 28.5455 114.423 25.9675ZM100.464 31.8764C100.048 32.2789 98.9137 33.4614 97.5093 34.8101C98.5824 35.098 99.6753 35.369 100.782 35.6147C101.778 34.2476 103.066 32.4987 103.41 32.1078C103.968 31.4726 104.257 31.1641 104.257 30.9521C104.257 30.7083 103.911 30.5096 103.487 30.5096C103.121 30.5096 101.619 30.7602 100.464 31.8764Z" fill="#808080"/>
<mask id="mask0_41_1694" style="mask-type:luminance" maskUnits="userSpaceOnUse" x="65" y="2" width="255" height="76">
<path d="M65.3334 2H319.438V78H65.3334V2Z" fill="white"/>
</mask>
<g mask="url(#mask0_41_1694)">
<path d="M101.611 36.3318C101.339 36.5973 100.857 36.9854 100.396 37.2482C100.547 37.2953 100.697 37.3408 100.846 37.3862C101.398 37.0217 101.85 36.5929 101.858 36.5851C102.075 36.3726 102.284 36.1702 102.49 35.9721C102.349 35.9444 102.208 35.9166 102.067 35.8876C101.917 36.0324 101.766 36.1796 101.611 36.3318Z" fill="#808080"/>
</g>
<path d="M128.797 37.6761L128.023 38.8648C127.574 39.5555 126.964 40.4925 126.477 41.2393C126.622 41.2347 126.767 41.2292 126.91 41.2241C127.312 40.6073 127.806 39.8492 128.32 39.0578L129.092 37.8726C129.165 37.7649 129.268 37.6948 129.356 37.6948C129.399 37.6948 129.419 37.7159 129.485 37.953C129.607 38.3939 129.811 39.1322 131.332 39.1322C131.752 39.1322 132.161 38.9934 132.432 38.9013C132.515 38.8729 132.614 38.8396 132.653 38.8334C132.656 38.8469 132.658 38.8675 132.658 38.9035C132.658 38.9639 132.615 39.0981 132.569 39.2407C132.478 39.5252 132.353 39.9149 132.324 40.394C132.316 40.5115 132.312 40.6352 132.311 40.7632C132.43 40.7472 132.549 40.7321 132.666 40.7155C132.668 40.6073 132.671 40.5055 132.677 40.4165C132.704 39.981 132.821 39.6156 132.907 39.3487C132.968 39.1576 133.012 39.0193 133.012 38.9035C133.012 38.5181 132.767 38.4764 132.662 38.4764C132.58 38.4764 132.476 38.5121 132.317 38.5657C132.069 38.6502 131.694 38.7782 131.332 38.7782C130.08 38.7782 129.939 38.268 129.826 37.8582C129.763 37.6276 129.683 37.3405 129.356 37.3405C129.146 37.3405 128.938 37.4661 128.797 37.6761Z" fill="#808080"/>
<path d="M120.265 36.7895C119.907 37.4288 119.484 38.0429 119.002 38.5417C118.316 39.2527 117.609 39.6141 116.903 39.6159C116.689 39.6165 116.328 39.5504 116.313 39.1025C116.296 38.5796 116.679 37.7977 117.183 37.0331C117.038 37.0407 116.893 37.0477 116.748 37.0547C116.28 37.808 115.942 38.5669 115.959 39.1144C115.976 39.6433 116.338 39.9716 116.904 39.97C117.71 39.9678 118.501 39.5699 119.257 38.7877C119.809 38.2167 120.292 37.4913 120.694 36.7427C120.551 36.7592 120.408 36.7743 120.265 36.7895Z" fill="#808080"/>
<mask id="mask1_41_1694" style="mask-type:luminance" maskUnits="userSpaceOnUse" x="65" y="2" width="255" height="76">
<path d="M65.3334 2H319.438V78H65.3334V2Z" fill="white"/>
</mask>
<g mask="url(#mask1_41_1694)">
<path d="M104.602 38.4531C104.718 38.4832 104.833 38.5135 104.946 38.543C105.161 37.9922 105.588 37.3288 106.205 36.5915C106.068 36.5729 105.93 36.5542 105.792 36.5347C105.306 37.1356 104.843 37.8146 104.602 38.4531Z" fill="#808080"/>
<path d="M96.1531 35.8398C96.2784 35.8842 96.404 35.9286 96.5282 35.9724C96.9201 35.6103 97.3134 35.2381 97.7047 34.8616C97.5727 34.8265 97.4406 34.7915 97.309 34.7561C96.9391 35.1104 96.5507 35.4752 96.1531 35.8398Z" fill="#808080"/>
<path d="M108.834 36.8862C108.71 37.1082 108.499 37.4037 108.172 37.7743C107.776 38.223 107.314 38.6626 106.877 39.0231C107.024 39.0574 107.167 39.091 107.307 39.124C107.732 38.7538 108.137 38.3494 108.437 38.0087C108.817 37.5783 109.075 37.2151 109.214 36.9195C109.087 36.9093 108.961 36.8979 108.834 36.8862Z" fill="#808080"/>
<path d="M109.2 38.9568C109.053 39.1165 108.902 39.2797 108.748 39.4448C108.887 39.4743 109.023 39.5032 109.152 39.53C109.257 39.4177 109.36 39.3067 109.46 39.1971C110.32 38.2669 111.091 37.4316 111.801 37.0738C111.593 37.066 111.385 37.0568 111.177 37.0468C110.55 37.4966 109.904 38.1954 109.2 38.9568Z" fill="#808080"/>
<path d="M91.0858 33.8947C91.1992 33.9416 91.3124 33.9884 91.4252 34.0347C91.6312 33.7461 91.8507 33.4538 92.0824 33.1599C91.9625 33.1193 91.8437 33.0787 91.7246 33.0381C91.4996 33.3261 91.2861 33.6124 91.0858 33.8947Z" fill="#808080"/>
</g>
<path d="M143.374 31.7031C143.374 33.7048 139.73 36.6607 137.533 37.3089C136.851 37.51 136.443 37.9479 136.443 38.4797H136.798C136.798 38.1135 137.11 37.8028 137.633 37.6486C139.93 36.9711 143.728 33.9119 143.728 31.7031H143.374Z" fill="#808080"/>
<path d="M135.145 35.116C134.772 35.5617 134.393 35.8383 134.156 35.8383C133.975 35.8383 133.62 35.3338 133.62 34.1673C133.62 34.0122 133.627 33.8655 133.638 33.7264C133.517 33.7705 133.396 33.8149 133.275 33.8582C133.269 33.9584 133.266 34.0604 133.266 34.1673C133.266 35.559 133.727 36.1926 134.156 36.1926C134.634 36.1926 135.151 35.6605 135.416 35.3433C135.861 34.8117 136.294 34.3413 136.714 33.9251L136.563 33.5732C136.105 34.022 135.632 34.5335 135.145 35.116Z" fill="#808080"/>
<path d="M136.563 33.5734L136.714 33.9253C139.65 31.013 141.904 30.7597 142.589 30.7597C143.336 30.7597 143.374 31.5457 143.374 31.7032H143.728C143.728 31.0572 143.376 30.4057 142.589 30.4057C141.68 30.4057 139.444 30.7473 136.563 33.5734Z" fill="#808080"/>
<path d="M137.737 35.6903C137.737 35.9734 137.979 36.1428 138.211 36.1428C139.045 36.1428 141.374 34.0187 141.374 33.0427C141.374 32.8135 141.147 32.6541 140.943 32.6541C140.104 32.6541 137.737 34.8956 137.737 35.6903ZM138.092 35.6903C138.092 35.0884 140.304 33.0081 140.943 33.0081C140.97 33.0081 141.014 33.0327 141.021 33.0484C141.02 33.8071 138.843 35.7883 138.211 35.7883C138.162 35.7883 138.092 35.7577 138.092 35.6903Z" fill="#808080"/>
<path d="M149.362 28.9111C149.362 29.6432 150.379 30.1279 150.79 30.1279C151.336 30.1279 153.047 29.032 153.047 27.4866C153.047 26.8711 152.612 26.2118 151.965 26.2118C151.089 26.2118 149.362 28.003 149.362 28.9111ZM149.716 28.9111C149.716 28.2101 151.293 26.5661 151.965 26.5661C152.394 26.5661 152.692 27.0514 152.692 27.4866C152.692 28.8009 151.188 29.7736 150.79 29.7736C150.527 29.7736 149.716 29.3855 149.716 28.9111Z" fill="#808080"/>
<mask id="mask2_41_1694" style="mask-type:luminance" maskUnits="userSpaceOnUse" x="65" y="2" width="255" height="76">
<path d="M65.3334 2H319.438V78H65.3334V2Z" fill="white"/>
</mask>
<g mask="url(#mask2_41_1694)">
<path d="M122.321 41.2333C122.46 41.2382 122.598 41.2428 122.736 41.2466C123.743 39.7128 125.111 37.5892 125.951 35.906C125.804 35.9366 125.657 35.9666 125.51 35.9956C124.627 37.6994 123.242 39.8319 122.321 41.2333Z" fill="#808080"/>
<path d="M87.4181 32.2952C87.5301 32.3466 87.6425 32.3989 87.7542 32.4495C87.9505 32.2421 88.1567 32.0321 88.3692 31.821C88.2487 31.775 88.1296 31.729 88.0103 31.683C87.8065 31.8887 87.6073 32.093 87.4181 32.2952Z" fill="#808080"/>
<path d="M100.594 35.5721C100.152 36.1795 99.7737 36.7024 99.568 36.9887C99.6865 37.0263 99.8059 37.0645 99.9234 37.1013C100.154 36.7811 100.537 36.2525 100.972 35.6563C100.845 35.6287 100.72 35.6005 100.594 35.5721Z" fill="#808080"/>
<path d="M112.602 37.4677C112.452 38.0937 112.18 39.2326 112.156 40.0911C112.273 40.1133 112.392 40.1361 112.509 40.1577C112.521 39.3328 112.797 38.1776 112.947 37.5502C113.002 37.3191 113.033 37.1894 113.047 37.1077C112.927 37.1055 112.807 37.1031 112.688 37.1007C112.669 37.1892 112.635 37.3291 112.602 37.4677Z" fill="#808080"/>
<path d="M122.403 36.5257C122.07 37.2505 121.668 38.0011 121.205 38.7232C120.77 39.4031 120.131 40.2827 119.33 41.0603C119.48 41.0725 119.632 41.0868 119.782 41.0979C121.064 39.7809 122.107 38.0538 122.817 36.4646C122.679 36.4857 122.541 36.5062 122.403 36.5257Z" fill="#808080"/>
</g>
<path d="M145.154 33.7391L144.451 34.5088C142.342 36.8286 139.951 39.4577 137.814 39.4577C136.974 39.4577 136.798 38.9259 136.798 38.4796H136.443C136.443 39.248 136.878 39.73 137.618 39.8017C138.382 39.8177 138.875 39.6821 139.718 39.2704C141.422 38.3656 143.144 36.4729 144.713 34.747L145.414 33.9791C147.685 31.5154 149.449 30.6863 149.905 30.6863V30.3323C149.282 30.3323 147.442 31.2569 145.154 33.7391Z" fill="#808080"/>
<path d="M149.904 30.6865C150.341 30.6865 150.536 31.0424 150.536 31.3953C150.536 31.5512 150.404 32.1905 148.702 33.848C147.849 34.6795 146.676 36.3131 145.852 37.5876C146.054 37.5013 146.252 37.4152 146.446 37.3292C147.151 36.2769 148.22 34.8129 148.95 34.1016C150.219 32.865 150.89 31.9288 150.89 31.3953C150.89 30.8667 150.552 30.3325 149.904 30.3325V30.6865Z" fill="#808080"/>
<path d="M104.435 39.3992C104.48 39.9335 104.865 40.2434 105.466 40.228C105.901 40.2177 106.629 39.7148 107.307 39.124C107.167 39.0909 107.024 39.0574 106.877 39.0227C106.274 39.5205 105.72 39.8675 105.457 39.8745C105.042 39.8845 104.817 39.7148 104.788 39.3697C104.768 39.1359 104.823 38.8574 104.946 38.5429C104.833 38.5131 104.718 38.4831 104.603 38.453C104.477 38.7854 104.411 39.1066 104.435 39.3992Z" fill="#808080"/>
<path d="M99.4141 37.2035C99.2509 37.436 99.2035 37.5984 99.2609 37.7294C99.298 37.8144 99.3765 37.8712 99.4769 37.8848C99.8745 37.94 100.394 37.6845 100.846 37.3857C100.697 37.3405 100.548 37.2947 100.396 37.2479C100.113 37.4098 99.8377 37.5248 99.6255 37.534C99.642 37.5021 99.6647 37.4628 99.704 37.4068C99.7316 37.3676 99.8092 37.2588 99.9235 37.101C99.8057 37.0639 99.6866 37.0257 99.5678 36.9881C99.4907 37.0958 99.4363 37.1716 99.4141 37.2035Z" fill="#808080"/>
<path d="M86.8455 48.191C86.3824 48.1951 84.5896 49.4772 83.1938 50.6621C82.0435 51.6392 80.114 53.4342 80.114 54.4862C80.114 55.1222 80.4577 55.4719 81.0821 55.4719C81.8819 55.4719 83.0195 54.4978 83.8328 53.6802C85.4511 52.0535 87.2569 49.5267 87.2523 48.5794C87.2515 48.4985 87.2404 48.3808 87.1505 48.2917C87.0818 48.2243 86.9851 48.1908 86.8552 48.1908C86.852 48.1908 86.8487 48.1908 86.8455 48.191ZM80.4683 54.4862C80.4683 52.9237 86.1794 48.5632 86.8487 48.545C86.8487 48.545 86.8766 48.5483 86.8947 48.5496C86.8961 48.564 86.8977 48.5808 86.8977 48.5808V48.584C86.8977 49.3478 85.2575 51.7458 83.5819 53.4301C82.515 54.5024 81.6037 55.1179 81.0821 55.1179C80.6575 55.1179 80.4683 54.923 80.4683 54.4862Z" fill="#808080"/>
<path d="M88.6772 38.8073C88.6772 39.9045 89.3745 40.2937 89.9712 40.2937C91.4444 40.2937 93.9556 38.3482 96.5281 35.9724C96.4039 35.9286 96.2783 35.8845 96.153 35.8401C93.9063 37.8989 91.3508 39.9394 89.9712 39.9394C89.3826 39.9394 89.0313 39.5161 89.0313 38.8073C89.0313 38.191 89.8562 36.2295 91.4255 34.0345C91.3123 33.9885 91.1992 33.9414 91.0861 33.8946C89.4911 36.1432 88.6772 38.1431 88.6772 38.8073Z" fill="#808080"/>
<path d="M76.3254 56.1035H76.6795C76.6795 52.4949 82.6025 48.6361 90.9703 43.5787L90.7847 43.2774C82.3194 48.3934 76.3254 52.3095 76.3254 56.1035Z" fill="#808080"/>
<path d="M83.2859 40.0327C83.2859 41.9081 84.6302 42.9836 86.9741 42.9836V42.6296C85.7288 42.6296 83.6402 42.2921 83.6402 40.0327C83.6402 38.2664 84.7975 35.5755 87.7541 32.4495C87.6424 32.3989 87.53 32.3466 87.418 32.2952C84.4489 35.4678 83.2859 38.2155 83.2859 40.0327Z" fill="#808080"/>
<mask id="mask3_41_1694" style="mask-type:luminance" maskUnits="userSpaceOnUse" x="65" y="2" width="255" height="76">
<path d="M65.3334 2H319.438V78H65.3334V2Z" fill="white"/>
</mask>
<g mask="url(#mask3_41_1694)">
<path d="M90.9705 43.5789C91.7551 43.0846 92.6986 41.8984 92.5563 41.4058C92.5121 41.2528 92.3787 41.1619 92.1995 41.1619C91.9635 41.1619 91.6799 41.3089 91.2874 41.5124C90.4825 41.9306 89.1355 42.6294 86.974 42.6294V42.9837C89.2218 42.9837 90.617 42.2594 91.4504 41.8269C91.7854 41.6531 92.0648 41.5097 92.1995 41.5097C92.2188 41.5097 92.2261 41.524 92.2261 41.5457C92.2261 41.8012 91.5919 42.7691 90.7846 43.2776" fill="#808080"/>
</g>
<path d="M102.556 43.029C101.374 43.029 100.745 42.1981 100.745 41.5989H100.391C100.391 42.4601 101.261 43.3833 102.556 43.3833C105.416 43.3833 107.483 41.3269 109.152 39.5297C109.023 39.5029 108.887 39.474 108.748 39.4445C107.151 41.1512 105.186 43.029 102.556 43.029Z" fill="#808080"/>
<path d="M97.2912 41.3963L97.1337 41.5091L96.7239 41.7941C96.1742 42.1695 95.6546 42.5243 95.2984 43.0768C86.282 57.0507 80.3877 57.7587 79.2975 57.7587C77.7261 57.7587 76.6795 57.4775 76.6795 56.1037H76.3254C76.3254 58.1133 78.3329 58.1133 79.2975 58.1133C79.9501 58.1133 81.7664 57.9024 84.5379 55.9524C88.0321 53.4937 91.752 49.226 95.5958 43.2687C95.9136 42.7763 96.4043 42.4413 96.9237 42.0864L97.3407 41.7968L97.4983 41.6832C99.6843 40.1047 100.294 39.7989 100.486 39.7712C100.644 39.7491 100.68 39.7867 100.694 39.797L100.944 39.5466C100.832 39.4324 100.726 39.417 100.486 39.417C100.159 39.417 99.2632 39.9721 97.2912 41.3963Z" fill="#808080"/>
<path d="M112.153 40.2132C112.153 42.2082 113.299 43.2632 115.468 43.2632C117.073 43.2632 118.539 42.3733 119.782 41.0977C119.632 41.0866 119.48 41.0725 119.33 41.0603C118.288 42.0709 116.971 42.9089 115.468 42.9089C113.476 42.9089 112.508 42.0271 112.508 40.2132C112.508 40.1953 112.508 40.1764 112.508 40.1577C112.391 40.136 112.273 40.1136 112.155 40.0914C112.154 40.1325 112.153 40.1737 112.153 40.2132Z" fill="#808080"/>
<path d="M126.477 41.2389C126.045 41.9025 125.709 42.4151 125.669 42.4712C125.546 42.6438 125.438 42.7047 125.377 42.7047H121.783H121.779C121.784 42.6985 121.787 42.6918 121.792 42.6869L121.797 42.6796L122.393 41.7683C122.501 41.604 122.617 41.4289 122.736 41.2464C122.598 41.2429 122.46 41.2381 122.321 41.2335C122.243 41.3517 122.168 41.4657 122.098 41.5731C122.098 41.5731 121.514 42.4666 121.508 42.4744C121.475 42.5169 121.394 42.6319 121.394 42.7627C121.394 42.8016 121.402 42.8417 121.42 42.8809C121.458 42.9624 121.552 43.0596 121.783 43.0596H125.377C125.578 43.0596 125.779 42.9269 125.957 42.6774C126.005 42.6114 126.377 42.0422 126.91 41.2237C126.766 41.2289 126.622 41.2343 126.477 41.2389Z" fill="#808080"/>
<path d="M132.311 40.7629C132.311 40.771 132.311 40.7784 132.311 40.7862C132.311 41.5118 132.445 42.3652 132.97 42.9241C133.322 43.2992 133.806 43.4895 134.406 43.4895V43.1349C133.907 43.1349 133.511 42.9826 133.228 42.6813C132.749 42.1711 132.66 41.3207 132.666 40.7153C132.548 40.7318 132.43 40.747 132.311 40.7629Z" fill="#808080"/>
<path d="M100.821 39.6679L100.694 39.7962C100.719 39.8219 100.724 39.859 100.721 39.9045C100.719 39.9505 100.704 39.9987 100.695 40.042C100.685 40.0853 100.652 40.2279 100.604 40.3919C100.514 40.6964 100.391 41.113 100.391 41.5996H100.745C100.745 41.1641 100.855 40.7914 100.943 40.4924C101.002 40.294 101.032 40.1741 101.054 40.032L101.061 39.9356C101.063 39.7962 101.052 39.656 100.944 39.5467L100.821 39.6679Z" fill="#808080"/>
<path d="M136.753 46.8388C135.462 48.4053 134.372 49.6925 133.409 50.8274C130.734 53.9851 129.512 55.4258 129.512 56.4237C129.512 56.9293 129.673 57.325 129.906 57.6208L130.129 57.3291C129.972 57.1017 129.866 56.8046 129.866 56.4237C129.866 55.556 131.14 54.052 133.68 51.0569C134.643 49.9204 135.734 48.6327 137.026 47.0637C138.756 44.9639 139.927 43.4031 140.72 42.2533L140.353 42.1607C139.571 43.2851 138.426 44.8067 136.753 46.8388Z" fill="#808080"/>
<path d="M145.852 37.5878C144.952 38.9806 144.396 40.0575 143.3 42.0019C142.046 44.2259 140.625 46.746 138.78 49.7456C134.374 56.9091 132.183 57.9784 131.268 57.9784C131.014 57.9784 130.459 57.8087 130.129 57.3289L129.906 57.6206C130.295 58.1146 130.885 58.3333 131.268 58.3333C132.999 58.3333 135.701 55.4278 139.081 49.9318C140.93 46.9257 142.353 44.4026 143.609 42.1759C144.824 40.0204 145.461 38.799 146.446 37.329C146.252 37.4151 146.054 37.5012 145.852 37.5878Z" fill="#808080"/>
<path d="M142.023 38.9032C141.95 38.9254 141.883 38.9609 141.469 39.3187C140.263 40.3626 137.057 43.1349 134.405 43.1349V43.4895C137.189 43.4895 140.467 40.6541 141.701 39.5869C141.82 39.4846 141.93 39.3896 142.011 39.3228C141.937 39.5512 141.623 40.3331 140.353 42.1606L140.72 42.2532C142.358 39.8798 142.386 39.2551 142.386 39.2462C142.386 39.1753 142.386 39.044 142.286 38.9585C142.226 38.907 142.155 38.8935 142.1 38.8935C142.066 38.8935 142.038 38.8986 142.023 38.9032Z" fill="#808080"/>
<path d="M123.502 32.8137C123.502 33.588 123.106 34.9981 122.403 36.5251C122.541 36.5057 122.679 36.4851 122.817 36.4643C123.484 34.9729 123.857 33.6042 123.857 32.8137C123.857 32.664 123.898 32.6204 124.041 32.6204C124.298 32.6204 124.979 32.6897 125.386 32.7314L125.563 32.7492C125.857 32.7787 126.355 33.0158 126.355 33.7182C126.355 34.1951 126.014 35.0257 125.51 35.9957C125.657 35.9665 125.804 35.9365 125.951 35.9062C126.408 34.9911 126.709 34.2059 126.709 33.7182C126.709 32.8865 126.133 32.4502 125.598 32.3968L125.422 32.379C124.982 32.334 124.316 32.2664 124.041 32.2664C123.704 32.2664 123.502 32.471 123.502 32.8137Z" fill="#808080"/>
<path d="M114.245 25.9667C114.245 28.7123 119.565 30.7449 120.97 30.7449C121.444 30.7449 121.515 30.4696 121.515 30.3059C121.515 29.9559 119.666 24.5006 115.762 24.5006C114.84 24.5006 114.245 25.0763 114.245 25.9667ZM114.599 25.9667C114.599 25.2809 115.045 24.8549 115.762 24.8549C119.293 24.8549 121.134 29.9524 121.16 30.3094C121.16 30.3476 121.16 30.3906 120.97 30.3906C119.722 30.3906 114.599 28.4034 114.599 25.9667Z" fill="#808080"/>
<path d="M111.177 37.0468C111.385 37.0568 111.593 37.066 111.801 37.0738C112.037 36.9553 112.266 36.8887 112.489 36.8887C112.703 36.8887 112.703 36.9623 112.703 37.0159C112.702 37.0289 112.696 37.0598 112.688 37.1004C112.807 37.1031 112.927 37.1055 113.047 37.1077C113.054 37.0676 113.057 37.0384 113.057 37.0159C113.057 36.9031 113.016 36.5344 112.489 36.5344C112.053 36.5344 111.62 36.7293 111.177 37.0468Z" fill="#808080"/>
<path d="M119.682 32.0069C119.568 32.1168 119.526 32.2773 119.565 32.4587C119.602 32.6319 119.755 32.7924 119.917 32.9626C120.02 33.0701 120.191 33.2503 120.194 33.3261C120.198 33.4704 119.894 33.8877 119.057 34.3936C118.541 34.7046 117.484 35.8724 116.748 37.0549C116.893 37.0479 117.038 37.0409 117.183 37.0333C117.877 35.9802 118.803 34.9601 119.24 34.6964C120.07 34.1949 120.56 33.6782 120.548 33.3147C120.541 33.1036 120.363 32.9166 120.174 32.7182C120.07 32.6091 119.928 32.46 119.911 32.3845C119.899 32.3258 119.904 32.2844 119.928 32.2622C119.977 32.2143 120.138 32.1848 120.43 32.2584L120.785 32.3428C121.454 32.4955 121.671 32.5721 121.682 32.9001C121.695 33.3147 121.194 35.1354 120.265 36.7897C120.408 36.7745 120.551 36.7594 120.694 36.7429C121.562 35.1271 122.052 33.403 122.036 32.8887C122.015 32.2603 121.482 32.1385 120.864 31.9972L120.517 31.9152C120.362 31.8759 120.232 31.8602 120.124 31.8602C119.893 31.8602 119.759 31.9325 119.682 32.0069Z" fill="#808080"/>
<path d="M100.341 31.749L99.6912 32.3989C99.1166 32.9797 98.2738 33.8317 97.3092 34.756C97.4405 34.7917 97.5726 34.8267 97.7049 34.8616C98.4671 34.1281 99.2219 33.377 99.9432 32.6479L100.587 32.0034C101.707 30.9208 103.181 30.6864 103.486 30.6864C103.834 30.6864 104.079 30.8372 104.079 30.9528L104.433 30.952C104.433 30.5663 103.957 30.3324 103.486 30.3324C103.131 30.3324 101.557 30.5725 100.341 31.749Z" fill="#808080"/>
<path d="M104.079 30.9529C104.079 31.079 103.8 31.3962 103.413 31.8355L103.276 31.9903C102.921 32.3944 101.596 34.195 100.594 35.5719C100.719 35.6005 100.845 35.6287 100.971 35.6558C101.959 34.3011 103.211 32.6009 103.542 32.2241L103.679 32.0699C104.197 31.4814 104.433 31.2127 104.433 30.952L104.079 30.9529Z" fill="#808080"/>
<path d="M94.2218 30.321C93.2677 31.1993 92.4357 32.1274 91.725 33.0379C91.8438 33.0785 91.9629 33.1193 92.0825 33.1597C92.767 32.2917 93.5608 31.411 94.4613 30.5817C95.8181 29.3329 97.2358 28.3366 98.6102 27.5752L98.4505 27.261C97.0471 28.0364 95.6018 29.0506 94.2218 30.321Z" fill="#808080"/>
<path d="M102.068 35.8875C102.208 35.9162 102.349 35.9443 102.491 35.9719C107.266 31.3797 109.251 30.4552 110.995 30.4552C111.756 30.4552 112.29 30.7112 112.595 31.2184C112.796 31.5535 112.897 31.9976 112.897 32.5498C112.897 33.165 112.761 33.6343 112.671 33.945C112.622 34.1155 112.589 34.2281 112.589 34.3209C112.589 34.4914 112.662 34.6544 112.784 34.7567L113.012 34.4858C112.97 34.45 112.943 34.3872 112.943 34.3209C112.943 34.2784 112.978 34.1588 113.011 34.0435C113.107 33.7136 113.251 33.215 113.251 32.5498C113.251 32.0287 113.164 31.5849 112.995 31.2241C112.651 30.4914 111.97 30.1011 110.995 30.1011C109.14 30.1011 107.06 31.0628 102.068 35.8875Z" fill="#808080"/>
<path d="M117.116 31.2208C116.808 31.7372 114.881 34.2053 113.121 34.5131C113.078 34.5204 113.042 34.5114 113.012 34.486L112.784 34.7572C112.895 34.8503 113.036 34.8874 113.182 34.8617C115.242 34.5017 117.506 31.4996 117.506 31.1786L117.116 31.2208Z" fill="#808080"/>
<path d="M131.329 31.9359C131.034 32.2125 130.674 32.5495 130.543 32.6134C130.443 32.5449 130.261 32.1608 130.149 31.9238C130.022 31.6539 129.891 31.3751 129.754 31.1927C129.259 30.5323 128.604 30.3518 126.705 30.3518C126.235 30.3518 125.868 30.3721 125.514 30.3921L125.533 30.7459C125.883 30.7261 126.245 30.7058 126.705 30.7058C128.485 30.7058 129.054 30.8498 129.471 31.4052C129.586 31.5586 129.709 31.8212 129.828 32.0748C130.066 32.5793 130.254 32.9777 130.536 32.9777C130.72 32.9777 130.94 32.7863 131.571 32.1944C132.236 31.5708 133.24 30.6289 133.786 30.6289C134.154 30.6289 134.191 30.7256 134.191 30.9637C134.191 31.1242 134.082 31.3321 133.944 31.5954C133.697 32.0694 133.335 32.766 133.276 33.8584C133.397 33.8151 133.518 33.7707 133.639 33.7266C133.715 32.7999 134.024 32.2077 134.259 31.7595C134.418 31.4531 134.545 31.2111 134.545 30.9637C134.545 30.7678 134.502 30.6154 134.417 30.5042C134.295 30.3491 134.088 30.2747 133.786 30.2747C133.1 30.2747 132.118 31.1957 131.329 31.9359Z" fill="#808080"/>
<path d="M123 30.2325C123.227 30.7616 123.592 30.7825 124.472 30.7825L125.533 30.7457L125.514 30.3916L124.472 30.4284C123.537 30.4284 123.449 30.3819 123.326 30.0931L123 30.2325Z" fill="#808080"/>
<path d="M110.54 32.6197C109.916 32.6354 107.95 34.1589 106.467 35.7585C106.402 35.8286 106.339 35.8981 106.276 35.968C106.117 36.1452 105.954 36.3355 105.792 36.5344C105.93 36.5545 106.068 36.5726 106.205 36.5916C106.311 36.4643 106.422 36.3358 106.54 36.2042C106.663 36.067 106.788 35.9314 106.915 35.7983C108.422 34.2198 110.134 32.9843 110.549 32.974C110.759 32.9686 110.9 33.0268 110.907 33.122C110.909 33.1353 110.909 33.1485 110.909 33.1615C110.909 33.5805 110.352 33.9473 109.858 34.2718L109.486 34.5246L109.468 34.5376C108.85 34.9833 108.552 35.1985 108.552 35.605C108.552 35.6583 108.557 35.7144 108.567 35.7753C108.593 35.9293 108.692 36.0267 108.78 36.1122C108.86 36.1915 108.931 36.2624 108.964 36.381H109.325C109.283 36.1125 109.137 35.9663 109.028 35.8592C108.963 35.7964 108.923 35.7552 108.917 35.7168C108.869 35.4283 108.967 35.3357 109.675 34.8247L109.693 34.8117L110.053 34.5679C110.644 34.1787 111.315 33.738 111.261 33.0923C111.242 32.8717 111.05 32.6191 110.574 32.6191C110.563 32.6191 110.552 32.6194 110.54 32.6197Z" fill="#808080"/>
<path d="M108.964 36.3808C108.971 36.4065 108.977 36.4336 108.98 36.4642C108.981 36.4712 108.981 36.478 108.981 36.485C108.981 36.5684 108.937 36.7021 108.834 36.8859C108.961 36.8978 109.087 36.9089 109.214 36.9194C109.305 36.7265 109.346 36.5619 109.333 36.4293C109.331 36.412 109.328 36.3971 109.325 36.3808H108.964Z" fill="#808080"/>
<path d="M111.368 23.9969C111.234 24.3196 111.165 24.689 111.165 25.0993C111.165 26.645 111.928 29.4926 117.042 31.1972L117.107 31.2172C117.107 31.2172 117.114 31.2199 117.116 31.2205L117.506 31.1785C117.506 30.9666 117.312 30.9087 117.207 30.8775L117.154 30.8613C112.251 29.2268 111.519 26.5498 111.519 25.0993C111.519 24.7044 111.587 24.3775 111.703 24.1071C112.19 22.9752 113.514 22.8312 114.153 22.8312C119.548 22.8312 122.267 28.4454 122.972 30.166L123 30.2326L123.326 30.0932L123.3 30.0317C122.574 28.2595 119.768 22.4772 114.153 22.4772C112.749 22.4772 111.77 23.0285 111.368 23.9969Z" fill="#808080"/>
<path d="M109.167 21.9488C109.3 21.9659 109.405 21.9872 109.485 22.0073C108.789 23.2439 107.566 25.4148 107.506 25.515C107.506 25.515 107.497 25.5274 107.491 25.5369C107.477 25.5358 107.445 25.5336 107.445 25.5336L107.365 25.5217C106.343 25.3664 105.485 25.2882 104.815 25.2882C103.195 25.2882 100.886 25.9145 98.4503 27.261L98.61 27.5752C100.991 26.256 103.241 25.6422 104.815 25.6422C105.467 25.6422 106.307 25.7196 107.312 25.872L107.395 25.8844C107.491 25.8979 107.567 25.8931 107.631 25.8665C107.702 25.8376 107.758 25.7829 107.809 25.6977C107.89 25.5637 109.774 22.2143 109.855 22.072C109.895 22.0073 109.904 21.9255 109.878 21.8538C109.853 21.7837 109.795 21.7299 109.721 21.706C109.568 21.6552 109.379 21.6175 109.167 21.5926V21.9488Z" fill="#808080"/>
<path d="M92.8803 28.0216C99.513 23.1999 105.858 21.9134 108.562 21.9134C108.809 21.9134 109.001 21.9213 109.17 21.9492V21.593C108.975 21.564 108.777 21.5592 108.562 21.5592C105.815 21.5592 99.3782 22.8599 92.6719 27.735C90.8065 29.0912 89.2673 30.4172 88.0104 31.683C88.1295 31.729 88.2488 31.775 88.369 31.821C89.5921 30.6042 91.082 29.3291 92.8803 28.0216Z" fill="#808080"/>
</svg>
