<svg width="40" height="40" viewBox="0 0 40 40" fill="none" xmlns="http://www.w3.org/2000/svg">
<path d="M36 20C36 27.5424 36 31.3138 33.6568 33.6568C31.3138 36 27.5424 36 20 36C12.4575 36 8.68629 36 6.34315 33.6568C4 31.3138 4 27.5424 4 20C4 12.4575 4 8.68629 6.34315 6.34315C8.68629 4 12.4575 4 20 4" stroke="#FF3A44" stroke-width="2.2" stroke-linecap="round"/>
<path d="M4 20.8001L6.80254 18.348C8.26058 17.0723 10.458 17.1454 11.828 18.5153L18.6915 25.3788C19.791 26.4785 21.5219 26.6284 22.7942 25.7342L23.2714 25.399C25.1021 24.1123 27.579 24.2614 29.2424 25.7584L34.4 30.4001" stroke="#FF3A44" stroke-width="2.2" stroke-linecap="round"/>
<path d="M24.7988 9.6H30.3988M30.3988 9.6H35.9988M30.3988 9.6V15.2M30.3988 9.6V4" stroke="#FF3A44" stroke-width="2.2" stroke-linecap="round"/>
</svg>
