<svg width="227" height="80" viewBox="0 0 227 80" fill="none" xmlns="http://www.w3.org/2000/svg">
<g clip-path="url(#clip0_41_1955)">
<path d="M165.05 15.2957L61.6442 15.2861V64.731L165.071 64.7221L165.05 15.2957Z" fill="#808080"/>
<path d="M165.05 15.2957L61.6442 15.2861V64.731L165.071 64.7221L165.05 15.2957ZM93.8588 24.8406L84.5185 24.8565L84.5446 55.1342L93.8588 55.1423V59.8861L65.9697 59.8865L65.9698 55.1424L75.2135 55.1342V24.8494L65.9698 24.8406V20.1562H93.8588V24.8406ZM126.236 55.1342L126.232 59.9032L96.8085 59.9035L96.8082 55.1342H106.857L106.849 24.8184L100.588 24.8409V38.6574H95.5902L95.5724 20.1139H127.27L127.27 38.6665H122.274L122.268 24.8184H116.196L116.188 55.1342H126.236ZM159.664 55.1342L159.66 59.9032L130.236 59.9035L130.236 55.1342H140.284L140.277 24.8184L134.015 24.8409V38.6574H129.018L129 20.1139H160.697L160.697 38.6665H155.702L155.696 24.8183H149.624L149.615 55.1341H159.664V55.1342Z" fill="white"/>
</g>
<defs>
<clipPath id="clip0_41_1955">
<rect width="95" height="40" fill="white" transform="translate(65.8334 20)"/>
</clipPath>
</defs>
</svg>
