<svg width="227" height="80" viewBox="0 0 227 80" fill="none" xmlns="http://www.w3.org/2000/svg">
<path fill-rule="evenodd" clip-rule="evenodd" d="M22.5781 57.2593L31.1124 42.4458H25.3535L28.2329 37.4848H41.7629L38.8834 42.4805H33.9918L25.3535 57.5022C34.9632 57.5022 42.873 49.6271 42.873 39.9827C42.873 30.4076 34.9979 22.5325 25.3535 22.5325C24.6597 22.5325 23.9311 22.5672 23.3067 22.6713L14.703 37.5542H25.3535L22.4394 42.4458H8.90944L19.9415 23.3651C12.9337 25.6201 7.86868 32.2463 7.86868 39.948C7.86868 48.6557 14.252 55.9063 22.5781 57.2593ZM25.3535 20C36.3509 20 45.3362 28.9853 45.3362 39.9827C45.3362 51.0147 36.3162 60 25.3535 60C14.3214 60 5.37085 51.0147 5.37085 39.9827C5.37085 28.9506 14.3214 20 25.3535 20Z" fill="#808080"/>
<path d="M210.609 39.9479C211.13 37.5888 212.795 35.1951 215.536 35.1951C218.311 35.1951 218.901 37.5888 218.415 39.9479C217.895 42.3417 216.299 44.7701 213.489 44.7701C210.609 44.7701 210.089 42.3417 210.609 39.9479ZM207.73 39.9479C206.828 44.0069 208.563 46.8863 213.003 46.8863C217.374 46.8863 220.427 43.9722 221.295 39.9479C222.162 35.9236 220.323 33.0789 215.987 33.0789C211.581 33.0789 208.597 35.8542 207.73 39.9479ZM195.761 46.6435H198.537L199.751 41.1274H200.653C201.832 41.1274 202.11 41.509 202.283 42.5151L203.046 46.6782H206.134L205.024 41.4744C204.885 40.8846 204.608 40.1561 203.844 40.1214V40.0867C205.648 39.8438 207.036 38.5602 207.383 36.9991C208.181 33.287 204.608 33.3911 201.624 33.3911H198.606L195.761 46.6435ZM200.965 35.4032H201.867C203.255 35.4032 204.781 35.542 204.434 37.1378C204.053 38.8031 202.457 38.9765 201.104 38.9765H200.202L200.965 35.4032ZM184.243 46.6435H189.1C190.835 46.6435 194.096 46.1578 194.824 42.7926C195.171 41.1621 194.131 39.9132 192.292 39.7744V39.7397C193.992 39.4622 195.345 38.3521 195.692 36.7562C196.316 33.8421 193.749 33.3564 191.98 33.3564H187.123L184.243 46.6435ZM189.482 35.4032H190.557C191.841 35.4032 193.194 35.5073 192.882 37.0684C192.569 38.4214 191.078 38.699 189.898 38.699H188.753L189.482 35.4032ZM188.337 40.6764H189.655C191.043 40.6764 192.465 40.954 192.084 42.6886C191.737 44.215 190.106 44.5273 188.823 44.5273H187.504L188.337 40.6764ZM171.858 41.8213C171.095 45.3946 172.864 46.8516 176.438 46.8516C179.976 46.8516 182.405 45.3946 183.203 41.8213L185.041 33.287H182.266L180.601 40.9887C180.115 43.2437 179.04 44.7701 176.889 44.7701C174.738 44.7701 174.321 43.2783 174.842 40.9887L176.507 33.287H173.732L171.858 41.8213ZM160.132 39.9479C160.653 37.5888 162.283 35.1951 165.024 35.1951C167.799 35.1951 168.424 37.5888 167.903 39.9479C167.383 42.3417 165.822 44.7701 162.977 44.7701C160.132 44.7701 159.577 42.3417 160.132 39.9479ZM157.218 39.9479C156.316 44.0069 158.051 46.8863 162.491 46.8863C166.863 46.8863 169.916 43.9722 170.783 39.9479C171.65 35.9236 169.811 33.0789 165.475 33.0789C161.104 33.0789 158.12 35.8542 157.218 39.9479ZM149.898 46.6435H152.674L155.102 35.4379H159.092L159.543 33.3217H148.823L148.372 35.4379H152.361L149.898 46.6435ZM136.542 39.6357C138.242 38.8031 139.595 37.9358 139.976 36.0971C140.462 33.9462 138.589 33.0789 136.646 33.0789C134.703 33.0789 132.205 34.0849 131.754 36.0971C131.442 37.6235 132.136 38.3174 133.003 39.2888C130.609 40.1907 129.638 41.3356 129.291 42.9661C128.771 45.4639 130.644 46.8516 133.385 46.8516C134.772 46.8516 136.299 46.4006 137.478 45.4292L138.172 46.6088H141.572L139.664 43.9375C141.052 42.6539 141.988 41.058 142.405 39.3928H139.976C139.699 40.4336 139.282 41.5437 138.45 42.2723L136.542 39.6357ZM135.293 38.2827C134.877 37.7623 134.252 37.1378 134.391 36.4093C134.599 35.4379 135.501 34.9869 136.299 34.9869C137.097 34.9869 137.721 35.4379 137.513 36.3399C137.34 37.1032 136.056 37.9011 135.293 38.2827ZM136.472 44.0763C135.744 44.666 134.807 44.8742 133.87 44.8742C132.587 44.8742 131.685 44.0763 131.962 42.8967C132.205 41.856 133.107 41.2315 134.113 40.7458L136.472 44.0763ZM109.343 46.6435H111.98L114.165 36.6868H114.2L117.357 46.6435H120.757L123.636 33.3217H120.965L118.814 43.2783H118.779L115.657 33.3217H112.257L109.343 46.6435ZM99.0396 46.6435H107.262L107.713 44.5619H102.266L103.099 40.8152H108.025L108.476 38.699H103.515L104.243 35.4032H109.655L110.106 33.287H101.919L99.0396 46.6435ZM99.5252 33.5646C98.5886 33.2523 97.4784 33.0789 96.2989 33.0789C93.8704 33.0789 91.1991 34.1543 90.5747 37.1378C89.6033 41.5437 95.9173 40.503 95.3622 43.0355C95.0847 44.2497 93.5582 44.7701 92.5174 44.7701C91.4073 44.7701 90.4012 44.4579 89.5686 43.9375L88.8054 46.3312C90.089 46.6435 90.7481 46.8516 92.2399 46.8516C95.0153 46.8516 97.6866 45.7415 98.311 42.8273C99.2824 38.3868 92.9684 39.3581 93.4888 37.0338C93.801 35.5767 95.1194 35.1951 96.056 35.1951C97.0274 35.1951 97.9641 35.4032 98.762 35.7502L99.5252 33.5646ZM77.808 46.6435H80.5834L81.7976 41.1274H82.6996C83.8791 41.1274 84.1566 41.509 84.3301 42.5151L85.0933 46.6782H88.1809L87.1055 41.4744C86.9667 40.8846 86.6545 40.1561 85.9259 40.1214V40.0867C87.7299 39.8438 89.1176 38.5602 89.4645 36.9991C90.2625 33.287 86.6892 33.3911 83.7056 33.3911H80.6874L77.808 46.6435ZM83.0118 35.4032H83.9138C85.3015 35.4032 86.8279 35.542 86.481 37.1378C86.0994 38.8031 84.5036 38.9765 83.1506 38.9765H82.2486L83.0118 35.4032ZM63.6536 46.6435H66.533L68.4064 43.5906H74.0265L74.5469 46.6435H77.6345L75.0673 33.3217H71.945L63.6536 46.6435ZM73.7143 41.4744H69.6553L72.847 35.993H72.8817L73.7143 41.4744ZM55.3622 46.6435H63.5148L63.9658 44.5619H58.5886L61.017 33.3217H58.2416L55.3622 46.6435Z" fill="#808080"/>
<path fill-rule="evenodd" clip-rule="evenodd" d="M22.37 57.2593L30.9043 42.4805H25.1454L28.0248 37.5195H41.5547L38.6753 42.5152H33.7837L25.1454 57.5369C34.7551 57.5369 42.6649 49.6617 42.6649 40.0173C42.6649 30.4423 34.7898 22.5672 25.1454 22.5672C24.4515 22.5672 23.723 22.6019 23.0985 22.706L14.4949 37.5889H25.1454L22.2659 42.5499H8.73601L19.7681 23.4692C12.7603 25.7242 7.66055 32.3504 7.66055 40.0867C7.66055 48.6557 14.0439 55.9063 22.37 57.2593ZM25.1454 20C36.1428 20 45.128 28.9853 45.128 39.9827C45.128 51.0147 36.1081 60 25.1454 60C14.1133 60 5.16272 51.0147 5.16272 39.9827C5.16272 28.9506 14.148 20 25.1454 20Z" fill="#808080"/>
<path d="M210.401 39.9479C210.921 37.5888 212.587 35.1951 215.327 35.1951C218.103 35.1951 218.693 37.5888 218.207 39.9479C217.686 42.3417 216.091 44.7701 213.281 44.7701C210.436 44.7701 209.881 42.3417 210.401 39.9479ZM207.522 39.9479C206.62 44.0069 208.354 46.8863 212.795 46.8863C217.166 46.8863 220.219 43.9722 221.086 39.9479C221.954 35.9236 220.115 33.0789 215.778 33.0789C211.372 33.0789 208.389 35.8542 207.522 39.9479ZM195.553 46.6435H198.328L199.542 41.1274H200.444C201.624 41.1274 201.902 41.509 202.075 42.5151L202.838 46.6782H205.926L204.816 41.4744C204.677 40.8846 204.399 40.1561 203.636 40.1214V40.0867C205.44 39.8438 206.828 38.5602 207.175 36.9991C207.973 33.287 204.399 33.3911 201.416 33.3911H198.398L195.553 46.6435ZM200.757 35.4032H201.659C203.046 35.4032 204.573 35.542 204.226 37.1378C203.844 38.8031 202.248 38.9765 200.895 38.9765H199.993L200.757 35.4032ZM184.035 46.6435H188.892C190.627 46.6435 193.888 46.1578 194.616 42.7926C194.963 41.1621 193.922 39.9132 192.084 39.7744V39.7397C193.784 39.4622 195.137 38.3521 195.484 36.7562C196.108 33.8421 193.541 33.3564 191.771 33.3564H186.915L184.035 46.6435ZM189.274 35.4032H190.349C191.633 35.4032 192.986 35.5073 192.673 37.0684C192.361 38.4214 190.869 38.699 189.69 38.699H188.545L189.274 35.4032ZM188.129 40.6764H189.447C190.835 40.6764 192.257 40.954 191.876 42.6886C191.529 44.215 189.898 44.5273 188.614 44.5273H187.296L188.129 40.6764ZM171.65 41.8213C170.887 45.3946 172.656 46.8516 176.229 46.8516C179.803 46.8516 182.196 45.3946 182.994 41.8213L184.833 33.287H182.058L180.392 40.9887C179.907 43.2437 178.831 44.7701 176.68 44.7701C174.564 44.7701 174.113 43.2783 174.634 40.9887L176.299 33.287H173.523L171.65 41.8213ZM159.924 39.9479C160.444 37.5888 162.075 35.1951 164.816 35.1951C167.591 35.1951 168.216 37.5888 167.695 39.9479C167.175 42.3417 165.614 44.7701 162.769 44.7701C159.924 44.7701 159.404 42.3417 159.924 39.9479ZM157.01 39.9479C156.108 44.0069 157.843 46.8863 162.283 46.8863C166.654 46.8863 169.707 43.9722 170.575 39.9479C171.442 35.9236 169.603 33.0789 165.267 33.0789C160.895 33.0789 157.912 35.8542 157.01 39.9479ZM149.69 46.6435H152.465L154.894 35.4379H158.883L159.334 33.3217H148.614L148.163 35.4379H152.153L149.69 46.6435ZM136.333 39.6357C138.033 38.8031 139.386 37.9358 139.768 36.0971C140.254 33.9462 138.38 33.0789 136.438 33.0789C134.495 33.0789 131.997 34.0849 131.546 36.0971C131.234 37.6235 131.928 38.3174 132.795 39.2888C130.401 40.1907 129.43 41.3356 129.083 42.9661C128.562 45.4639 130.436 46.8516 133.176 46.8516C134.564 46.8516 136.091 46.4006 137.27 45.4292L137.964 46.6088H141.364L139.456 43.9375C140.843 42.6539 141.78 41.058 142.196 39.3928H139.768C139.49 40.4336 139.074 41.5437 138.242 42.2723L136.333 39.6357ZM135.085 38.2827C134.668 37.7623 134.044 37.1378 134.183 36.4093C134.391 35.4379 135.293 34.9869 136.091 34.9869C136.889 34.9869 137.513 35.4379 137.305 36.3399C137.131 37.1032 135.848 37.9011 135.085 38.2827ZM136.264 44.0763C135.536 44.666 134.599 44.8742 133.662 44.8742C132.379 44.8742 131.477 44.0763 131.754 42.8967C131.997 41.856 132.899 41.2315 133.905 40.7458L136.264 44.0763ZM109.17 46.6435H111.806L113.992 36.6868H114.026L117.183 46.6435H120.583L123.463 33.3217H120.791L118.64 43.2783H118.606L115.484 33.3217H112.084L109.17 46.6435ZM98.8313 46.6435H107.053L107.504 44.5619H102.058L102.89 40.8152H107.817L108.268 38.699H103.307L104.035 35.4032H109.447L109.898 33.287H101.711L98.8313 46.6435ZM99.3517 33.5646C98.415 33.2523 97.3048 33.0789 96.1253 33.0789C93.6969 33.0789 91.0256 34.1543 90.4011 37.1378C89.4297 41.5437 95.7437 40.503 95.1886 43.0355C94.9111 44.2497 93.3846 44.7701 92.3439 44.7701C91.2337 44.7701 90.2276 44.4579 89.395 43.9375L88.6318 46.3312C89.9154 46.6435 90.5746 46.8516 92.0663 46.8516C94.8417 46.8516 97.513 45.7415 98.1375 42.8273C99.1088 38.3868 92.7949 39.3581 93.3152 37.0338C93.6275 35.5767 94.9458 35.1951 95.8825 35.1951C96.8538 35.1951 97.7905 35.4032 98.5885 35.7502L99.3517 33.5646ZM77.5997 46.6435H80.3751L81.5893 41.1274H82.4913C83.6708 41.1274 83.9484 41.509 84.1218 42.5151L84.8851 46.6782H87.9727L86.8972 41.4744C86.7584 40.8846 86.4462 40.1561 85.7177 40.1214V40.0867C87.5217 39.8438 88.9094 38.5602 89.2563 36.9991C90.0542 33.287 86.4809 33.3911 83.4974 33.3911H80.4792L77.5997 46.6435ZM82.8382 35.4032H83.7402C85.1279 35.4032 86.6544 35.542 86.3074 37.1378C85.9258 38.8031 84.33 38.9765 82.977 38.9765H82.075L82.8382 35.4032ZM63.48 46.6435H66.3595L68.2329 43.5906H73.853L74.3734 46.6435H77.461L74.8937 33.3217H71.7714L63.48 46.6435ZM73.5407 41.4744H69.4818L72.6734 35.993H72.7081L73.5407 41.4744ZM55.1539 46.6435H63.3066L63.7576 44.5619H58.3803L60.8087 33.3217H58.0334L55.1539 46.6435Z" fill="#808080"/>
</svg>
