<svg width="20" height="20" viewBox="0 0 20 20" fill="none" xmlns="http://www.w3.org/2000/svg">
<path d="M1 9.9998C1 6.60569 1 4.90864 2.05441 3.85422C3.10883 2.7998 4.80588 2.7998 8.2 2.7998H11.8C15.1941 2.7998 16.8912 2.7998 17.9456 3.85422C19 4.90864 19 6.60569 19 9.9998C19 13.3939 19 15.091 17.9456 16.1454C16.8912 17.1998 15.1941 17.1998 11.8 17.1998H8.2C4.80588 17.1998 3.10883 17.1998 2.05441 16.1454C1 15.091 1 13.3939 1 9.9998Z" stroke="black" stroke-width="1.3"/>
<path d="M10.0008 8.2002V11.8002M8.44168 9.1002L11.5594 10.9002M11.5591 9.1002L8.44141 10.9002" stroke="black" stroke-width="1.3" stroke-linecap="round"/>
<path d="M5.2586 8.2002V11.8002M3.69943 9.1002L6.81712 10.9002M6.81691 9.1002L3.69922 10.9002" stroke="black" stroke-width="1.3" stroke-linecap="round"/>
<path d="M14.741 8.2002V11.8002M13.1818 9.1002L16.2995 10.9002M16.2993 9.1002L13.1816 10.9002" stroke="black" stroke-width="1.3" stroke-linecap="round"/>
</svg>
