<svg width="240" height="240" viewBox="0 0 240 240" fill="none" xmlns="http://www.w3.org/2000/svg">
<path d="M225.601 103.35L208.951 86.7004C208.148 85.9203 207.509 84.9877 207.071 83.9575C206.633 82.9272 206.405 81.8198 206.401 80.7004V57.0004C206.393 50.7966 203.926 44.8491 199.539 40.4624C195.152 36.0757 189.205 33.6079 183.001 33.6004H159.301C158.181 33.5955 157.074 33.3675 156.044 32.9297C155.014 32.4918 154.081 31.8529 153.301 31.0504L136.651 14.4004C132.224 10.0054 126.239 7.53906 120.001 7.53906C113.763 7.53906 107.778 10.0054 103.351 14.4004L86.7009 31.0504C85.9205 31.8529 84.9879 32.4918 83.9577 32.9297C82.9275 33.3675 81.8203 33.5955 80.7009 33.6004H57.0009C50.7971 33.6079 44.8496 36.0757 40.4629 40.4624C36.0762 44.8491 33.6084 50.7966 33.6009 57.0004V80.7004C33.5965 81.8198 33.3686 82.9272 32.9308 83.9575C32.4929 84.9877 31.8538 85.9203 31.0509 86.7004L14.4009 103.35C10.0045 107.777 7.53711 113.762 7.53711 120C7.53711 126.239 10.0045 132.224 14.4009 136.65L31.0509 153.3C31.8538 154.08 32.4929 155.013 32.9308 156.043C33.3686 157.074 33.5965 158.181 33.6009 159.3V183C33.6084 189.204 36.0762 195.152 40.4629 199.538C44.8496 203.925 50.7971 206.393 57.0009 206.4H80.7009C81.8203 206.405 82.9275 206.633 83.9577 207.071C84.9879 207.509 85.9205 208.148 86.7009 208.95L103.351 225.6C105.537 227.788 108.132 229.523 110.989 230.707C113.846 231.891 116.908 232.501 120.001 232.501C123.093 232.501 126.156 231.891 129.012 230.707C131.869 229.523 134.465 227.788 136.651 225.6L153.301 208.95C154.081 208.148 155.014 207.509 156.044 207.071C157.074 206.633 158.181 206.405 159.301 206.4H183.001C189.205 206.393 195.152 203.925 199.539 199.538C203.926 195.152 206.393 189.204 206.401 183V159.3C206.405 158.181 206.633 157.074 207.071 156.043C207.509 155.013 208.148 154.08 208.951 153.3L225.601 136.65C229.997 132.224 232.465 126.239 232.465 120C232.465 113.762 229.997 107.777 225.601 103.35ZM155.251 105.3L115.351 145.35C113.907 146.702 112.003 147.454 110.026 147.454C108.048 147.454 106.145 146.702 104.701 145.35L84.7509 125.25C83.3817 123.853 82.6191 121.972 82.629 120.016C82.6389 118.06 83.4204 116.186 84.8036 114.803C86.1869 113.42 88.0602 112.638 90.0164 112.629C91.9726 112.619 93.8537 113.381 95.2509 114.75L109.951 129.45L144.751 94.6504C146.155 93.2801 148.039 92.513 150.001 92.513C151.963 92.513 153.847 93.2801 155.251 94.6504C155.963 95.3423 156.529 96.1701 156.916 97.0847C157.303 97.9994 157.502 98.9823 157.502 99.9754C157.502 100.968 157.303 101.951 156.916 102.866C156.529 103.781 155.963 104.608 155.251 105.3Z" fill="#3EC300"/>
</svg>
