<svg width="82" height="74" viewBox="0 0 82 74" fill="none" xmlns="http://www.w3.org/2000/svg">
<path d="M64.8665 1C59.2725 1 55.8267 1.01192 53.7165 1.04586C52.6606 1.06284 51.9446 1.08555 51.4641 1.11419C50.962 1.14414 50.7687 1.17917 50.7125 1.19871C50.4039 1.30726 50.0181 1.5567 49.647 1.89463C49.2786 2.23026 48.9596 2.62186 48.7686 2.98077L48.4746 3.53463L48.4269 17.0898C48.4032 24.6143 48.3872 28.2664 48.4988 30.1927C48.5549 31.1587 48.6413 31.6422 48.7524 31.9469C48.8306 32.1609 48.9221 32.2953 49.0707 32.481L49.2406 32.6896L49.2452 32.695C49.4213 32.9176 49.8459 33.2581 50.2252 33.4745L50.3834 33.559L50.3897 33.5618L51.1145 33.9286H64.5356V35.5569C64.5356 38.0087 63.9853 41.3699 63.1753 44.0293L63.0098 44.5517C61.988 47.6436 60.5813 50.1839 58.5807 52.3777C56.5827 54.5685 54.0086 56.3952 50.6766 58.0844C50.0428 58.4088 49.4186 58.7531 48.9205 59.0509C48.6714 59.2 48.4576 59.3356 48.2911 59.4502C48.2035 59.5106 48.1353 59.56 48.0853 59.5994L47.9855 59.6867L47.9809 59.692C47.3983 60.2942 47.1227 61.0284 47.1502 62.0343L47.16 62.2384C47.209 62.9277 47.3458 63.3871 48.5016 65.8582L49.0626 67.0487C50.0411 69.1163 50.6034 70.249 51.0587 70.9284C51.2811 71.2603 51.4665 71.4656 51.6476 71.6126C51.7824 71.7221 51.926 71.8084 52.1016 71.8913L52.2886 71.9741L52.2931 71.9758C52.5929 72.1039 52.9978 72.196 53.4206 72.233C53.7382 72.2608 54.0459 72.2554 54.3072 72.2205L54.5518 72.1764L54.5536 72.1755L54.7756 72.1071C55.0445 72.0129 55.4503 71.8411 55.9625 71.6028C56.6302 71.2919 57.4415 70.8858 58.2876 70.441C59.7718 69.6608 61.3465 68.7713 62.4344 68.0773L62.8687 67.7923C65.3268 66.1396 66.8401 64.9552 68.7651 63.0818L69.6193 62.233L69.6202 62.2321L70.3242 61.5092C73.7732 57.8887 76.185 54.144 77.8373 49.5301C79.4929 44.9069 80.3931 39.392 80.7917 32.223L80.8646 30.7673V30.7655L80.9032 29.7341C80.9739 27.3154 81.0076 22.8421 80.9986 17.7668L80.9905 15.1855C80.9667 9.71724 80.9511 6.77119 80.9077 5.12518C80.8689 3.6497 80.8051 3.2861 80.7379 3.11654L80.7081 3.0536V3.0518C80.372 2.38599 79.6968 1.68481 78.9854 1.29581L78.9846 1.29671L78.4379 1L64.8665 1Z" stroke="white" stroke-opacity="0.4" stroke-width="2"/>
<path d="M18.5796 1C11.7474 1 8.31325 1.00041 6.49633 1.04226C5.58403 1.06328 5.10174 1.09391 4.80868 1.13667C4.61001 1.16567 4.50654 1.19811 4.40317 1.24276L4.29708 1.29221H4.29528C3.6337 1.60198 3.1199 2.06197 2.71193 2.70924L2.54289 2.99875C2.47599 3.12754 2.43665 3.20262 2.39993 3.43932C2.35753 3.71293 2.32479 4.17598 2.30103 5.07303C2.27738 5.96584 2.26252 7.26459 2.25067 9.19281L2.21831 17.0898C2.19454 24.6144 2.17947 28.2664 2.29114 30.1927C2.34715 31.1587 2.43352 31.6422 2.54469 31.9469C2.62283 32.1609 2.71433 32.2952 2.86298 32.481L3.03202 32.6896L3.03741 32.695C3.21356 32.9176 3.63749 33.2582 4.01655 33.4745L4.1757 33.559L4.1811 33.5618L4.90579 33.9286H11.4109C14.6235 33.9286 16.2926 33.9287 17.1546 33.9672C17.5652 33.9857 17.8614 34.0137 18.0564 34.085C18.1679 34.1259 18.3094 34.2028 18.4016 34.3574C18.4875 34.5021 18.4862 34.6467 18.4862 34.6928C18.4862 35.7779 18.1671 38.6459 17.873 40.4301L17.7498 41.1198C17.3143 43.3078 16.8511 44.8224 16.0423 46.6584L15.6737 47.4676L15.6728 47.4685C13.5045 52.0766 10.2348 55.2128 4.83116 57.9387L4.30158 58.2013L4.30068 58.2022C2.84148 58.908 2.03922 59.4122 1.58533 59.9492C1.21382 60.3888 1.05005 60.883 1.00989 61.653L1 62.0001C1.00002 62.2766 1.00309 62.4563 1.02877 62.6394C1.05384 62.8179 1.1027 63.0143 1.2104 63.3048C1.32158 63.6045 1.48809 63.9875 1.73908 64.5321L2.77487 66.7268C3.27154 67.7633 3.7757 68.775 4.18649 69.5662C4.39202 69.9621 4.57264 70.3011 4.71698 70.5589C4.86734 70.8274 4.9623 70.9764 4.9993 71.0237C5.89712 72.1196 7.39197 72.4677 9.1065 71.8311L9.45266 71.69C19.6805 67.1712 27.5244 59.5973 31.224 50.7665L31.5692 49.9078V49.9069L31.7581 49.4016C32.6302 46.9698 33.4123 43.5263 33.9088 39.9105L34.0104 39.1327L34.2316 37.3039C34.6862 33.2496 34.7351 30.1706 34.7351 17.4243C34.7351 10.7076 34.7314 7.20503 34.6919 5.3086C34.6568 3.61907 34.5899 3.26752 34.5149 3.08686L34.4824 3.01673L34.4806 3.01314C34.1888 2.41062 33.6871 1.86087 33.0565 1.46035L32.7786 1.29761L32.7759 1.29671L32.2301 1L18.5796 1Z" stroke="white" stroke-opacity="0.4" stroke-width="2"/>
</svg>
