<svg width="20" height="20" viewBox="0 0 20 20" fill="none" xmlns="http://www.w3.org/2000/svg">
<path d="M2 9.79844C2 6.78145 2 5.27296 2.93726 4.33569C3.87452 3.39844 5.38301 3.39844 8.4 3.39844H11.6C14.617 3.39844 16.1255 3.39844 17.0627 4.33569C18 5.27296 18 6.78145 18 9.79844V11.3984C18 14.4154 18 15.924 17.0627 16.8612C16.1255 17.7984 14.617 17.7984 11.6 17.7984H8.4C5.38301 17.7984 3.87452 17.7984 2.93726 16.8612C2 15.924 2 14.4154 2 11.3984V9.79844Z" stroke="#FF3A44" stroke-width="1.5"/>
<path d="M6 3.39922V2.19922" stroke="#FF3A44" stroke-width="1.5" stroke-linecap="round"/>
<path d="M14 3.39922V2.19922" stroke="#FF3A44" stroke-width="1.5" stroke-linecap="round"/>
<path d="M2.40039 7.39844H17.6004" stroke="#FF3A44" stroke-width="1.5" stroke-linecap="round"/>
<path d="M14.8002 13.8C14.8002 14.2418 14.442 14.6 14.0002 14.6C13.5584 14.6 13.2002 14.2418 13.2002 13.8C13.2002 13.3582 13.5584 13 14.0002 13C14.442 13 14.8002 13.3582 14.8002 13.8Z" fill="#FF3A44"/>
<path d="M14.8002 10.5988C14.8002 11.0407 14.442 11.3988 14.0002 11.3988C13.5584 11.3988 13.2002 11.0407 13.2002 10.5988C13.2002 10.157 13.5584 9.79883 14.0002 9.79883C14.442 9.79883 14.8002 10.157 14.8002 10.5988Z" fill="#FF3A44"/>
<path d="M10.8002 13.8C10.8002 14.2418 10.442 14.6 10.0002 14.6C9.55836 14.6 9.2002 14.2418 9.2002 13.8C9.2002 13.3582 9.55836 13 10.0002 13C10.442 13 10.8002 13.3582 10.8002 13.8Z" fill="#FF3A44"/>
<path d="M10.8002 10.5988C10.8002 11.0407 10.442 11.3988 10.0002 11.3988C9.55836 11.3988 9.2002 11.0407 9.2002 10.5988C9.2002 10.157 9.55836 9.79883 10.0002 9.79883C10.442 9.79883 10.8002 10.157 10.8002 10.5988Z" fill="#FF3A44"/>
<path d="M6.8002 13.8C6.8002 14.2418 6.44202 14.6 6.0002 14.6C5.55837 14.6 5.2002 14.2418 5.2002 13.8C5.2002 13.3582 5.55837 13 6.0002 13C6.44202 13 6.8002 13.3582 6.8002 13.8Z" fill="#FF3A44"/>
<path d="M6.8002 10.5988C6.8002 11.0407 6.44202 11.3988 6.0002 11.3988C5.55837 11.3988 5.2002 11.0407 5.2002 10.5988C5.2002 10.157 5.55837 9.79883 6.0002 9.79883C6.44202 9.79883 6.8002 10.157 6.8002 10.5988Z" fill="#FF3A44"/>
</svg>
