<svg width="227" height="80" viewBox="0 0 227 80" fill="none" xmlns="http://www.w3.org/2000/svg">
<path fill-rule="evenodd" clip-rule="evenodd" d="M126.409 26.5068L125.485 27.3221C125.374 27.49 124.235 28.4652 123.956 28.689C123.462 29.1847 122.92 29.5604 122.426 30.056C121.933 30.5516 121.391 30.9273 120.897 31.4229C120.515 31.8066 119.861 32.462 119.423 32.7898C118.985 33.1175 118.276 33.773 117.902 34.1567C117.575 34.4844 116.755 35.2998 116.428 35.5236C116.101 35.7394 115.233 36.5627 114.899 36.8905C114.245 37.6019 114.03 37.6019 113.098 37.9297C110.374 38.9688 107.649 40.1119 104.925 41.263C103.563 41.7506 102.201 42.462 100.839 42.9017C99.5879 43.3413 97.8433 43.9408 97.8433 45.6355V46.1231C97.8433 46.235 98.9904 49.1287 99.1498 49.4564C99.5879 50.5516 99.9703 51.6946 100.568 52.6219C100.783 52.7338 100.894 52.8937 101.109 53.0616C101.324 53.1735 101.603 53.2294 101.818 53.3333L102.312 53.3893H102.527C102.854 53.3893 104.16 52.9017 104.431 52.7338C104.702 52.6219 106.009 52.0783 106.232 52.0224L106.614 52.51L106.996 52.8937L106.885 53.1655C106.829 53.709 105.793 55.6755 105.793 56.1151C105.793 56.227 106.447 56.5548 106.558 56.7146L108.191 57.7538C108.247 57.5859 110.645 55.3477 110.7 55.3477C110.812 55.3477 112.501 56.1151 112.931 56.1631L112.987 56.6587L113.313 59.7202H113.481L114.078 59.8321L116.205 60L117.296 56.7786V56.8345L120.132 56.4508C120.3 56.4508 120.459 56.7226 120.515 56.8345L121.112 57.7618L122.148 59.2886H122.315L124.872 58.1934L124.33 54.8601C124.33 54.7482 125.366 54.0927 125.525 53.9888C125.637 53.8769 126.72 53.0616 126.72 53.0616C126.887 53.0616 129.333 54.3725 129.715 54.5324L131.516 52.3501L131.46 52.2382L129.827 50.056L129.5 49.6163C129.715 49.2326 129.883 48.8489 130.098 48.4732C130.209 48.2574 130.536 47.3301 130.695 47.3301H133.913L134.455 44.4924L132.169 43.3973L131.571 43.1815V41.7106L133.428 40.9992L133.595 40.9432C133.921 40.9432 134.901 40.2878 135.124 40.0719C135.562 39.6882 135.833 39.2006 135.833 38.3773C135.833 37.6099 135.013 35.7554 134.686 35.0999C134.304 34.2766 133.866 32.5899 133.435 31.9904C133.165 31.4948 132.4 30.7914 131.691 30.7914H131.197C130.432 30.7914 127.381 32.2142 126.569 32.542C125.916 32.7578 122.267 34.3405 121.988 34.3405L120.738 34.8361L118.993 35.6035C119.049 35.3877 123.191 31.7826 123.733 31.239C124.059 30.9113 124.601 30.4716 124.928 30.1439C125.31 29.8161 125.748 29.3765 126.123 29.1047C127.103 28.3933 127.429 27.6819 128.903 27.3541V27.1942L128.52 26.211L128.353 25.7714V25.7154L126.409 26.5068ZM134.256 38.9049C133.929 39.3925 133.109 39.5044 132.567 39.7762L131.093 40.3757L130.6 40.5356L128.743 41.303L128.528 41.4149L127.166 41.9584L126.401 42.2302L120.132 44.7962L118.882 45.2838L117.902 45.7234L115.504 46.7066L113.815 47.3621L113.321 47.522L112.557 47.8497L110.326 48.777L108.637 49.4325L102.918 51.7826C102.703 51.8385 102.806 51.8945 102.647 51.8945H102.264C101.994 51.8945 101.938 51.8385 101.771 51.7346C101.388 51.4628 100.735 49.4964 100.464 48.8969C100.353 48.5691 99.3171 46.0592 99.3171 45.9472V45.5635C99.3171 44.8521 100.464 44.6363 101.006 44.3645C101.603 44.1487 102.424 43.765 103.021 43.5492C103.674 43.3333 104.383 43.0056 105.037 42.7338C105.801 42.462 106.343 42.1902 107.052 41.9185C107.705 41.7026 108.526 41.263 109.123 41.1511C109.291 41.0951 109.888 40.8233 110.103 40.7114C110.485 40.5516 110.7 40.4396 111.139 40.3277C111.577 40.1599 112.612 39.7282 113.154 39.5124C113.481 39.3445 113.807 39.1847 114.134 39.0727C114.405 38.9608 114.843 38.801 115.169 38.689C116.476 38.0336 117.894 37.5939 119.2 36.9944C119.798 36.7226 120.618 36.3949 121.216 36.1791C121.598 36.0112 121.869 35.9632 122.251 35.7954C122.466 35.6835 123.072 35.5236 123.287 35.4117C123.884 35.028 124.649 34.8681 125.302 34.5963C125.955 34.2686 126.664 34.0528 127.318 33.781C127.811 33.5092 130.966 32.1982 131.404 32.1982H131.46C131.731 32.1982 131.954 32.4141 132.057 32.5819L132.328 33.0695C132.495 33.2854 134.399 38.2014 134.399 38.3693V38.4812C134.423 38.6331 134.312 38.793 134.256 38.9049ZM91.4865 29.3525L91.7573 29.2966C91.9246 29.1367 110.23 21.7586 110.278 21.7586C110.39 21.7586 110.549 22.1982 110.605 22.3022L110.82 22.7898C110.876 22.9576 111.258 23.5012 111.258 23.6611C111.258 23.6611 110.764 24.7562 110.661 25.028C110.549 25.6275 110.446 26.1231 110.446 26.7786V27.1623C110.446 27.8177 110.613 28.6331 110.828 29.1287C110.995 29.6723 111.425 30.3277 111.537 30.7674L111.864 30.6075C112.031 30.3917 116.818 26.5707 117.48 26.1311C118.244 25.5316 119.439 24.3325 120.419 24.0528C121.128 23.8929 123.526 22.6299 124.012 22.6299L124.179 23.1175L124.45 23.773L124.561 23.9329C124.506 24.2046 124.346 25.028 124.02 25.028H123.637C123.47 25.028 122.817 24.4844 122.817 24.4844C122.49 24.4844 120.363 25.5795 119.877 25.6275L120.475 27.1543L120.586 27.2102L120.801 27.1543C120.857 27.0983 122.49 26.4428 122.546 26.4428C122.602 26.4428 123.088 26.6587 123.143 26.7146L123.908 26.7706C124.999 26.8825 126.091 25.7314 126.091 24.7482L128.6 23.765L128.815 24.3645L128.982 24.8521L129.309 25.6195L129.636 25.5635L130.886 25.0759H130.942L130.018 22.7258C129.803 22.2862 129.476 21.9105 128.767 21.9105C128.003 21.9105 126.481 22.8937 126.043 22.8937C125.876 22.8937 125.549 20.7674 124.243 20.7674H123.972C123.645 20.7674 121.359 21.8625 120.754 22.0224C120.315 22.1343 119.662 22.51 119.176 22.6779C118.467 22.9496 118.412 23.1655 117.87 23.6051C117.002 24.2046 116.181 24.9161 115.361 25.5715C114.763 26.0112 113.401 27.2102 112.851 27.538L112.254 28.0256C112.254 27.5859 112.087 27.1543 112.142 26.9305L112.357 25.4037L113.178 23.8209H113.289L111.871 20.9832C111.656 20.5436 111.051 20 110.454 20H110.127C109.8 20 101.516 23.4373 100.536 23.8769C98.9028 24.5324 97.3733 25.1319 95.7403 25.7874C94.872 26.0592 91.4944 27.6419 90.8333 27.6978L91.4865 29.3525ZM99.6038 32.2942C99.4923 32.51 98.6798 33.4373 98.6798 33.5492C98.6798 33.6051 99.1179 33.9329 99.1737 33.9888C99.6676 34.3165 100.751 35.3557 101.404 35.3557H101.675L104.184 35.2438L103.093 36.1711L96.2262 42.2862L96.7679 42.9976L97.3096 43.5412L97.4769 43.4852L107.124 34.964L110.501 34.7482V34.5803L110.446 33.4373V33.2214V33.0616L102.44 33.6051H101.619C101.452 33.6051 99.9862 32.4061 99.7632 32.2382L99.6038 32.2942ZM114.261 43.6531L110.828 41.303L109.577 41.7906L111.792 47.498L113.13 46.9864C113.13 46.9305 111.975 44.3006 111.864 43.8129L115.185 46.1071L115.894 42.0144L116.492 43.3813L117.201 45.2918L117.416 45.2358L118.507 44.7962L116.277 39.1207L115.002 39.6323L114.261 43.6531ZM130.114 33.4452L129.946 33.5012L129.237 37.538L125.916 35.1878L124.514 35.6755L126.131 39.6643L126.8 41.4069L128.09 40.8633L126.84 37.6419L130.161 39.992C130.392 38.6251 130.639 37.2662 130.87 35.8993H130.926C131.348 37.0024 131.779 38.0895 132.233 39.1767L133.483 38.6811L131.579 33.773L131.364 33.1735L131.309 33.0136L130.114 33.4452ZM101.038 45.3717C100.847 45.5795 100.695 45.7314 100.695 46.227V46.3389C100.695 47.2102 101.133 47.482 101.619 47.8098C101.794 47.8977 102.033 47.9616 102.328 47.9217L106.415 47.5939H106.702C106.909 47.5939 107.068 47.6019 107.068 47.8657C107.068 48.0815 106.359 48.3054 106.2 48.3533L102.002 49.992L102.559 51.279C102.83 51.0631 105.268 50.2078 105.865 49.992C106.359 49.7762 106.956 49.5524 107.498 49.3365C107.936 49.1207 108.422 48.5691 108.422 47.9137C108.422 47.442 108.271 47.1143 107.976 46.7626C107.434 46.1231 107.18 46.275 105.754 46.275L103.953 46.3869L102.703 46.4988H102.217C102.105 46.4988 102.049 46.4428 102.049 46.3309C102.049 46.0032 106.407 44.6363 106.678 44.3086C106.622 44.1407 106.24 43.1095 106.136 43.1095C105.945 43.1095 102.503 44.5404 101.484 45.004C101.261 45.1079 101.205 45.1878 101.038 45.3717ZM117.312 38.8489L119.511 44.4285L125.924 41.8545L125.43 40.5995L121.128 42.2942L120.531 42.51L120.323 42.5979L119.901 41.4948L122.164 40.5915L121.741 39.5284L119.455 40.4556L119.009 39.3925L124.131 37.2662L123.717 36.1311L117.264 38.689L117.312 38.8489ZM94.3224 31.6387L95.7961 32.4061C95.9076 32.462 95.9076 32.462 96.0669 32.462H96.5051C96.5051 32.462 102.01 30.2798 102.448 30.056C102.942 29.8401 103.428 29.6163 103.921 29.4564C104.36 29.2886 105.013 29.0727 105.395 28.8569C105.889 28.6411 106.375 28.4732 106.869 28.2574C107.195 28.1455 108.119 27.8177 108.343 27.6579L107.96 26.5627C107.904 26.4508 107.793 26.0751 107.689 26.0751C107.578 26.0751 102.567 28.1535 101.97 28.3693C101.317 28.6411 96.521 30.6635 96.2501 30.6635H96.1386C95.9713 30.6635 94.9915 30.008 94.8322 29.8961L93.7966 31.3189L94.3224 31.6387ZM107.395 42.7818L109.705 48.3853L110.931 47.8657L108.701 42.1902L107.395 42.7818ZM108.972 50.9752V50.9193L128.863 42.8377C128.226 52.3901 116.277 57.7218 108.972 50.9752Z" fill="#808080"/>
</svg>
