<svg width="227" height="80" viewBox="0 0 227 80" fill="none" xmlns="http://www.w3.org/2000/svg">
<path fill-rule="evenodd" clip-rule="evenodd" d="M97.3005 55.6084H98.3388V60H99.3609V55.6084H100.373V54.6256H97.3005V55.6084ZM100.84 54.6256V60H101.865V57.6948H103.775V60H104.794V54.6256H103.775V56.81H101.865V54.6256H100.84H100.84ZM105.803 54.6256V60H108.699V58.9943H106.776V57.7927H108.647V56.8784H106.776V55.6084H108.764V54.6256H105.803ZM111.076 54.6256H109.63V60H110.642V57.8876L112.043 60H113.286L111.814 57.9658C112.34 57.8874 112.637 57.6327 112.892 57.342C113.097 57.0386 113.212 56.676 113.212 56.3397C113.212 55.9708 113.097 55.6084 112.934 55.3244C112.741 55.0991 112.473 54.8965 112.18 54.7759C111.82 54.6764 111.449 54.6258 111.076 54.6255V54.6256ZM110.625 55.6084H111.167C111.879 55.6084 112.229 55.876 112.229 56.3397C112.229 56.8784 111.958 57.1429 111.246 57.1429H110.626L110.625 55.6084ZM113.874 60H114.818V55.9708L116.284 60H117.113L118.511 55.9708V60H119.523V54.6256H118.122L116.649 58.7199L115.207 54.6255H113.874V60ZM122.288 54.6256L119.993 60H121.123L121.717 58.5992H123.621L124.238 60L124.998 58.9552L123.026 54.6256H122.288ZM122.638 56.0784L123.238 57.6164H122.093L122.638 56.0784ZM126.419 57.342L124.561 60H125.681L126.964 58.1258L128.27 60H129.468L127.565 57.342L129.465 54.6256H128.27L126.964 56.4898L125.694 54.6256H124.561L126.419 57.342Z" fill="#808080"/>
<path fill-rule="evenodd" clip-rule="evenodd" d="M112.461 23.0099V51.2592L105.009 51.3115V35.327H97.1985V20L109.09 20.0464H109.346C111.016 20.0464 112.35 21.3304 112.461 23.0099ZM113.762 22.9605V51.3117H121.247V35.327H129.126V20H116.827C115.154 20 113.802 21.2811 113.762 22.9605Z" fill="#808080"/>
</svg>
