<svg width="21" height="20" viewBox="0 0 21 20" fill="none" xmlns="http://www.w3.org/2000/svg">
<path d="M4.64966 6.09766H8.54965" stroke="#FF3A44" stroke-width="1.5" stroke-linecap="round" stroke-linejoin="round"/>
<path d="M19.1116 7.07422H16.5742C14.8345 7.07422 13.4242 8.38369 13.4242 9.9991C13.4242 11.6145 14.8345 12.924 16.5742 12.924H19.1116C19.193 12.924 19.2335 12.924 19.2678 12.9219C19.7937 12.8899 20.2124 12.501 20.2469 12.0128C20.2492 11.9809 20.2492 11.9432 20.2492 11.8678V8.13039C20.2492 8.05503 20.2492 8.01726 20.2469 7.98542C20.2124 7.4972 19.7937 7.1083 19.2678 7.07631C19.2335 7.07422 19.193 7.07422 19.1116 7.07422Z" stroke="#FF3A44" stroke-width="1.5"/>
<path d="M19.2408 7.07402C19.1651 5.2486 18.9206 4.1294 18.1326 3.34145C16.9904 2.19922 15.1519 2.19922 11.475 2.19922H8.54998C4.87303 2.19922 3.03456 2.19922 1.89228 3.34145C0.75 4.4837 0.75 6.32209 0.75 9.9989C0.75 13.6757 0.75 15.5142 1.89228 16.6563C3.03456 17.7986 4.87303 17.7986 8.54998 17.7986H11.475C15.1519 17.7986 16.9904 17.7986 18.1326 16.6563C18.9206 15.8685 19.1651 14.7492 19.2408 12.9238" stroke="#FF3A44" stroke-width="1.5"/>
<path d="M16.3401 10H16.3491" stroke="#FF3A44" stroke-width="1.5" stroke-linecap="round" stroke-linejoin="round"/>
</svg>
