<svg width="20" height="20" viewBox="0 0 20 20" fill="none" xmlns="http://www.w3.org/2000/svg">
<path d="M2 9.79999C2 6.783 2 5.27451 2.93726 4.33725C3.87452 3.39999 5.38301 3.39999 8.4 3.39999H11.6C14.617 3.39999 16.1255 3.39999 17.0627 4.33725C18 5.27451 18 6.783 18 9.79999V11.4C18 14.417 18 15.9255 17.0627 16.8627C16.1255 17.8 14.617 17.8 11.6 17.8H8.4C5.38301 17.8 3.87452 17.8 2.93726 16.8627C2 15.9255 2 14.417 2 11.4V9.79999Z" stroke="#B9BFC3" stroke-width="1.5"/>
<path d="M6 3.4V2.2" stroke="#B9BFC3" stroke-width="1.5" stroke-linecap="round"/>
<path d="M14 3.4V2.2" stroke="#B9BFC3" stroke-width="1.5" stroke-linecap="round"/>
<path d="M2.3999 7.39999H17.5999" stroke="#B9BFC3" stroke-width="1.5" stroke-linecap="round"/>
<path d="M14.8 13.8C14.8 14.2418 14.4418 14.6 14 14.6C13.5581 14.6 13.2 14.2418 13.2 13.8C13.2 13.3582 13.5581 13 14 13C14.4418 13 14.8 13.3582 14.8 13.8Z" fill="#B9BFC3"/>
<path d="M14.8 10.6C14.8 11.0418 14.4418 11.4 14 11.4C13.5581 11.4 13.2 11.0418 13.2 10.6C13.2 10.1582 13.5581 9.8 14 9.8C14.4418 9.8 14.8 10.1582 14.8 10.6Z" fill="#B9BFC3"/>
<path d="M10.8 13.8C10.8 14.2418 10.4418 14.6 9.99995 14.6C9.55811 14.6 9.19995 14.2418 9.19995 13.8C9.19995 13.3582 9.55811 13 9.99995 13C10.4418 13 10.8 13.3582 10.8 13.8Z" fill="#B9BFC3"/>
<path d="M10.8 10.6C10.8 11.0418 10.4418 11.4 9.99995 11.4C9.55811 11.4 9.19995 11.0418 9.19995 10.6C9.19995 10.1582 9.55811 9.8 9.99995 9.8C10.4418 9.8 10.8 10.1582 10.8 10.6Z" fill="#B9BFC3"/>
<path d="M6.79995 13.8C6.79995 14.2418 6.44178 14.6 5.99995 14.6C5.55813 14.6 5.19995 14.2418 5.19995 13.8C5.19995 13.3582 5.55813 13 5.99995 13C6.44178 13 6.79995 13.3582 6.79995 13.8Z" fill="#B9BFC3"/>
<path d="M6.79995 10.6C6.79995 11.0418 6.44178 11.4 5.99995 11.4C5.55813 11.4 5.19995 11.0418 5.19995 10.6C5.19995 10.1582 5.55813 9.8 5.99995 9.8C6.44178 9.8 6.79995 10.1582 6.79995 10.6Z" fill="#B9BFC3"/>
</svg>
