<svg width="20" height="20" viewBox="0 0 20 20" fill="none" xmlns="http://www.w3.org/2000/svg">
<g clip-path="url(#clip0_1671_588)">
<path d="M18.5 4.6875H8.9375M12.125 15.3125H2.5625M12.125 15.3125C12.125 17.0729 13.5521 18.5 15.3125 18.5C17.0729 18.5 18.5 17.0729 18.5 15.3125C18.5 13.5521 17.0729 12.125 15.3125 12.125C13.5521 12.125 12.125 13.5521 12.125 15.3125ZM7.875 4.6875C7.875 6.44791 6.44791 7.875 4.6875 7.875C2.92709 7.875 1.5 6.44791 1.5 4.6875C1.5 2.92709 2.92709 1.5 4.6875 1.5C6.44791 1.5 7.875 2.92709 7.875 4.6875Z" stroke="black" stroke-width="2.3" stroke-linecap="round" stroke-linejoin="round"/>
</g>
<defs>
<clipPath id="clip0_1671_588">
<rect width="20" height="20" fill="white"/>
</clipPath>
</defs>
</svg>
