<svg width="20" height="20" viewBox="0 0 20 20" fill="none" xmlns="http://www.w3.org/2000/svg">
<path d="M15.1922 7.69231C15.1922 11.1538 9.99992 15.1923 9.99992 15.1923C9.99992 15.1923 4.80762 11.1538 4.80762 7.69231C4.80762 4.86423 7.17185 2.5 9.99992 2.5C12.828 2.5 15.1922 4.86423 15.1922 7.69231Z" stroke="#B9BFC3" stroke-width="1.3" stroke-linecap="round" stroke-linejoin="round"/>
<path d="M10.0001 9.4231C10.9559 9.4231 11.7308 8.64821 11.7308 7.69233C11.7308 6.73645 10.9559 5.96156 10.0001 5.96156C9.04418 5.96156 8.26929 6.73645 8.26929 7.69233C8.26929 8.64821 9.04418 9.4231 10.0001 9.4231Z" stroke="#B9BFC3" stroke-width="1.3" stroke-linecap="round" stroke-linejoin="round"/>
<path d="M14.7046 13.4616H15.7692L17.5 17.5H2.5L4.23077 13.4616H5.29542" stroke="#B9BFC3" stroke-width="1.3" stroke-linecap="round" stroke-linejoin="round"/>
</svg>
