<svg width="36" height="36" viewBox="0 0 36 36" fill="none" xmlns="http://www.w3.org/2000/svg">
<rect x="0.5" y="0.5" width="35" height="35" rx="17.5" fill="#FF3A44"/>
<rect x="0.5" y="0.5" width="35" height="35" rx="17.5" stroke="white" stroke-linecap="round"/>
<path d="M15.3 18.9002C15.3 19.6163 15.5845 20.303 16.0909 20.8094C16.5972 21.3157 17.284 21.6002 18 21.6002C18.7161 21.6002 19.4029 21.3157 19.9092 20.8094C20.4156 20.303 20.7 19.6163 20.7 18.9002C20.7 18.1841 20.4156 17.4974 19.9092 16.991C19.4029 16.4847 18.7161 16.2002 18 16.2002C17.284 16.2002 16.5972 16.4847 16.0909 16.991C15.5845 17.4974 15.3 18.1841 15.3 18.9002Z" stroke="white" stroke-width="2" stroke-linecap="round"/>
<path d="M16 26.1004H20C22.809 26.1004 24.2134 26.1004 25.2223 25.4385C25.659 25.152 26.034 24.7838 26.3259 24.355C27 23.3645 27 21.9855 27 19.2276C27 16.4699 27 15.0909 26.3259 14.1003C26.034 13.6715 25.659 13.3033 25.2223 13.0168C24.574 12.5915 23.7624 12.4395 22.5198 12.3852C21.9268 12.3852 21.4163 11.944 21.3 11.3731C21.1255 10.5168 20.3597 9.90039 19.4703 9.90039H16.5297C15.6402 9.90039 14.8744 10.5168 14.7 11.3731C14.5837 11.944 14.0732 12.3852 13.4802 12.3852C12.2376 12.4395 11.426 12.5915 10.7777 13.0168C10.341 13.3033 9.96595 13.6715 9.67412 14.1003C9 15.0909 9 16.4699 9 19.2276C9 21.9855 9 23.3645 9.67412 24.355C9.96595 24.7838 10.341 25.152 10.7777 25.4385C11.7866 26.1004 13.1911 26.1004 16 26.1004Z" stroke="white" stroke-width="2" stroke-linecap="round"/>
<path d="M24.3001 16.2002H23.4001" stroke="white" stroke-width="2" stroke-linecap="round"/>
</svg>
