<svg width="20" height="20" viewBox="0 0 20 20" fill="none" xmlns="http://www.w3.org/2000/svg">
<path d="M2 9.79844C2 6.78145 2 5.27296 2.93726 4.33569C3.87452 3.39844 5.38301 3.39844 8.4 3.39844H11.6C14.617 3.39844 16.1255 3.39844 17.0627 4.33569C18 5.27296 18 6.78145 18 9.79844V11.3984C18 14.4154 18 15.924 17.0627 16.8612C16.1255 17.7984 14.617 17.7984 11.6 17.7984H8.4C5.38301 17.7984 3.87452 17.7984 2.93726 16.8612C2 15.924 2 14.4154 2 11.3984V9.79844Z" stroke="black" stroke-width="1.5"/>
<path d="M6 3.39922V2.19922" stroke="black" stroke-width="1.5" stroke-linecap="round"/>
<path d="M14 3.39922V2.19922" stroke="black" stroke-width="1.5" stroke-linecap="round"/>
<path d="M2.40039 7.39844H17.6004" stroke="black" stroke-width="1.5" stroke-linecap="round"/>
<path d="M14.7992 13.8C14.7992 14.2418 14.4411 14.6 13.9992 14.6C13.5574 14.6 13.1992 14.2418 13.1992 13.8C13.1992 13.3582 13.5574 13 13.9992 13C14.4411 13 14.7992 13.3582 14.7992 13.8Z" fill="black"/>
<path d="M14.7992 10.5988C14.7992 11.0407 14.4411 11.3988 13.9992 11.3988C13.5574 11.3988 13.1992 11.0407 13.1992 10.5988C13.1992 10.157 13.5574 9.79883 13.9992 9.79883C14.4411 9.79883 14.7992 10.157 14.7992 10.5988Z" fill="black"/>
<path d="M10.7992 13.8C10.7992 14.2418 10.4411 14.6 9.99922 14.6C9.55738 14.6 9.19922 14.2418 9.19922 13.8C9.19922 13.3582 9.55738 13 9.99922 13C10.4411 13 10.7992 13.3582 10.7992 13.8Z" fill="black"/>
<path d="M10.7992 10.5988C10.7992 11.0407 10.4411 11.3988 9.99922 11.3988C9.55738 11.3988 9.19922 11.0407 9.19922 10.5988C9.19922 10.157 9.55738 9.79883 9.99922 9.79883C10.4411 9.79883 10.7992 10.157 10.7992 10.5988Z" fill="black"/>
<path d="M6.79922 13.8C6.79922 14.2418 6.44104 14.6 5.99922 14.6C5.55739 14.6 5.19922 14.2418 5.19922 13.8C5.19922 13.3582 5.55739 13 5.99922 13C6.44104 13 6.79922 13.3582 6.79922 13.8Z" fill="black"/>
<path d="M6.79922 10.5988C6.79922 11.0407 6.44104 11.3988 5.99922 11.3988C5.55739 11.3988 5.19922 11.0407 5.19922 10.5988C5.19922 10.157 5.55739 9.79883 5.99922 9.79883C6.44104 9.79883 6.79922 10.157 6.79922 10.5988Z" fill="black"/>
</svg>
