<svg width="20" height="20" viewBox="0 0 20 20" fill="none" xmlns="http://www.w3.org/2000/svg">
<path d="M14.8461 7.84615C14.8461 11.0769 9.99996 14.8462 9.99996 14.8462C9.99996 14.8462 5.15381 11.0769 5.15381 7.84615C5.15381 5.20662 7.36042 3 9.99996 3C12.6395 3 14.8461 5.20662 14.8461 7.84615Z" stroke="#686262" stroke-width="1.3" stroke-linecap="round" stroke-linejoin="round"/>
<path d="M10.0002 9.46154C10.8923 9.46154 11.6155 8.73831 11.6155 7.84616C11.6155 6.954 10.8923 6.23077 10.0002 6.23077C9.10799 6.23077 8.38477 6.954 8.38477 7.84616C8.38477 8.73831 9.10799 9.46154 10.0002 9.46154Z" stroke="#686262" stroke-width="1.3" stroke-linecap="round" stroke-linejoin="round"/>
<path d="M14.3909 13.2308H15.3846L17 17H3L4.61538 13.2308H5.60906" stroke="#686262" stroke-width="1.3" stroke-linecap="round" stroke-linejoin="round"/>
</svg>
