<svg width="20" height="20" viewBox="0 0 20 20" fill="none" xmlns="http://www.w3.org/2000/svg">
<path d="M10 18C14.4182 18 18 14.4182 18 10C18 5.58172 14.4182 2 10 2C5.58172 2 2 5.58172 2 10C2 11.2798 2.3005 12.4893 2.83477 13.562C2.97675 13.847 3.02401 14.1729 2.9417 14.4805L2.46521 16.2614C2.25836 17.0344 2.96561 17.7416 3.73868 17.5348L5.51951 17.0583C5.82714 16.976 6.15297 17.0233 6.43802 17.1652C7.5107 17.6995 8.72024 18 10 18Z" stroke="#FF3A44" stroke-width="1.5"/>
<path d="M6.80029 8.80078H13.2003" stroke="#FF3A44" stroke-width="1.5" stroke-linecap="round"/>
<path d="M6.80029 11.6016H11.2003" stroke="#FF3A44" stroke-width="1.5" stroke-linecap="round"/>
</svg>
