<svg width="20" height="20" viewBox="0 0 20 20" fill="none" xmlns="http://www.w3.org/2000/svg">
<path d="M5.38428 10.0007V6.96609C5.39329 6.36959 5.51992 5.78074 5.75692 5.23325C5.99392 4.68578 6.33663 4.19045 6.76541 3.77563C7.19418 3.36082 7.7006 3.03468 8.25565 2.81591C8.81069 2.59714 9.40346 2.49003 9.99996 2.50073C10.5965 2.49003 11.1892 2.59714 11.7443 2.81591C12.2993 3.03468 12.8057 3.36082 13.2345 3.77563C13.6633 4.19045 14.006 4.68578 14.2431 5.23325C14.48 5.78074 14.6067 6.36959 14.6157 6.96609V10.0007" stroke="#FF3A44" stroke-width="1.5" stroke-linecap="round" stroke-linejoin="round"/>
<path d="M3.65343 8.26562H4.80736C4.96038 8.26562 5.10713 8.32641 5.21532 8.43461C5.32353 8.54279 5.38432 8.68953 5.38432 8.84255V12.3041C5.38432 12.4571 5.32353 12.6038 5.21532 12.712C5.10713 12.8202 4.96038 12.881 4.80736 12.881H3.65343C3.34739 12.881 3.05389 12.7594 2.83749 12.543C2.62109 12.3267 2.49951 12.0332 2.49951 11.7271V9.41947C2.49951 9.11344 2.62109 8.81997 2.83749 8.60357C3.05389 8.38719 3.34739 8.26562 3.65343 8.26562Z" stroke="#FF3A44" stroke-width="1.5" stroke-linecap="round" stroke-linejoin="round"/>
<path d="M16.3466 12.881H15.1927C15.0397 12.881 14.8929 12.8202 14.7847 12.712C14.6765 12.6038 14.6157 12.4571 14.6157 12.3041V8.84255C14.6157 8.68953 14.6765 8.54279 14.7847 8.43461C14.8929 8.32641 15.0397 8.26562 15.1927 8.26562H16.3466C16.6526 8.26562 16.9462 8.38719 17.1625 8.60357C17.3789 8.81997 17.5005 9.11344 17.5005 9.41947V11.7271C17.5005 12.0332 17.3789 12.3267 17.1625 12.543C16.9462 12.7594 16.6526 12.881 16.3466 12.881Z" stroke="#FF3A44" stroke-width="1.5" stroke-linecap="round" stroke-linejoin="round"/>
<path d="M12.3079 16.0601C12.9199 16.0601 13.5069 15.817 13.9397 15.3842C14.3726 14.9513 14.6157 14.3644 14.6157 13.7524V11.1562" stroke="#FF3A44" stroke-width="1.5" stroke-linecap="round" stroke-linejoin="round"/>
<path d="M12.3078 16.0595C12.3078 16.442 12.1559 16.8089 11.8854 17.0794C11.6148 17.3498 11.248 17.5018 10.8654 17.5018H9.13454C8.75199 17.5018 8.38511 17.3498 8.11461 17.0794C7.84411 16.8089 7.69214 16.442 7.69214 16.0595C7.69214 15.677 7.84411 15.3101 8.11461 15.0396C8.38511 14.7691 8.75199 14.6172 9.13454 14.6172H10.8654C11.248 14.6172 11.6148 14.7691 11.8854 15.0396C12.1559 15.3101 12.3078 15.677 12.3078 16.0595Z" stroke="#FF3A44" stroke-width="1.5" stroke-linecap="round" stroke-linejoin="round"/>
</svg>
