<svg width="24" height="25" viewBox="0 0 24 25" fill="none" xmlns="http://www.w3.org/2000/svg">
<path d="M6.72833 16.6986C6.86953 17.2095 7.39828 17.5094 7.90933 17.3683C8.42039 17.2271 8.72023 16.6983 8.57903 16.1872L6.72833 16.6986ZM1.21691 3.20706C0.706019 3.06531 0.176937 3.36457 0.0351883 3.87547C-0.106561 4.38637 0.192694 4.91545 0.703599 5.0572L1.21691 3.20706ZM22.9619 17.2884C23.4751 17.155 23.783 16.6308 23.6497 16.1177C23.5163 15.6045 22.9923 15.2967 22.4791 15.4301L22.9619 17.2884ZM10.1735 19.635C10.5698 21.0696 9.69991 22.583 8.15892 22.9834L8.64185 24.8418C11.1725 24.1841 12.7189 21.6384 12.0242 19.1238L10.1735 19.635ZM8.15892 22.9834C6.60789 23.3865 5.05146 22.4863 4.65183 21.0397L2.80113 21.5511C3.4925 24.0535 6.12122 25.4969 8.64185 24.8418L8.15892 22.9834ZM4.65183 21.0397C4.25554 19.6053 5.12542 18.0919 6.66643 17.6913L6.1835 15.833C3.65284 16.4907 2.10643 19.0365 2.80113 21.5511L4.65183 21.0397ZM6.66643 17.6913C8.21745 17.2883 9.77387 18.1885 10.1735 19.635L12.0242 19.1238C11.3329 16.6214 8.70411 15.178 6.1835 15.833L6.66643 17.6913ZM8.57903 16.1872L5.82411 6.21528L3.97341 6.72655L6.72833 16.6986L8.57903 16.1872ZM3.39767 3.81211L1.21691 3.20706L0.703599 5.0572L2.88436 5.66223L3.39767 3.81211ZM5.82411 6.21528C5.5001 5.04248 4.57131 4.13772 3.39767 3.81211L2.88436 5.66223C3.42912 5.81339 3.83482 6.2249 3.97341 6.72655L5.82411 6.21528ZM11.3403 20.3086L22.9619 17.2884L22.4791 15.4301L10.8573 18.4503L11.3403 20.3086Z" fill="#9E9E9E"/>
<path d="M9.36413 8.33511C8.74331 6.08796 8.43291 4.96439 8.95981 4.07923C9.48673 3.19406 10.6452 2.893 12.9621 2.29088L15.4196 1.65223C17.7364 1.05011 18.895 0.749043 19.8075 1.26009C20.7202 1.77113 21.0306 2.89472 21.6514 5.14187L22.3099 7.52534C22.9307 9.7725 23.2411 10.8961 22.7142 11.7812C22.1873 12.6664 21.0289 12.9675 18.7119 13.5696L16.2544 14.2082C13.9376 14.8103 12.7791 15.1114 11.8664 14.6004C10.9538 14.0893 10.6434 12.9657 10.0226 10.7186L9.36413 8.33511Z" stroke="#9E9E9E" stroke-width="2"/>
</svg>
