<svg width="26" height="21" viewBox="0 0 26 21" fill="none" xmlns="http://www.w3.org/2000/svg">
<path d="M9.276 16.2733C9.276 18.1467 7.79333 19.6667 5.96533 19.6667C4.13733 19.6667 2.65467 18.1467 2.65467 16.272M9.276 16.2733C9.276 14.4 7.79333 12.8787 5.96533 12.8787C4.13733 12.8787 2.65467 14.3987 2.65467 16.272M9.276 16.2733L16.724 16.272M2.65467 16.272H1V2.33333C1 1.97971 1.14048 1.64057 1.39052 1.39052C1.64057 1.14048 1.97971 1 2.33333 1H15.3907C15.7443 1 16.0834 1.14048 16.3335 1.39052C16.5835 1.64057 16.724 1.97971 16.724 2.33333V5.24267M16.724 16.272H17.552M16.724 16.272V5.24267M16.724 5.24267H19.7387C20.0942 5.24271 20.4462 5.31385 20.7739 5.45193C21.1016 5.59 21.3983 5.79221 21.6467 6.04667L25 9.48533V16.272H24.172M24.172 16.272C24.172 18.1467 22.6907 19.6667 20.8627 19.6667C19.0333 19.6667 17.552 18.1467 17.552 16.272M24.172 16.272C24.172 14.3987 22.6907 12.8787 20.8627 12.8787C19.0333 12.8787 17.552 14.3987 17.552 16.272" stroke="#9E9E9E" stroke-width="2" stroke-linecap="round" stroke-linejoin="round"/>
</svg>
