<svg width="24" height="24" viewBox="0 0 24 24" fill="none" xmlns="http://www.w3.org/2000/svg">
<path d="M18.2317 9.23082C18.2317 12.0745 15.3118 15.2426 13.4699 16.9583C12.6329 17.7378 11.3698 17.7378 10.5329 16.9583C8.69089 15.2426 5.771 12.0745 5.771 9.23082C5.771 5.8371 8.60789 3 12.0014 3C15.3948 3 18.2317 5.8371 18.2317 9.23082Z" stroke="black" stroke-width="1.75" stroke-linecap="round" stroke-linejoin="round"/>
<path d="M12.0001 11.3062C13.1471 11.3062 14.0769 10.3763 14.0769 9.22928C14.0769 8.08222 13.1471 7.15234 12.0001 7.15234C10.8531 7.15234 9.92334 8.08222 9.92334 9.22928C9.92334 10.3763 10.8531 11.3062 12.0001 11.3062Z" stroke="black" stroke-width="1.75" stroke-linecap="round" stroke-linejoin="round"/>
<path d="M17.645 16.1523H17.9334C18.5335 16.1523 19.0758 16.51 19.3121 17.0615L20.1033 18.9077C20.5275 19.8975 19.8014 20.9985 18.7246 20.9985H5.27523C4.19837 20.9985 3.47233 19.8975 3.8965 18.9077L4.68766 17.0615C4.92402 16.51 5.46634 16.1523 6.0664 16.1523H6.35478" stroke="black" stroke-width="1.75" stroke-linecap="round" stroke-linejoin="round"/>
</svg>
