<svg width="26" height="26" viewBox="0 0 26 26" fill="none" xmlns="http://www.w3.org/2000/svg">
<path d="M1 12.3964C1 7.86932 1 5.60577 2.40588 4.19936C3.81178 2.79297 6.07451 2.79297 10.6 2.79297H15.4C19.9254 2.79297 22.1883 2.79297 23.5941 4.19936C25 5.60577 25 7.86932 25 12.3964V14.7973C25 19.3244 25 21.5881 23.5941 22.9944C22.1883 24.4008 19.9254 24.4008 15.4 24.4008H10.6C6.07451 24.4008 3.81178 24.4008 2.40588 22.9944C1 21.5881 1 19.3244 1 14.7973V12.3964Z" stroke="white" stroke-width="2"/>
<path d="M6.99951 2.80065V1" stroke="white" stroke-width="2" stroke-linecap="round"/>
<path d="M18.9998 2.80065V1" stroke="white" stroke-width="2" stroke-linecap="round"/>
<path d="M16.6001 17.8085C16.6001 18.286 16.7897 18.744 17.1273 19.0817C17.4649 19.4194 17.9227 19.6091 18.4001 19.6091C18.8775 19.6091 19.3353 19.4194 19.6729 19.0817C20.0105 18.744 20.2001 18.286 20.2001 17.8085C20.2001 17.3309 20.0105 16.8729 19.6729 16.5352C19.3353 16.1975 18.8775 16.0078 18.4001 16.0078C17.9227 16.0078 17.4649 16.1975 17.1273 16.5352C16.7897 16.8729 16.6001 17.3309 16.6001 17.8085Z" stroke="white" stroke-width="2"/>
<path d="M1.60034 8.80859H24.4003" stroke="white" stroke-width="2" stroke-linecap="round"/>
</svg>
