<svg width="16" height="16" viewBox="0 0 16 16" fill="none" xmlns="http://www.w3.org/2000/svg">
<path d="M12 0H4C1.792 0 0 1.792 0 4V12C0 14.208 1.792 16 4 16H12C14.208 16 16 14.208 16 12V4C16 1.792 14.208 0 12 0ZM8 12C5.792 12 4 10.208 4 8C4 5.792 5.792 4 8 4C10.208 4 12 5.792 12 8C12 10.208 10.208 12 8 12ZM12.28 4.496C11.84 4.496 11.48 4.136 11.48 3.696C11.48 3.256 11.84 2.896 12.28 2.896C12.72 2.896 13.08 3.256 13.08 3.696C13.08 4.136 12.72 4.496 12.28 4.496Z" fill="#C5161D"/>
<path d="M8.00001 10.3996C9.32549 10.3996 10.4 9.32509 10.4 7.99961C10.4 6.67413 9.32549 5.59961 8.00001 5.59961C6.67452 5.59961 5.60001 6.67413 5.60001 7.99961C5.60001 9.32509 6.67452 10.3996 8.00001 10.3996Z" fill="#C5161D"/>
</svg>
