<svg width="40" height="40" viewBox="0 0 40 40" fill="none" xmlns="http://www.w3.org/2000/svg">
<rect width="40" height="40" rx="20" fill="#FFF3F3"/>
<path d="M24 12H16C13.792 12 12 13.792 12 16V24C12 26.208 13.792 28 16 28H24C26.208 28 28 26.208 28 24V16C28 13.792 26.208 12 24 12ZM20 24C17.792 24 16 22.208 16 20C16 17.792 17.792 16 20 16C22.208 16 24 17.792 24 20C24 22.208 22.208 24 20 24ZM24.28 16.496C23.84 16.496 23.48 16.136 23.48 15.696C23.48 15.256 23.84 14.896 24.28 14.896C24.72 14.896 25.08 15.256 25.08 15.696C25.08 16.136 24.72 16.496 24.28 16.496Z" fill="#C5161D"/>
<path d="M20 22.3996C21.3255 22.3996 22.4 21.3251 22.4 19.9996C22.4 18.6741 21.3255 17.5996 20 17.5996C18.6745 17.5996 17.6 18.6741 17.6 19.9996C17.6 21.3251 18.6745 22.3996 20 22.3996Z" fill="#C5161D"/>
</svg>
