<svg width="40" height="40" viewBox="0 0 40 40" fill="none" xmlns="http://www.w3.org/2000/svg">
<rect width="40" height="40" rx="20" fill="#FFF3F3"/>
<path d="M13.9058 16.2503C14.9414 16.2503 15.781 15.4108 15.781 14.3752C15.781 13.3395 14.9414 12.5 13.9058 12.5C12.8702 12.5 12.0306 13.3395 12.0306 14.3752C12.0306 15.4108 12.8702 16.2503 13.9058 16.2503Z" fill="#C5161D"/>
<path d="M15.7809 17.1865H12.0306V27.4999H15.7809V17.1865Z" fill="#C5161D"/>
<path d="M24.5567 17.1865C21.7439 17.1865 21.4064 18.8554 21.4064 18.8554V17.1865H17.6562V27.4999H21.4064V21.8744C21.4064 21.8744 21.4064 19.9992 23.0003 19.9992C23.9379 19.9992 24.2191 20.8337 24.2191 21.8744V27.4999H27.9694V21.8744C27.9694 18.9398 26.6944 17.1865 24.5567 17.1865Z" fill="#C5161D"/>
</svg>
