<svg width="16" height="15" viewBox="0 0 16 15" fill="none" xmlns="http://www.w3.org/2000/svg">
<path d="M1.87518 3.75035C2.91081 3.75035 3.75035 2.91081 3.75035 1.87518C3.75035 0.839545 2.91081 0 1.87518 0C0.839545 0 0 0.839545 0 1.87518C0 2.91081 0.839545 3.75035 1.87518 3.75035Z" fill="#C5161D"/>
<path d="M3.75027 4.68652H0V14.9999H3.75027V4.68652Z" fill="#C5161D"/>
<path d="M12.5261 4.68652C9.71334 4.68652 9.37582 6.35543 9.37582 6.35543V4.68652H5.62555V14.9999H9.37582V9.37442C9.37582 9.37442 9.37582 7.49924 10.9697 7.49924C11.9073 7.49924 12.1885 8.33366 12.1885 9.37442V14.9999H15.9388V9.37442C15.9388 6.43979 14.6637 4.68652 12.5261 4.68652Z" fill="#C5161D"/>
</svg>
