<svg width="24" height="24" viewBox="0 0 24 24" fill="none" xmlns="http://www.w3.org/2000/svg">
<path d="M3.49974 11V14C3.49974 17.7712 3.49974 19.6569 4.67131 20.8284C5.84289 22 7.7285 22 11.4997 22H12.4997C16.2709 22 18.1566 22 19.3281 20.8284C20.4997 19.6569 20.4997 17.7712 20.4997 14V11" stroke="#FF3A44" stroke-width="1.5"/>
<path d="M9.49954 2H14.4995L15.1512 8.51737C15.3377 10.382 13.8734 12 11.9995 12C10.1256 12 8.66134 10.382 8.8478 8.51737L9.49954 2Z" stroke="#FF3A44" stroke-width="1.5"/>
<path d="M3.32998 5.35133C3.50806 4.46093 3.5971 4.01573 3.77814 3.65484C4.15961 2.89439 4.84602 2.33168 5.66651 2.10675C6.0559 2 6.50991 2 7.41794 2H9.50025L8.77572 9.24527C8.61934 10.8091 7.30341 12 5.73178 12C3.80133 12 2.35347 10.2339 2.73206 8.34093L3.32998 5.35133Z" stroke="#FF3A44" stroke-width="1.5"/>
<path d="M20.67 5.35133C20.4919 4.46093 20.4028 4.01573 20.2218 3.65484C19.8403 2.89439 19.1539 2.33168 18.3334 2.10675C17.944 2 17.49 2 16.582 2H14.4997L15.2242 9.24527C15.3806 10.8091 16.6965 12 18.2682 12C20.1986 12 21.6465 10.2339 21.2679 8.34093L20.67 5.35133Z" stroke="#FF3A44" stroke-width="1.5"/>
<path d="M9.49974 21.5V18.5C9.49974 17.5654 9.49974 17.0981 9.7007 16.75C9.83235 16.522 10.0217 16.3326 10.2497 16.201C10.5978 16 11.0651 16 11.9997 16C12.9343 16 13.4016 16 13.7497 16.201C13.9777 16.3326 14.1671 16.522 14.2987 16.75C14.4997 17.0981 14.4997 17.5654 14.4997 18.5V21.5" stroke="#FF3A44" stroke-width="1.5" stroke-linecap="round"/>
</svg>
