<svg width="24" height="24" viewBox="0 0 24 24" fill="none" xmlns="http://www.w3.org/2000/svg">
<path d="M4 10.9998L3.51488 11.1211C2.62453 11.3437 2 12.1437 2 13.0615V14.9383C2 15.8561 2.62453 16.6559 3.51488 16.8786L5.25444 17.3135C5.63316 17.4082 6 17.1218 6 16.7314V11.2684C6 10.878 5.63316 10.5916 5.25444 10.6863L4 10.9998ZM4 10.9998V10.5001C4 6.08179 7.5817 2.5 12 2.5C16.4183 2.5 20 6.08179 20 10.5001V10.9998M20 10.9998L20.4851 11.1211C21.3754 11.3437 22 12.1437 22 13.0615V14.9383C22 15.8561 21.3755 16.6559 20.4851 16.8786L20 16.9999M20 10.9998L18.7456 10.6863C18.3668 10.5916 18 10.878 18 11.2684V16.7314C18 17.1218 18.3668 17.4082 18.7456 17.3135L20 16.9999M20 16.9999V18.0001C20 19.1047 19.1046 20.0001 18 20.0001H15M15 20.0001C15 19.1717 14.3284 18.5001 13.5 18.5001H10.5C9.67156 18.5001 8.99995 19.1717 8.99995 20.0001C8.99995 20.8284 9.67156 21.5001 10.5 21.5001H13.5C14.3284 21.5001 15 20.8285 15 20.0001Z" stroke="#FF3A44" stroke-width="1.5"/>
</svg>
