<svg width="24" height="24" viewBox="0 0 24 24" fill="none" xmlns="http://www.w3.org/2000/svg">
<path d="M2 12H10.6956" stroke="#FF3A44" stroke-width="1.5" stroke-miterlimit="10" stroke-linecap="round" stroke-linejoin="round"/>
<path d="M7.21662 8.52246L10.6949 12.0007L7.21662 15.479" stroke="#FF3A44" stroke-width="1.5" stroke-miterlimit="10" stroke-linecap="round" stroke-linejoin="round"/>
<path d="M15.6952 11.3478C16.0553 10.9875 16.6394 10.9874 16.9996 11.3476C17.3597 11.7077 17.3597 12.2916 16.9996 12.6517C16.6394 13.0119 16.0553 13.0118 15.6952 12.6515C15.3354 12.2914 15.3354 11.7079 15.6952 11.3478Z" stroke="#FF3A44" stroke-width="1.5" stroke-miterlimit="10" stroke-linecap="round" stroke-linejoin="round"/>
<path d="M8.08765 16.915C8.08765 18.5221 9.39043 19.8249 10.9975 19.8249H13.305" stroke="#FF3A44" stroke-width="1.5" stroke-miterlimit="10" stroke-linecap="round" stroke-linejoin="round"/>
<path d="M13.305 4.17383H10.9137C9.35293 4.17383 8.08765 5.43911 8.08765 6.99991" stroke="#FF3A44" stroke-width="1.5" stroke-miterlimit="10" stroke-linecap="round" stroke-linejoin="round"/>
<path d="M13.3044 17.9056C13.3044 19.7987 15.0363 21.2186 16.8927 20.8473L19.5883 20.3082C20.9906 20.0277 22 18.7965 22 17.3665V6.63311C22 5.20307 20.9906 3.97182 19.5883 3.69137L16.8927 3.15224C15.0363 2.78096 13.3044 4.20084 13.3044 6.09398V17.9056Z" stroke="#FF3A44" stroke-width="1.5" stroke-miterlimit="10" stroke-linecap="round" stroke-linejoin="round"/>
</svg>
