<svg width="36" height="36" viewBox="0 0 36 36" fill="none" xmlns="http://www.w3.org/2000/svg">
<path d="M30.1895 8.85699C35.2693 13.9062 35.2693 22.0938 30.1895 27.143" stroke="black" stroke-width="1.8" stroke-linecap="round" stroke-linejoin="round"/>
<path d="M26.3828 11.9047C29.4306 15.2709 29.4306 20.7293 26.3828 24.0954" stroke="black" stroke-width="1.8" stroke-linecap="round" stroke-linejoin="round"/>
<path d="M21.3167 5.19522C21.197 3.87558 19.9444 3.0009 18.6964 3.44738C12.8561 5.53656 8.09552 9.99988 8.09552 9.99988C8.09552 9.99988 5.99866 10.4654 4.17382 11.033C3.7338 11.1672 3.33931 11.4201 3.03376 11.764C2.7282 12.1078 2.52341 12.5293 2.44193 12.982C2.14666 14.6383 1.99878 16.3176 2.00001 18C2.00001 20.109 2.23392 21.8675 2.44193 23.0172C2.52341 23.47 2.7282 23.8915 3.03376 24.2353C3.33931 24.5792 3.7338 24.8321 4.17382 24.9662C5.99866 25.5339 8.09552 26.0002 8.09552 26.0002C8.09552 26.0002 12.8561 30.4635 18.6964 32.5526C19.9444 32.9991 21.197 32.1245 21.3167 30.8048C21.5361 28.3667 21.8104 24.0992 21.8104 18C21.8104 11.9009 21.5361 7.6326 21.3167 5.19522Z" stroke="black" stroke-width="1.8" stroke-linejoin="round"/>
<path d="M8.09581 9.99994C8.09581 9.99994 7.71484 13.6465 7.71484 18.0001C7.71484 22.3537 8.09581 26.0002 8.09581 26.0002" stroke="black" stroke-width="1.8" stroke-linecap="round" stroke-linejoin="round"/>
</svg>
