<svg width="36" height="36" viewBox="0 0 36 36" fill="none" xmlns="http://www.w3.org/2000/svg">
<path d="M8.91406 29.3874C9.06198 30.3419 9.21573 31.2105 9.34398 31.8969C9.52615 32.8624 10.2126 33.6377 11.1839 33.7842C11.9461 33.9 13.0048 33.9999 14.3878 33.9999C15.7031 33.9999 16.7837 33.9095 17.6064 33.8017C18.7606 33.6501 19.5694 32.6897 19.6947 31.5326L19.9286 29.3743" stroke="black" stroke-width="1.8" stroke-linecap="round" stroke-linejoin="round"/>
<path d="M26.4991 2.37861C26.5619 2.26401 26.6543 2.1684 26.7668 2.1018C26.8792 2.0352 27.0075 2.00006 27.1381 2.00006C27.2688 2.00006 27.3971 2.0352 27.5095 2.1018C27.6219 2.1684 27.7144 2.26401 27.7772 2.37861L29.2287 5.03243C29.6299 5.76598 30.233 6.3691 30.9666 6.77031L33.6204 8.22182C33.735 8.2846 33.8306 8.37706 33.8972 8.48948C33.9638 8.60191 33.9989 8.73019 33.9989 8.86086C33.9989 8.99154 33.9638 9.11981 33.8972 9.23224C33.8306 9.34466 33.735 9.43712 33.6204 9.4999L30.9666 10.9514C30.233 11.3526 29.6299 11.9557 29.2287 12.6893L27.7772 15.3431C27.7144 15.4577 27.6219 15.5533 27.5095 15.6199C27.3971 15.6865 27.2688 15.7217 27.1381 15.7217C27.0075 15.7217 26.8792 15.6865 26.7668 15.6199C26.6543 15.5533 26.5619 15.4577 26.4991 15.3431L25.0476 12.6893C24.6464 11.9557 24.0433 11.3526 23.3097 10.9514L20.6559 9.4999C20.5413 9.43712 20.4457 9.34466 20.3791 9.23224C20.3125 9.11981 20.2773 8.99154 20.2773 8.86086C20.2773 8.73019 20.3125 8.60191 20.3791 8.48948C20.4457 8.37706 20.5413 8.2846 20.6559 8.22182L23.3097 6.77031C24.0433 6.3691 24.6464 5.76598 25.0476 5.03243L26.4991 2.37861Z" stroke="black" stroke-width="1.8"/>
<path d="M19.1237 4.33374C17.622 3.71259 16.0125 3.3939 14.3874 3.39594C7.54591 3.39594 2 8.94185 2 15.7833C2 19.7422 3.85738 23.2675 6.74801 25.5351C6.96092 26.3866 7.19685 27.2322 7.45555 28.0709C7.67925 28.7981 8.28332 29.3264 9.04041 29.4058C10.0554 29.5115 11.7671 29.6281 14.3874 29.6281C17.0077 29.6281 18.7193 29.5115 19.7344 29.4058C20.4915 29.3264 21.0955 28.7981 21.3185 28.0702C21.5276 27.3903 21.7921 26.4817 22.0268 25.5351C23.8659 24.0937 25.2611 22.1626 26.0519 19.9637" stroke="black" stroke-width="1.8" stroke-linecap="round" stroke-linejoin="round"/>
</svg>
