<svg width="36" height="36" viewBox="0 0 36 36" fill="none" xmlns="http://www.w3.org/2000/svg">
<path d="M18.0001 25.4667C15.7369 25.4667 13.5665 24.5677 11.9662 22.9673C10.3658 21.367 9.4668 19.1965 9.4668 16.9334V10.5334C9.4668 9.96757 9.69157 9.42493 10.0916 9.02486C10.4917 8.62479 11.0343 8.40002 11.6001 8.40002H24.4001C24.9659 8.40002 25.5086 8.62479 25.9087 9.02486C26.3088 9.42493 26.5335 9.96757 26.5335 10.5334V16.9334C26.5335 19.1965 25.6345 21.367 24.034 22.9673C22.4338 24.5677 20.2633 25.4667 18.0001 25.4667Z" stroke="black" stroke-width="1.8" stroke-linecap="round" stroke-linejoin="round"/>
<path d="M13.7344 24.3247V27.5958C13.7344 28.1616 13.9591 28.7043 14.3592 29.1044C14.7593 29.5044 15.3019 29.7292 15.8677 29.7292H20.1344C20.7001 29.7292 21.2429 29.5044 21.6429 29.1044C22.043 28.7043 22.2677 28.1616 22.2677 27.5958V24.3247" stroke="black" stroke-width="1.8" stroke-linecap="round" stroke-linejoin="round"/>
<path d="M13.7344 8.4V2" stroke="black" stroke-width="1.8" stroke-linecap="round" stroke-linejoin="round"/>
<path d="M22.2676 8.4V2" stroke="black" stroke-width="1.8" stroke-linecap="round" stroke-linejoin="round"/>
<path d="M18 29.7333V33.9999" stroke="black" stroke-width="1.8" stroke-linecap="round" stroke-linejoin="round"/>
</svg>
