<svg width="36" height="36" viewBox="0 0 36 36" fill="none" xmlns="http://www.w3.org/2000/svg">
<path d="M3.3913 2H32.6087C32.9777 2 33.3316 2.14658 33.5925 2.4075C33.8534 2.66842 34 3.02231 34 3.3913V6.86957C34 7.05406 33.9267 7.23101 33.7962 7.36147C33.6658 7.49193 33.4888 7.56522 33.3043 7.56522H2.69565C2.51115 7.56522 2.33421 7.49193 2.20375 7.36147C2.07329 7.23101 2 7.05406 2 6.86957V3.3913C2 3.02231 2.14658 2.66842 2.4075 2.4075C2.66842 2.14658 3.02231 2 3.3913 2Z" stroke="black" stroke-width="1.8" stroke-linecap="round" stroke-linejoin="round"/>
<path d="M2.54297 2.29217L9.65253 7.56522L18.0004 2L26.3482 7.56522L33.4578 2.29217" stroke="black" stroke-width="1.8" stroke-linecap="round" stroke-linejoin="round"/>
<path d="M3.39258 7.56519V34" stroke="black" stroke-width="1.8" stroke-linecap="round" stroke-linejoin="round"/>
<path d="M32.6094 7.56519V34" stroke="black" stroke-width="1.8" stroke-linecap="round" stroke-linejoin="round"/>
<path d="M22.1738 31.9129V23.2173" stroke="black" stroke-width="1.8" stroke-linecap="round" stroke-linejoin="round"/>
<path d="M20.5605 22.4105L24.971 24.6227" stroke="black" stroke-width="1.8" stroke-linecap="round" stroke-linejoin="round"/>
<path d="M16.6094 21.4783C16.6094 21.7524 16.6634 22.0238 16.7682 22.277C16.8731 22.5302 17.0268 22.7602 17.2206 22.954C17.4144 23.1478 17.6445 23.3015 17.8977 23.4064C18.1509 23.5113 18.4223 23.5653 18.6963 23.5653C18.9704 23.5653 19.2418 23.5113 19.495 23.4064C19.7482 23.3015 19.9782 23.1478 20.172 22.954C20.3658 22.7602 20.5195 22.5302 20.6244 22.277C20.7293 22.0238 20.7833 21.7524 20.7833 21.4783C20.7833 21.2043 20.7293 20.9329 20.6244 20.6797C20.5195 20.4265 20.3658 20.1964 20.172 20.0026C19.9782 19.8088 19.7482 19.6551 19.495 19.5502C19.2418 19.4453 18.9704 19.3914 18.6963 19.3914C18.4223 19.3914 18.1509 19.4453 17.8977 19.5502C17.6445 19.6551 17.4144 19.8088 17.2206 20.0026C17.0268 20.1964 16.8731 20.4265 16.7682 20.6797C16.6634 20.9329 16.6094 21.2043 16.6094 21.4783Z" stroke="black" stroke-width="1.8" stroke-linecap="round" stroke-linejoin="round"/>
<path d="M19.3906 34L22.1732 31.9131" stroke="black" stroke-width="1.8" stroke-linecap="round" stroke-linejoin="round"/>
<path d="M24.9564 34L22.1738 31.9131" stroke="black" stroke-width="1.8" stroke-linecap="round" stroke-linejoin="round"/>
<path d="M17.3057 7.56519L15.5249 11.5165C15.4897 11.6207 15.4797 11.7318 15.4957 11.8407C15.5118 11.9495 15.5535 12.053 15.6173 12.1426C15.6811 12.2323 15.7653 12.3055 15.8629 12.3563C15.9605 12.407 16.0688 12.4339 16.1788 12.4348H19.824C19.934 12.4339 20.0423 12.407 20.1399 12.3563C20.2375 12.3055 20.3217 12.2323 20.3855 12.1426C20.4493 12.053 20.491 11.9495 20.507 11.8407C20.5231 11.7318 20.5131 11.6207 20.4779 11.5165L18.697 7.56519" stroke="black" stroke-width="1.8" stroke-linecap="round" stroke-linejoin="round"/>
<path d="M3.37695 7.59313L9.4013 10.181C9.5056 10.2291 9.59747 10.3006 9.66983 10.3898C9.74218 10.4791 9.79311 10.5837 9.81869 10.6957C9.84382 10.8036 9.84171 10.9161 9.81256 11.0229C9.78342 11.1298 9.72815 11.2277 9.65174 11.3079L7.13348 13.8262C7.05604 13.9075 6.95935 13.968 6.85235 14.002C6.74535 14.0361 6.63149 14.0426 6.5213 14.021C6.40929 13.9954 6.30464 13.9444 6.2154 13.8721C6.12616 13.7997 6.0547 13.7079 6.00652 13.6036L3.41869 7.55139" stroke="black" stroke-width="1.8" stroke-linecap="round" stroke-linejoin="round"/>
<path d="M32.6242 7.59301L26.5998 10.1808C26.4955 10.229 26.4036 10.3005 26.3313 10.3897C26.2589 10.479 26.208 10.5836 26.1824 10.6956C26.1608 10.8058 26.1673 10.9197 26.2014 11.0267C26.2354 11.1337 26.2959 11.2304 26.3772 11.3078L28.8676 13.8261C28.9451 13.9074 29.0418 13.9678 29.1488 14.0019C29.2558 14.0359 29.3696 14.0425 29.4798 14.0208C29.5918 13.9953 29.6965 13.9443 29.7857 13.872C29.8749 13.7996 29.9464 13.7078 29.9946 13.6034L32.5824 7.5791" stroke="black" stroke-width="1.8" stroke-linecap="round" stroke-linejoin="round"/>
</svg>
