<svg width="36" height="36" viewBox="0 0 36 36" fill="none" xmlns="http://www.w3.org/2000/svg">
<path d="M25.4668 19.0652H31.8663C32.432 19.0652 32.9747 18.8405 33.3747 18.4405C33.7747 18.0405 33.9994 17.4978 33.9994 16.9321V4.13315C33.9994 3.56741 33.7747 3.02484 33.3747 2.62478C32.9747 2.22474 32.432 2 31.8663 2H27.6C27.0342 2 26.4916 2.22474 26.0915 2.62478C25.6915 3.02484 25.4668 3.56741 25.4668 4.13315V19.0652Z" stroke="black" stroke-width="1.8" stroke-linecap="round" stroke-linejoin="round"/>
<path d="M8.40074 14.799C7.83499 14.799 7.2924 15.0237 6.89237 15.4238C6.49233 15.8238 6.26758 16.3664 6.26758 16.9321C6.26758 17.4978 6.49233 18.0405 6.89237 18.4405C7.2924 18.8405 7.83499 19.0652 8.40074 19.0652H25.466V14.799H8.40074Z" stroke="black" stroke-width="1.8" stroke-linecap="round" stroke-linejoin="round"/>
<path d="M28.9518 23.1195C29.7999 22.8354 30.5371 22.2918 31.0596 21.5658C31.5819 20.8399 31.8629 19.968 31.8628 19.0736H8.40234C8.40195 21.2365 8.99941 23.3573 10.1288 25.2019C11.2581 27.0465 12.8753 28.543 14.8018 29.5261L13.7352 34H27.6008V25.1545C27.5884 24.7174 27.7117 24.287 27.9536 23.9227C28.1953 23.5584 28.544 23.2778 28.9518 23.1195Z" stroke="black" stroke-width="1.8" stroke-linecap="round" stroke-linejoin="round"/>
<path d="M6.89648 11.5096C6.97211 10.3097 7.48233 9.17842 8.33172 8.32747C9.1811 7.47651 10.3114 6.9642 11.5112 6.88635" stroke="black" stroke-width="1.8" stroke-linecap="round" stroke-linejoin="round"/>
<path d="M2.00195 10.7371C2.25031 8.50601 3.25038 6.42577 4.83776 4.83837C6.42515 3.25099 8.50539 2.25092 10.7365 2.00256" stroke="black" stroke-width="1.8" stroke-linecap="round" stroke-linejoin="round"/>
</svg>
