<svg width="36" height="36" viewBox="0 0 36 36" fill="none" xmlns="http://www.w3.org/2000/svg">
<path d="M14.1816 5.81729C14.1816 6.82969 14.5838 7.80062 15.2996 8.51648C16.0156 9.23235 16.9865 9.63453 17.9989 9.63453C19.0112 9.63453 19.9822 9.23235 20.6981 8.51648C21.4139 7.80062 21.8161 6.82969 21.8161 5.81729C21.8161 4.8049 21.4139 3.83397 20.6981 3.11811C19.9822 2.40224 19.0112 2.00006 17.9989 2.00006C16.9865 2.00006 16.0156 2.40224 15.2996 3.11811C14.5838 3.83397 14.1816 4.8049 14.1816 5.81729Z" stroke="black" stroke-width="1.8" stroke-linecap="round" stroke-linejoin="round"/>
<path d="M22.5469 18.8889C22.9808 18.8819 23.4099 18.9802 23.7974 19.1753C24.185 19.3706 24.5193 19.6569 24.7721 20.0096C25.0248 20.3625 25.1881 20.7712 25.2481 21.201C25.3081 21.6306 25.2632 22.0687 25.1168 22.4772" stroke="black" stroke-width="1.8" stroke-linecap="round" stroke-linejoin="round"/>
<path d="M17.998 9.6347V34.0001" stroke="black" stroke-width="1.8" stroke-linecap="round" stroke-linejoin="round"/>
<path d="M21.502 7.33337H32.7218C36.5291 7.33337 31.0152 16.5109 23.0906 13.4489" stroke="black" stroke-width="1.8" stroke-linecap="round" stroke-linejoin="round"/>
<path d="M14.4964 7.33337H3.2794C-0.526449 7.33337 4.98606 16.5109 12.9107 13.4489" stroke="black" stroke-width="1.8" stroke-linecap="round" stroke-linejoin="round"/>
<path d="M13.4519 18.8889C12.7367 18.8817 12.0478 19.1583 11.5362 19.6582C11.0246 20.1581 10.732 20.8404 10.7227 21.5556C10.7264 22.2842 11.0132 22.9829 11.5224 23.504C12.0317 24.0253 12.7235 24.3282 13.4519 24.3488H20.7279C21.4518 24.3488 22.146 24.6364 22.6579 25.1481C23.1696 25.66 23.4572 26.3542 23.4572 27.0781C23.4572 27.8018 23.1696 28.496 22.6579 29.0079C22.146 29.5197 21.4518 29.8073 20.7279 29.8073H15.726C15.1084 29.8214 14.5216 30.0804 14.0949 30.5271C13.6682 30.9738 13.4363 31.5718 13.4505 32.1895C13.4487 32.521 13.5147 32.8493 13.6446 33.1544C13.7745 33.4594 13.9654 33.7346 14.2057 33.963" stroke="black" stroke-width="1.8" stroke-linecap="round" stroke-linejoin="round"/>
</svg>
