<svg width="36" height="36" viewBox="0 0 36 36" fill="none" xmlns="http://www.w3.org/2000/svg">
<path d="M16.5064 18.0214C15.6689 19.0208 15.1579 20.2528 15.0424 21.5516C14.927 22.8504 15.2126 24.1533 15.8607 25.2846C16.4339 25.3267 17.0016 25.1504 17.4502 24.7911C17.8986 24.4319 18.1946 23.9162 18.2785 23.3476C19.1367 23.8166 19.8431 24.5208 20.315 25.3772C20.7869 26.2338 21.0045 27.2072 20.9423 28.1831C20.943 28.9466 20.7934 29.7026 20.5019 30.4081C20.2103 31.1136 19.7826 31.7548 19.2433 32.2951C18.7039 32.8352 18.0633 33.2637 17.3583 33.5564C16.6532 33.849 15.8974 33.9997 15.134 34C13.5995 33.9794 12.1338 33.3607 11.0486 32.2756C9.96353 31.1906 9.34482 29.7247 9.3242 28.1902C9.13011 25.9205 9.74444 23.6552 11.0586 21.7945C12.3729 19.9338 14.3024 18.5974 16.5064 18.0214Z" stroke="black" stroke-width="1.8" stroke-linecap="round" stroke-linejoin="round"/>
<path d="M4.29581 13.8852H4.74381L7.95234 17.8958C9.16743 14.1906 9.01147 10.1721 7.51288 6.57214C10.3064 6.71276 13.017 7.56874 15.3846 9.058C17.7523 10.5473 19.6975 12.6199 21.0339 15.077L23.9438 12.2425C25.6439 13.9781 26.815 16.1617 27.3202 18.5381C27.8253 20.9145 27.6438 23.3856 26.7968 25.6627C25.9497 27.9397 24.472 29.9287 22.5365 31.3971C20.601 32.8655 18.2875 33.7527 15.8664 33.9553C13.4453 34.1576 11.0167 33.6668 8.86417 32.5401C6.71168 31.4135 4.92429 29.6975 3.71085 27.5928C2.49743 25.4879 1.90806 23.0812 2.01164 20.6539C2.11522 18.2266 2.90747 15.879 4.29581 13.8852Z" stroke="black" stroke-width="1.8" stroke-linecap="round" stroke-linejoin="round"/>
<path d="M29.7324 2L33.9991 6.26666L29.7324 10.5333" stroke="black" stroke-width="1.8" stroke-linecap="round" stroke-linejoin="round"/>
<path d="M34.0004 6.26672H24.4004" stroke="black" stroke-width="1.8" stroke-linecap="round" stroke-linejoin="round"/>
</svg>
