<svg width="36" height="36" viewBox="0 0 36 36" fill="none" xmlns="http://www.w3.org/2000/svg">
<path d="M10.3809 25.6191H25.619" stroke="black" stroke-width="1.8" stroke-linecap="round" stroke-linejoin="round"/>
<path d="M33.984 7.24396C33.8713 4.24462 31.3164 2.22337 28.3163 2.13181C25.9531 2.05969 22.606 2 18 2C13.394 2 10.0469 2.05969 7.68366 2.13181C4.68361 2.22337 2.12871 4.24462 2.01601 7.24396C2.00566 7.51931 2 7.80335 2 8.09524C2 8.38712 2.00566 8.67116 2.01601 8.94651C2.12871 11.9458 4.68361 13.9671 7.68366 14.0587C10.0469 14.1308 13.394 14.1905 18 14.1905C22.606 14.1905 25.9531 14.1308 28.3163 14.0587C31.3164 13.9671 33.8713 11.9458 33.984 8.94651C33.9944 8.67116 34 8.38712 34 8.09524C34 7.80335 33.9944 7.51931 33.984 7.24396Z" stroke="black" stroke-width="1.8" stroke-linecap="round" stroke-linejoin="round"/>
<path d="M3.14409 32.2267L8.09521 14.1906H14.1904L7.26669 32.7754C7.06468 33.3176 6.66268 33.7727 6.0964 33.8917C5.8051 33.9528 5.44995 34.0001 5.04758 34.0001C4.74781 34.0001 4.44804 33.9739 4.16888 33.9352C3.36683 33.8241 2.92974 33.0075 3.14409 32.2267Z" stroke="black" stroke-width="1.8" stroke-linecap="round" stroke-linejoin="round"/>
<path d="M32.8569 32.2267L27.9058 14.1906H21.8105L28.7343 32.7754C28.9363 33.3176 29.3383 33.7727 29.9046 33.8917C30.1959 33.9528 30.551 34.0001 30.9534 34.0001C31.2532 34.0001 31.5529 33.9739 31.8321 33.9352C32.6342 33.8241 33.0713 33.0075 32.8569 32.2267Z" stroke="black" stroke-width="1.8" stroke-linecap="round" stroke-linejoin="round"/>
</svg>
