<svg width="40" height="40" viewBox="0 0 40 40" fill="none" xmlns="http://www.w3.org/2000/svg">
<rect x="0.5" y="0.5" width="39" height="39" rx="3.5" fill="white"/>
<rect x="0.5" y="0.5" width="39" height="39" rx="3.5" stroke="#F0EFEF"/>
<path d="M30 21.9979C29.9711 25.4119 29.7815 27.294 28.5404 28.5352C27.0755 30 24.7179 30 20.0026 30C15.2873 30 12.9297 30 11.4648 28.5352C10 27.0703 10 24.7127 10 19.9974C10 15.2821 10 12.9245 11.4648 11.4596C12.706 10.2185 14.5881 10.029 18.0021 10" stroke="#686262" stroke-width="2" stroke-linecap="round"/>
<path d="M30 15H22C20.1824 15 19.0867 15.892 18.6804 16.3003C18.5546 16.4267 18.4917 16.49 18.4908 16.4908C18.49 16.4917 18.4267 16.5546 18.3003 16.6804C17.892 17.0867 17 18.1824 17 20V23M30 15L25 10M30 15L25 20" stroke="#686262" stroke-width="2" stroke-linecap="round" stroke-linejoin="round"/>
</svg>
