<svg width="20" height="20" viewBox="0 0 20 20" fill="none" xmlns="http://www.w3.org/2000/svg">
<path d="M8.92327 3.59611C9.03756 3.41366 9.19631 3.26324 9.38465 3.15897C9.57299 3.0547 9.78473 3 9.99999 3C10.2153 3 10.427 3.0547 10.6153 3.15897C10.8037 3.26324 10.9624 3.41366 11.0767 3.59611L13.1656 6.90197L15.8897 7.23579C16.1156 7.26103 16.3304 7.34747 16.5108 7.48577C16.6912 7.62408 16.8305 7.809 16.9136 8.02063C16.9966 8.23225 17.0205 8.46255 16.9823 8.68668C16.9442 8.91082 16.8457 9.12029 16.6973 9.29254L14.4253 11.8985L15.1575 15.5058C15.2034 15.7412 15.1812 15.9848 15.0935 16.208C15.0057 16.4311 14.8561 16.6246 14.6622 16.7657C14.4659 16.9043 14.2346 16.9847 13.9947 16.998C13.7549 17.0114 13.516 16.957 13.3055 16.8411L9.99999 15.032L6.69446 16.8411C6.48399 16.957 6.2452 17.0114 6.00531 16.998C5.76541 16.9847 5.53411 16.9043 5.33778 16.7657C5.14389 16.6246 4.9943 16.4311 4.90657 16.208C4.81882 15.9848 4.7966 15.7412 4.8425 15.5058L5.57466 11.8985L3.30277 9.29254C3.15439 9.12029 3.05582 8.91082 3.01769 8.68668C2.97956 8.46255 3.00333 8.23225 3.08642 8.02063C3.16951 7.809 3.30878 7.62408 3.4892 7.48577C3.66964 7.34747 3.88439 7.26103 4.11032 7.23579L6.83443 6.90197L8.92327 3.59611Z" fill="#FFA400" stroke="#FFA400" stroke-linecap="round" stroke-linejoin="round"/>
</svg>
