<svg width="28" height="28" viewBox="0 0 28 28" fill="none" xmlns="http://www.w3.org/2000/svg">
<path d="M28 21.9995C28 22.9137 27.259 23.6547 26.3449 23.6547H1.65512C0.741016 23.6548 0 22.9137 0 21.9995V5.9999C0 5.0858 0.741016 4.34473 1.65512 4.34473H26.3449C27.259 4.34473 28 5.0858 28 5.9999V21.9995Z" fill="#306FC5"/>
<path opacity="0.15" d="M1.17671 21.9995V5.9999C1.17671 5.0858 1.91784 4.34473 2.83194 4.34473H1.65506C0.741016 4.34473 0 5.08574 0 5.9999V21.9995C0 22.9137 0.741016 23.6548 1.65512 23.6548H2.83199C1.91789 23.6548 1.17671 22.9136 1.17671 21.9995Z" fill="#202121"/>
<path d="M4.07812 12.0717H4.91473L4.49654 11.0069L4.07812 12.0717Z" fill="white"/>
<path d="M8.5293 15.6465V16.1409H9.93635V16.6734H8.5293V17.244H10.0884L10.8109 16.4452L10.1264 15.6465H8.5293Z" fill="white"/>
<path d="M19.5189 11.0069L19.0625 12.0717H19.9372L19.5189 11.0069Z" fill="white"/>
<path d="M12.5981 17.5475V15.38L11.6094 16.4448L12.5981 17.5475Z" fill="white"/>
<path d="M14.4611 15.9889C14.423 15.7607 14.2708 15.6465 14.0425 15.6465H13.2441V16.331H14.0808C14.3089 16.331 14.4611 16.217 14.4611 15.9889Z" fill="white"/>
<path d="M17.1214 16.2551C17.1974 16.217 17.2356 16.1028 17.2356 15.9889C17.2737 15.837 17.1974 15.7608 17.1214 15.7227C17.0455 15.6847 16.9313 15.6847 16.8173 15.6847H16.0566V16.2932H16.8173C16.9312 16.2932 17.0454 16.2932 17.1214 16.2551Z" fill="white"/>
<path d="M22.5979 10.0186V10.475L22.3699 10.0186H20.5828V10.475L20.3546 10.0186H17.9209C17.5026 10.0186 17.1602 10.0948 16.8562 10.2469V10.0186H15.145V10.0567V10.2469C14.955 10.0948 14.7268 10.0186 14.4226 10.0186H8.3003L7.88184 10.9693L7.46364 10.0186H6.09476H5.52431V10.475L5.33416 10.0186H5.2961H3.661L2.90035 11.8058L2.02584 13.7452L2.00977 13.7833H2.02584H3.96523H3.98951L4.00329 13.7452L4.23155 13.1749H4.72587L4.95403 13.7833H7.15936V13.7452V13.327L7.34962 13.7832H8.45228L8.64232 13.327V13.7452V13.7833H9.51694H13.89H13.9281V12.7945H14.0043C14.0803 12.7945 14.0803 12.7945 14.0803 12.9087V13.7452H16.8182V13.5171C17.0464 13.6313 17.3884 13.7452 17.8447 13.7452H18.9857L19.2139 13.1369H19.7461L19.9742 13.7452H22.1797V13.365V13.1749L22.5221 13.7452H22.5979H22.6361H24.3092V10.0186H22.598H22.5979ZM9.7072 13.213H9.32684H9.09874V12.985V11.1215L9.06068 11.2087V11.2077L8.17605 13.213H8.14805H7.94467H7.61562L6.70305 11.1215V13.213H5.41023L5.14407 12.6426H3.85104L3.58482 13.213H2.91637L4.0413 10.5511H4.99187L6.05659 13.0988V10.5511H6.28469H7.06404L7.08198 10.5892H7.08329L7.56306 11.6334L7.90759 12.4158L7.91979 12.3763L8.68027 10.5511H9.70714V13.213H9.7072ZM12.3311 11.1215H10.848V11.6158H12.293V12.1481H10.848V12.6807H12.3311V13.2509H10.2016V10.5511H12.3311V11.1215ZM15.0433 12.102C15.0443 12.1029 15.0456 12.1035 15.0468 12.1043C15.0612 12.1195 15.0735 12.1348 15.084 12.1494C15.1568 12.2449 15.2157 12.3869 15.2187 12.5951C15.2189 12.5987 15.219 12.6023 15.2193 12.6059C15.2193 12.608 15.2196 12.6098 15.2196 12.6119C15.2196 12.6131 15.2195 12.6141 15.2195 12.6152C15.2204 12.6362 15.221 12.6575 15.221 12.6807V13.2131H14.6507V12.9087C14.6507 12.7566 14.6507 12.5284 14.5364 12.3763C14.5005 12.3404 14.4641 12.3167 14.4245 12.2999C14.3676 12.263 14.2595 12.2624 14.0803 12.2624H13.3956V13.2131H12.7493V10.5511H14.1944C14.5364 10.5511 14.7647 10.5511 14.9549 10.6652C15.1412 10.7771 15.2538 10.9627 15.258 11.2565C15.2492 11.6612 14.9895 11.8832 14.8027 11.9581C14.8027 11.9581 14.9296 11.9836 15.0433 12.102ZM16.3238 13.213H15.6773V10.5511H16.3238V13.213ZM23.739 13.213H22.9023L21.6855 11.1975V12.8707L21.6815 12.8667V13.2146H21.0391V13.2131H20.3926L20.1644 12.6427H18.8334L18.6052 13.251H17.8828C17.5788 13.251 17.1982 13.175 16.9702 12.9468C16.742 12.7187 16.6281 12.4145 16.6281 11.9202C16.6281 11.5399 16.704 11.1594 16.9702 10.8553C17.1602 10.627 17.5026 10.5511 17.9208 10.5511H18.5293V11.1215H17.9208C17.6926 11.1215 17.5787 11.1594 17.4263 11.2737C17.3125 11.3877 17.2364 11.6158 17.2364 11.882C17.2364 12.1862 17.2744 12.3763 17.4263 12.5284C17.5407 12.6427 17.6927 12.6807 17.8828 12.6807H18.1489L19.0234 10.5893H19.4039H19.9742L21.039 13.137V13.0071V12.1482V12.0723V10.5894H21.9896L23.0922 12.4526V10.5894H23.7389V13.2131H23.739V13.213Z" fill="white"/>
<path d="M14.5001 11.6595C14.5112 11.6476 14.5213 11.6342 14.5298 11.6187C14.5642 11.5642 14.6037 11.466 14.5825 11.332C14.5816 11.3196 14.5793 11.3083 14.5767 11.2973C14.576 11.2942 14.5761 11.2915 14.5753 11.2885L14.5749 11.2885C14.556 11.2234 14.5077 11.1834 14.4595 11.1591C14.3833 11.1212 14.2692 11.1212 14.1552 11.1212H13.3945V11.7297H14.1552C14.2692 11.7297 14.3833 11.7297 14.4595 11.6916C14.4709 11.6858 14.4811 11.6779 14.4909 11.669L14.491 11.6695C14.491 11.6695 14.495 11.6654 14.5001 11.6595Z" fill="white"/>
<path d="M25.9834 17.0157C25.9834 16.7495 25.9074 16.4832 25.7934 16.2932V14.582H25.7916V14.4678C25.7916 14.4678 24.1978 14.4678 23.9605 14.4678C23.7234 14.4678 23.4356 14.6959 23.4356 14.6959V14.4678H21.6865C21.4202 14.4678 21.0782 14.5439 20.9259 14.6959V14.4678H17.8078V14.582V14.6958C17.5798 14.5059 17.1612 14.4677 16.9712 14.4677H14.9177V14.582V14.6958C14.7276 14.5058 14.2711 14.4677 14.0428 14.4677H11.7616L11.2291 15.0381L10.7347 14.4677H10.5755H10.3165H7.3125V14.5819V14.8823V18.3085H10.6588L11.2087 17.7586L11.6853 18.3085H11.7234H13.6516H13.739H13.7771H13.8149V17.9283V17.434H14.0052C14.2711 17.434 14.6135 17.434 14.8797 17.3197V18.2703V18.3466H16.5909V18.2703V17.3578H16.6667C16.781 17.3578 16.781 17.3578 16.781 17.4719V18.2703V18.3466H21.9524C22.2949 18.3466 22.6369 18.2703 22.827 18.1182V18.2703V18.3466H24.4623C24.8043 18.3466 25.1468 18.3085 25.375 18.1564C25.7251 17.9463 25.9457 17.5745 25.9785 17.131C25.9801 17.1179 25.982 17.1048 25.9832 17.0916L25.981 17.0895C25.9824 17.0648 25.9834 17.0405 25.9834 17.0157ZM14.0052 16.7876H13.2445V16.9014V17.1297V17.3579V17.7762H11.9946L11.2672 16.9395L11.2647 16.9423L11.2291 16.9014L10.3926 17.7762H7.95891V15.1144H10.4306L11.1059 15.854L11.2479 16.0089L11.2671 15.9889L12.0658 15.1144H14.0811C14.4722 15.1144 14.9102 15.2109 15.0762 15.6089C15.0962 15.6877 15.1078 15.7753 15.1078 15.8748C15.1078 16.6353 14.5754 16.7876 14.0052 16.7876ZM17.8078 16.7495C17.8838 16.8633 17.9218 17.0156 17.9218 17.2439V17.7761H17.2755V17.434C17.2755 17.2816 17.2755 17.0156 17.1612 16.9014C17.0854 16.7876 16.9331 16.7876 16.7051 16.7876H16.0207V17.7762H15.3743V15.0763H16.8192C17.1232 15.0763 17.3893 15.0763 17.5798 15.1903C17.7698 15.3045 17.9218 15.4946 17.9218 15.7988C17.9218 16.217 17.6558 16.4452 17.4656 16.5214C17.6558 16.5971 17.7698 16.6734 17.8078 16.7495ZM20.4317 15.6465H18.9485V16.1408H20.3935V16.6733H18.9485V17.2058H20.4317V17.7761H18.3022V15.0762H20.4317V15.6465ZM22.0287 17.7762H20.8118V17.2058H22.0287C22.1425 17.2058 22.2188 17.2058 22.295 17.1297C22.3331 17.0916 22.3709 17.0157 22.3709 16.9396C22.3709 16.8633 22.3331 16.7876 22.295 16.7495C22.2568 16.7115 22.1807 16.6734 22.0666 16.6734C21.4582 16.6354 20.7357 16.6734 20.7357 15.8369C20.7357 15.4567 20.9639 15.0383 21.6484 15.0383H22.9032V15.6846H21.7245C21.6104 15.6846 21.5343 15.6846 21.4581 15.7227C21.3823 15.7608 21.3823 15.8369 21.3823 15.9129C21.3823 16.027 21.4581 16.0651 21.5342 16.1028C21.6104 16.141 21.6864 16.141 21.7624 16.141H22.1046C22.4469 16.141 22.675 16.217 22.8271 16.3692C22.9413 16.4833 23.0173 16.6734 23.0173 16.9396C23.0173 17.5098 22.6751 17.7762 22.0287 17.7762ZM25.2989 17.5098C25.147 17.6621 24.8807 17.7762 24.5003 17.7762H23.2837V17.2058H24.5002C24.6144 17.2058 24.6906 17.2058 24.7666 17.1297C24.8045 17.0916 24.8426 17.0157 24.8426 16.9396C24.8426 16.8633 24.8045 16.7876 24.7666 16.7495C24.7285 16.7115 24.6525 16.6734 24.5384 16.6734C23.9302 16.6354 23.2075 16.6734 23.2075 15.837C23.2075 15.4756 23.4143 15.1491 23.9242 15.0521C23.9852 15.0437 24.0496 15.0383 24.1202 15.0383H25.3751V15.6846H24.5384H24.2343H24.1962C24.0821 15.6846 24.0061 15.6846 23.9302 15.7227C23.8919 15.7608 23.8538 15.8369 23.8538 15.9129C23.8538 16.027 23.8919 16.0651 24.0061 16.1028C24.0821 16.141 24.1582 16.141 24.2343 16.141H24.2721H24.5764C24.7426 16.141 24.8683 16.1615 24.9833 16.2019C25.0886 16.24 25.4373 16.396 25.5153 16.8031C25.5221 16.8458 25.527 16.8903 25.527 16.9396C25.527 17.1678 25.451 17.3579 25.2989 17.5098Z" fill="white"/>
</svg>
