<svg width="28" height="28" viewBox="0 0 28 28" fill="none" xmlns="http://www.w3.org/2000/svg">
<g clip-path="url(#clip0_1962_12255)">
<path d="M0.431641 13.9996C0.431641 6.50742 6.50742 0.431641 13.9996 0.431641C21.4918 0.431641 27.5676 6.50742 27.5676 13.9996C27.5676 21.4918 21.4918 27.5676 13.9996 27.5676C6.50742 27.5676 0.431641 21.4918 0.431641 13.9996Z" fill="#3C80AD"/>
<path d="M9.56523 7.41522C6.1418 7.4371 3.36914 10.2262 3.36914 13.666C3.36914 17.1168 6.16367 19.9113 9.60352 19.9113C11.2168 19.9113 12.6879 19.2933 13.798 18.2816C14.0277 18.0738 14.2355 17.8496 14.4324 17.6144H13.1527C12.9832 17.4066 12.8246 17.1933 12.6879 16.9691H14.8918C15.0285 16.7558 15.1488 16.5316 15.2527 16.3019H12.3215C12.223 16.0887 12.1355 15.8699 12.059 15.6457H15.5098C15.7176 15.0223 15.8324 14.3551 15.8324 13.666C15.8324 13.2066 15.7832 12.7582 15.6902 12.3262H11.8785C11.9277 12.1019 11.9879 11.8832 12.0535 11.6699H15.5043C15.4277 11.4402 15.3348 11.216 15.2363 11.0027H12.316C12.4199 10.7785 12.5402 10.5598 12.6715 10.3465H14.8754C14.7277 10.1113 14.5691 9.8871 14.3941 9.67928H13.1691C13.3605 9.45507 13.5684 9.24178 13.7926 9.05038C12.6824 8.03866 11.2113 7.42069 9.59805 7.42069C9.59258 7.41522 9.58164 7.41522 9.56523 7.41522Z" fill="#931B1D"/>
<path d="M24.2051 13.6664C24.2051 17.1172 21.416 19.9172 17.9707 19.9172C14.5254 19.9172 11.7363 17.1227 11.7363 13.6719C11.7363 10.2211 14.5254 7.42109 17.9707 7.42109C21.4105 7.41562 24.2051 10.2102 24.2051 13.6664Z" fill="#F16622"/>
<path d="M24.2051 13.7371C24.2051 17.1879 21.416 19.9879 17.9707 19.9879C14.5254 19.9879 11.7363 17.1934 11.7363 13.7426V13.7371C11.7363 10.2863 14.5254 7.48633 17.9707 7.48633C21.4105 7.48633 24.2051 10.2809 24.2051 13.7371C24.2051 13.7316 24.2051 13.7316 24.2051 13.7371Z" fill="#F7981D"/>
<path d="M9.56523 7.48633C6.1418 7.5082 3.36914 10.2973 3.36914 13.7371C3.36914 17.1879 6.16367 19.9879 9.60352 19.9879C11.2168 19.9879 12.6879 19.3699 13.798 18.3582C14.0277 18.1504 14.2355 17.9262 14.4324 17.691H13.1527C12.9832 17.4832 12.8246 17.2699 12.6879 17.0457H14.8918C15.0285 16.8324 15.1488 16.6082 15.2527 16.3785H12.3215C12.223 16.1652 12.1355 15.9465 12.059 15.7223H15.5098C15.7176 15.0988 15.8324 14.4316 15.8324 13.7426C15.8324 13.2832 15.7832 12.8348 15.6902 12.4027H11.8785C11.9277 12.1785 11.9879 11.9598 12.0535 11.7465H15.5043C15.4277 11.5168 15.3348 11.2926 15.2363 11.0793H12.316C12.4199 10.8551 12.5402 10.6363 12.6715 10.423H14.8754C14.7277 10.1879 14.5691 9.96367 14.3941 9.75586H13.1691C13.3605 9.53164 13.5684 9.31836 13.7926 9.12695C12.6824 8.11523 11.2113 7.49727 9.59805 7.49727C9.59258 7.48633 9.58164 7.48633 9.56523 7.48633Z" fill="#CB2026"/>
<path d="M11.8445 15.3285L11.9266 14.7652C11.8828 14.7652 11.8117 14.7871 11.757 14.7871C11.5273 14.7871 11.5 14.6668 11.5164 14.5738L11.7023 13.4199H12.0523L12.1344 12.7965H11.8008L11.8664 12.4082H11.2102C11.1937 12.4246 10.8164 14.5957 10.8164 14.8582C10.8164 15.252 11.0352 15.427 11.3469 15.4215C11.593 15.4105 11.7789 15.3449 11.8445 15.3285Z" fill="white"/>
<path d="M12.0586 14.2453C12.0586 15.1859 12.6766 15.4101 13.207 15.4101C13.6938 15.4101 13.907 15.3008 13.907 15.3008L14.0219 14.6609C14.0219 14.6609 13.65 14.825 13.3164 14.825C12.6055 14.825 12.7313 14.2945 12.7313 14.2945H14.082C14.082 14.2945 14.1695 13.8625 14.1695 13.6875C14.1695 13.25 13.9508 12.7141 13.2234 12.7141C12.5508 12.7141 12.0586 13.4305 12.0586 14.2453ZM13.2234 13.3101C13.5953 13.3101 13.5297 13.7312 13.5297 13.7641H12.7914C12.7914 13.7203 12.8625 13.3101 13.2234 13.3101Z" fill="white"/>
<path d="M17.4238 15.3285L17.5441 14.6012C17.5441 14.6012 17.216 14.7652 16.9973 14.7652C16.527 14.7652 16.3355 14.4043 16.3355 14.016C16.3355 13.2285 16.7402 12.7965 17.1941 12.7965C17.5332 12.7965 17.8012 12.9879 17.8012 12.9879L17.9105 12.2824C17.9105 12.2824 17.5059 12.1183 17.1613 12.1183C16.3957 12.1183 15.6465 12.7855 15.6465 14.0379C15.6465 14.8691 16.0512 15.416 16.8441 15.416C17.0684 15.416 17.4238 15.3285 17.4238 15.3285Z" fill="white"/>
<path d="M8.19687 12.7258C7.74297 12.7258 7.39297 12.8734 7.39297 12.8734L7.29453 13.4476C7.29453 13.4476 7.58438 13.3328 8.01641 13.3328C8.2625 13.3328 8.44297 13.3601 8.44297 13.5625C8.44297 13.6828 8.42109 13.732 8.42109 13.732C8.42109 13.732 8.22422 13.7156 8.13672 13.7156C7.5625 13.7156 6.96094 13.9617 6.96094 14.7C6.96094 15.2851 7.35469 15.4164 7.60078 15.4164C8.07109 15.4164 8.26797 15.1101 8.28437 15.1101L8.2625 15.3672H8.84766L9.11016 13.5351C9.11016 12.7476 8.43203 12.7258 8.19687 12.7258ZM8.33906 14.2133C8.35 14.3281 8.26797 14.8476 7.86875 14.8476C7.66094 14.8476 7.60625 14.689 7.60625 14.5961C7.60625 14.4156 7.70469 14.1969 8.19141 14.1969C8.30625 14.1969 8.31719 14.2133 8.33906 14.2133Z" fill="white"/>
<path d="M9.72812 15.3941C9.87578 15.3941 10.7344 15.4324 10.7344 14.5465C10.7344 13.7207 9.94141 13.8847 9.94141 13.5511C9.94141 13.3871 10.0727 13.3324 10.3078 13.3324C10.4008 13.3324 10.7617 13.3652 10.7617 13.3652L10.8438 12.7801C10.8438 12.7801 10.6086 12.7308 10.2313 12.7308C9.73906 12.7308 9.24141 12.9277 9.24141 13.6004C9.24141 14.3605 10.0727 14.284 10.0727 14.6066C10.0727 14.8199 9.84297 14.8363 9.6625 14.8363C9.35078 14.8363 9.07187 14.7324 9.07187 14.7324L8.98438 15.3121C9.00078 15.3176 9.17031 15.3941 9.72812 15.3941Z" fill="white"/>
<path d="M22.925 12.1945L22.7828 13.0859C22.7828 13.0859 22.5312 12.7414 22.143 12.7414C21.5359 12.7414 21.0273 13.4742 21.0273 14.3219C21.0273 14.8687 21.2953 15.3992 21.8531 15.3992C22.2523 15.3992 22.4711 15.1203 22.4711 15.1203L22.4437 15.3555H23.0891L23.5977 12.1945H22.925ZM22.6188 13.9336C22.6188 14.2836 22.4437 14.7539 22.0828 14.7539C21.8422 14.7539 21.7328 14.5515 21.7328 14.2398C21.7328 13.7258 21.9625 13.3812 22.2578 13.3812C22.493 13.3812 22.6188 13.5453 22.6188 13.9336Z" fill="white"/>
<path d="M4.60469 15.3609L5.00937 12.9711L5.06953 15.3609H5.52891L6.38203 12.9711L6.00469 15.3609H6.68281L7.20781 12.1945H6.15781L5.50156 14.1359L5.46328 12.1945H4.49531L3.96484 15.3609H4.60469Z" fill="white"/>
<path d="M14.832 15.3672C15.0234 14.268 15.0617 13.3711 15.5211 13.5351C15.6031 13.1086 15.6797 12.9445 15.7672 12.7641C15.7672 12.7641 15.7234 12.7531 15.6414 12.7531C15.3461 12.7531 15.1219 13.1578 15.1219 13.1578L15.182 12.7859H14.5641L14.1484 15.3617H14.832V15.3672Z" fill="white"/>
<path d="M18.9605 12.7258C18.5066 12.7258 18.1566 12.8734 18.1566 12.8734L18.0582 13.4476C18.0582 13.4476 18.348 13.3328 18.7801 13.3328C19.0262 13.3328 19.2066 13.3601 19.2066 13.5625C19.2066 13.6828 19.1848 13.732 19.1848 13.732C19.1848 13.732 18.9879 13.7156 18.9004 13.7156C18.3262 13.7156 17.7246 13.9617 17.7246 14.7C17.7246 15.2851 18.1184 15.4164 18.3645 15.4164C18.8348 15.4164 19.0371 15.1101 19.0426 15.1101L19.0207 15.3672H19.6059L19.8684 13.5351C19.8684 12.7476 19.1957 12.7258 18.9605 12.7258ZM19.1027 14.2133C19.1137 14.3281 19.0316 14.8476 18.6324 14.8476C18.4246 14.8476 18.3754 14.689 18.3754 14.5961C18.3754 14.4156 18.4738 14.1969 18.9605 14.1969C19.0699 14.1969 19.0809 14.2133 19.1027 14.2133Z" fill="white"/>
<path d="M20.4043 15.3672C20.5957 14.268 20.634 13.3711 21.0934 13.5351C21.1754 13.1086 21.252 12.9445 21.3395 12.7641C21.3395 12.7641 21.2957 12.7531 21.2137 12.7531C20.9184 12.7531 20.6941 13.1578 20.6941 13.1578L20.7543 12.7859H20.1363L19.7207 15.3617H20.4043V15.3672Z" fill="white"/>
</g>
<defs>
<clipPath id="clip0_1962_12255">
<rect width="28" height="28" fill="white"/>
</clipPath>
</defs>
</svg>
