<svg width="28" height="28" viewBox="0 0 28 28" fill="none" xmlns="http://www.w3.org/2000/svg">
<path d="M10.6314 9.63743L6.9662 18.3834H4.57395L2.77156 11.4043C2.6606 10.9739 2.56577 10.8173 2.23305 10.6345C1.68804 10.3399 0.791547 10.0635 0 9.89134L0.0553984 9.63748H3.90425C4.39512 9.63748 4.83645 9.96489 4.94741 10.5293L5.90045 15.5913L8.25442 9.63748L10.6314 9.63743ZM20.0019 15.5266C20.0125 13.2196 16.8096 13.094 16.8326 12.0619C16.8389 11.7468 17.1375 11.4135 17.7914 11.3293C18.1162 11.2861 19.0098 11.2544 20.0227 11.7194L20.4197 9.86564C19.8747 9.66783 19.1742 9.47839 18.3036 9.47839C16.0675 9.47839 14.4933 10.6678 14.48 12.3696C14.4653 13.6281 15.6031 14.3304 16.4613 14.7495C17.3426 15.1784 17.6372 15.4522 17.6341 15.8368C17.6284 16.4238 16.931 16.6804 16.2805 16.6919C15.1427 16.7096 14.4828 16.3844 13.9558 16.139L13.5462 18.0565C14.0741 18.2989 15.0515 18.5093 16.063 18.5217C18.4396 18.5216 19.9944 17.3449 20.0019 15.5266ZM25.907 18.3834H28L26.1737 9.63748H24.2415C23.8074 9.63748 23.4414 9.89068 23.2783 10.2786L19.8854 18.3834H22.2602L22.7316 17.0773H25.6345L25.907 18.3834ZM23.3824 15.2847L24.5738 12.0007L25.2592 15.2847H23.3824ZM13.8646 9.63743L11.9927 18.3834H9.72978L11.6022 9.63743H13.8646Z" fill="#1A2ADF"/>
</svg>
