<svg width="56" height="56" viewBox="0 0 56 56" fill="none" xmlns="http://www.w3.org/2000/svg">
<path fill-rule="evenodd" clip-rule="evenodd" d="M25.1954 8.2862C26.9691 7.43844 29.031 7.43847 30.8047 8.2862C31.611 8.67154 32.3501 9.31553 33.4502 10.253C33.9357 10.6668 34.0994 10.804 34.2667 10.9161H34.2676C34.6856 11.1962 35.1549 11.3909 35.6485 11.4883C35.8464 11.5274 36.0592 11.547 36.6954 11.5977C38.1359 11.7127 39.1136 11.7789 39.9561 12.0762H39.9571C41.8106 12.731 43.269 14.1894 43.9239 16.043V16.044C44.1469 16.6757 44.2401 17.3838 44.3213 18.3057L44.4034 19.3048L44.462 19.9923C44.4699 20.0708 44.4774 20.1359 44.4854 20.1934L44.5118 20.3507V20.3516C44.6091 20.8451 44.8038 21.3145 45.084 21.7325V21.7335C45.1401 21.8171 45.2027 21.8999 45.3028 22.0225L45.7471 22.5499C46.6846 23.65 47.3286 24.3895 47.7139 25.1954C48.5615 26.9692 48.5615 29.0309 47.7139 30.8048C47.4249 31.4094 46.9902 31.976 46.3956 32.6856L45.7471 33.4503C45.3332 33.9358 45.196 34.0995 45.084 34.2667V34.2676C44.8038 34.6855 44.6091 35.1549 44.5118 35.6485V35.6495C44.4923 35.7481 44.4779 35.8506 44.462 36.0079L44.4034 36.6954C44.2883 38.1357 44.2213 39.1136 43.9239 39.9561V39.9571C43.269 41.8106 41.8106 43.269 39.9571 43.9239H39.9561C39.3243 44.1469 38.6164 44.2401 37.6944 44.3214L36.6954 44.4034C36.0599 44.454 35.8458 44.4717 35.6475 44.5108L35.6485 44.5118C35.1546 44.6094 34.6853 44.804 34.2676 45.084H34.2667C34.183 45.1401 34.1003 45.2027 33.9776 45.3028L33.4502 45.7471C32.3502 46.6845 31.611 47.3286 30.8047 47.7139C29.0309 48.5616 26.9692 48.5616 25.1954 47.7139C24.5906 47.4248 24.0233 46.9905 23.3135 46.3956L22.5499 45.7471C22.0646 45.3335 21.9007 45.1961 21.7334 45.084H21.7325C21.3669 44.8389 20.9618 44.6592 20.5352 44.5528L20.3516 44.5118C20.2527 44.4923 20.1497 44.478 19.9922 44.462L19.3047 44.4034C17.8645 44.2883 16.8864 44.2213 16.044 43.9239H16.043C14.1894 43.269 12.731 41.8106 12.0762 39.9571V39.9561C11.8532 39.3243 11.76 38.6164 11.6788 37.6944L11.5977 36.6954C11.5469 36.0591 11.5274 35.8461 11.4883 35.6485C11.3909 35.1548 11.1962 34.6856 10.9161 34.2676V34.2667C10.804 34.0994 10.6667 33.9357 10.253 33.4503C9.31551 32.3501 8.67154 31.611 8.28618 30.8048C7.43847 29.031 7.43845 26.9692 8.28618 25.1954C8.67156 24.3891 9.31547 23.65 10.253 22.5499C10.667 22.0641 10.8038 21.8999 10.9161 21.7325C11.1962 21.3145 11.3909 20.8453 11.4883 20.3516L11.5147 20.1944C11.5389 20.0213 11.5596 19.7823 11.5977 19.3048C11.7127 17.864 11.7786 16.8856 12.0762 16.043C12.731 14.1894 14.1895 12.7311 16.043 12.0762C16.8856 11.7786 17.8639 11.7127 19.3047 11.5977C19.9409 11.547 20.1539 11.5274 20.3516 11.4883L20.5352 11.4473C20.9616 11.341 21.3666 11.1613 21.7325 10.9161C21.8999 10.8039 22.064 10.667 22.5499 10.253C23.65 9.31549 24.389 8.67156 25.1954 8.2862ZM36.4297 21.7628C35.7464 21.0794 34.6386 21.0795 33.9551 21.7628L24.3409 31.377L21.2374 28.2735C20.554 27.5902 19.4461 27.5902 18.7627 28.2735C18.0794 28.9569 18.0794 30.0647 18.7627 30.7481L23.1036 35.0889C23.787 35.7722 24.8948 35.7723 25.5782 35.0889L36.4297 24.2374C37.113 23.554 37.113 22.4461 36.4297 21.7628Z" fill="#FF3A44"/>
</svg>
