<svg width="56" height="56" viewBox="0 0 56 56" fill="none" xmlns="http://www.w3.org/2000/svg">
<path d="M44.25 8H11.75C9.67891 8 8 9.67891 8 11.75V44.25C8 46.3211 9.67891 48 11.75 48H44.25C46.3211 48 48 46.3211 48 44.25V11.75C48 9.67891 46.3211 8 44.25 8ZM16.75 45.5H11.75C11.0596 45.5 10.5 44.9404 10.5 44.25V11.75C10.5 11.0596 11.0596 10.5 11.75 10.5H14.25V29.25C14.25 29.9404 14.8096 30.5 15.5 30.5H16.75V45.5ZM26.75 45.5H19.25V30.5H20.5C21.1904 30.5 21.75 29.9404 21.75 29.25V10.5H24.25V29.25C24.25 29.9404 24.8096 30.5 25.5 30.5H26.75V45.5ZM36.75 45.5H29.25V30.5H30.5C31.1904 30.5 31.75 29.9404 31.75 29.25V10.5H34.25V29.25C34.25 29.9404 34.8096 30.5 35.5 30.5H36.75V45.5ZM45.5 44.25C45.5 44.9404 44.9404 45.5 44.25 45.5H39.25V30.5H40.5C41.1904 30.5 41.75 29.9404 41.75 29.25V10.5H44.25C44.9404 10.5 45.5 11.0596 45.5 11.75V44.25Z" fill="#FF3A44"/>
</svg>
