<svg width="56" height="56" viewBox="0 0 56 56" fill="none" xmlns="http://www.w3.org/2000/svg">
<path d="M37.244 16.8843C37.7481 17.9702 38.1239 19.1112 38.3639 20.2842C40.187 21.2742 41.7539 22.6759 42.94 24.3779C44.1261 26.0799 44.8987 28.0352 45.1963 30.0883C45.494 32.1413 45.3084 34.2355 44.6544 36.2043C44.0004 38.173 42.896 39.962 41.4291 41.4289C39.9622 42.8958 38.1732 44.0002 36.2045 44.6542C34.2358 45.3082 32.1416 45.4937 30.0885 45.1961C28.0354 44.8985 26.0801 44.1259 24.3782 42.9398C22.6762 41.7537 21.2744 40.1868 20.2844 38.3637C19.1115 38.1237 17.9705 37.7478 16.8845 37.2437C17.7729 39.8048 19.2975 42.0981 21.3151 43.9085C23.3327 45.719 25.7772 46.9871 28.4192 47.5938C31.0612 48.2006 33.814 48.1262 36.4193 47.3775C39.0247 46.6288 41.3971 45.2304 43.3139 43.3136C45.2307 41.3968 46.629 39.0244 47.3777 36.4191C48.1264 33.8137 48.2008 31.0609 47.5941 28.4189C46.9873 25.7769 45.7192 23.3324 43.9088 21.3148C42.0984 19.2972 39.805 17.7727 37.244 16.8843Z" fill="#FF3A44"/>
<path d="M32.0041 16.0045C33.7878 16.0004 35.5594 16.298 37.2439 16.8845C36.206 14.6455 34.643 12.6901 32.6877 11.1844C30.7323 9.67871 28.4425 8.66727 26.0126 8.23597C23.5827 7.80467 21.0846 7.96628 18.7305 8.70704C16.3764 9.44781 14.236 10.7459 12.4909 12.4909C10.7459 14.236 9.44781 16.3764 8.70704 18.7305C7.96628 21.0846 7.80467 23.5827 8.23597 26.0126C8.66727 28.4425 9.67871 30.7323 11.1844 32.6877C12.6901 34.643 14.6455 36.206 16.8845 37.2439C16.298 35.5594 16.0004 33.7878 16.0045 32.0041C16.0045 27.7607 17.6902 23.6912 20.6907 20.6907C23.6912 17.6902 27.7607 16.0045 32.0041 16.0045Z" fill="#FF3A44"/>
<path d="M18.671 32.0042C18.6706 34.2254 19.2252 36.4116 20.2843 38.364C22.7659 38.8684 25.3337 38.7502 27.7585 38.0202C30.1833 37.2901 32.3895 35.9709 34.1801 34.1803C35.9707 32.3897 37.2899 30.1835 38.02 27.7587C38.75 25.3339 38.8682 22.7661 38.3638 20.2845C36.3329 19.1823 34.0504 18.6268 31.7401 18.6725C29.4298 18.7183 27.1711 19.3637 25.1853 20.5454C23.1996 21.7271 21.5552 23.4047 20.4131 25.4135C19.2711 27.4223 18.6708 29.6934 18.671 32.0042Z" fill="#FF3A44"/>
</svg>
