<svg width="56" height="56" viewBox="0 0 56 56" fill="none" xmlns="http://www.w3.org/2000/svg">
<path d="M18.2257 41.5333C20.2097 40.9321 21.3307 38.8363 20.7295 36.8522C20.1283 34.8682 18.0325 33.7472 16.0484 34.3484C14.0643 34.9496 12.9433 37.0454 13.5446 39.0295C14.1458 41.0136 16.2416 42.1346 18.2257 41.5333Z" fill="#FF3A44"/>
<path d="M38.6593 41.6997C40.7325 41.6997 42.4132 40.019 42.4132 37.9458C42.4132 35.8726 40.7325 34.1919 38.6593 34.1919C36.5861 34.1919 34.9054 35.8726 34.9054 37.9458C34.9054 40.019 36.5861 41.6997 38.6593 41.6997Z" fill="#FF3A44"/>
<path d="M47.4725 25.4958C46.3687 23.558 45.1124 21.711 43.7155 19.9724C43.0625 19.1646 42.2402 18.5099 41.3066 18.0545C40.3731 17.599 39.351 17.3539 38.3124 17.3365C37.0624 17.3162 35.8304 17.3045 34.9046 17.3045H34.8952C34.6994 16.3191 34.1894 15.4238 33.4418 14.7527C32.6941 14.0817 31.7491 13.6711 30.7483 13.5826C29.4007 13.4639 24.1156 13.3779 21.5843 13.3779C19.0531 13.3779 13.7719 13.4639 12.4203 13.5826C11.3337 13.6786 10.3155 14.1538 9.54413 14.9252C8.77279 15.6965 8.2975 16.7147 8.20156 17.8013C8.08594 19.149 8 22.9623 8 25.4927C8 28.0232 8.08594 31.8357 8.20547 33.1841C8.28681 34.1033 8.64002 34.9774 9.22009 35.6951C9.80015 36.4128 10.5808 36.9415 11.4625 37.2138C11.6435 35.8015 12.3451 34.5076 13.43 33.5854C14.5149 32.6633 15.9049 32.1792 17.3279 32.2281C18.7509 32.277 20.1044 32.8552 21.1235 33.8496C22.1425 34.844 22.7537 36.183 22.8374 37.6044C24.5327 37.5919 26.7335 37.5567 28.4335 37.5075C29.789 37.5497 31.4741 37.581 32.9538 37.5974C33.0414 36.1728 33.6587 34.8326 34.6844 33.8401C35.7101 32.8477 37.07 32.2748 38.4966 32.2342C39.9233 32.1935 41.3136 32.688 42.3941 33.6205C43.4746 34.553 44.1672 35.8559 44.3358 37.2731C45.2646 37.033 46.0962 36.5111 46.7163 35.7792C47.3364 35.0473 47.7147 34.1413 47.799 33.1857C47.9022 32.0232 47.9803 29.756 47.9998 27.5302C48.0063 26.8175 47.8244 26.1157 47.4725 25.4958ZM43.6686 26.6927H35.1702C35.1702 26.2724 35.1757 25.8685 35.1757 25.4927C35.1757 23.749 35.1343 21.3959 35.0702 19.6607C35.96 19.6607 37.1163 19.6732 38.2772 19.692C38.9709 19.7037 39.6536 19.8677 40.2769 20.1724C40.9002 20.4771 41.4489 20.915 41.8842 21.4552C42.8338 22.6352 43.7136 23.8696 44.5194 25.1521C44.6153 25.3042 44.6686 25.4792 44.6738 25.6588C44.6791 25.8385 44.636 26.0163 44.5491 26.1737C44.4622 26.3311 44.3346 26.4623 44.1798 26.5535C44.0249 26.6448 43.8484 26.6929 43.6686 26.6927Z" fill="#FF3A44"/>
</svg>
