<svg width="52" height="52" viewBox="0 0 52 52" fill="none" xmlns="http://www.w3.org/2000/svg">
<path d="M2 41.1581C2 42.4981 2.53233 43.7833 3.47988 44.7308C4.42743 45.6784 5.71259 46.2107 7.05263 46.2107C8.39267 46.2107 9.67783 45.6784 10.6254 44.7308C11.5729 43.7833 12.1053 42.4981 12.1053 41.1581C12.1053 39.8181 11.5729 38.5329 10.6254 37.5854C9.67783 36.6378 8.39267 36.1055 7.05263 36.1055C5.71259 36.1055 4.42743 36.6378 3.47988 37.5854C2.53233 38.5329 2 39.8181 2 41.1581Z" stroke="#0063A2" stroke-width="2.3" stroke-linecap="round" stroke-linejoin="round"/>
<path d="M32.3158 41.1581C32.3158 42.4981 32.8481 43.7833 33.7957 44.7308C34.7432 45.6784 36.0284 46.2107 37.3684 46.2107C38.7085 46.2107 39.9936 45.6784 40.9412 44.7308C41.8887 43.7833 42.4211 42.4981 42.4211 41.1581C42.4211 39.8181 41.8887 38.5329 40.9412 37.5854C39.9936 36.6378 38.7085 36.1055 37.3684 36.1055C36.0284 36.1055 34.7432 36.6378 33.7957 37.5854C32.8481 38.5329 32.3158 39.8181 32.3158 41.1581Z" stroke="#0063A2" stroke-width="2.3" stroke-linecap="round" stroke-linejoin="round"/>
<path d="M12.1052 43.6845H32.3158M42.421 43.6845H47.4736V28.5266M47.4736 28.5266C47.4736 25.1765 46.1428 21.9636 43.7739 19.5947C41.4051 17.2258 38.1922 15.895 34.8421 15.895H32.3158L36.1052 28.5266H47.4736Z" stroke="#0063A2" stroke-width="2.3" stroke-linecap="round" stroke-linejoin="round"/>
<path d="M24.7368 43.6845V15.895H32.3158" stroke="#0063A2" stroke-width="2.3" stroke-linecap="round" stroke-linejoin="round"/>
<path d="M2 41.1579V28.5264H24.7368" stroke="#0063A2" stroke-width="2.3" stroke-linecap="round" stroke-linejoin="round"/>
<path d="M4.52637 28.5264V13.3685L50 5.78955V10.8422" stroke="#0063A2" stroke-width="2.3" stroke-linecap="round" stroke-linejoin="round"/>
<path d="M14.6316 28.5265V18.4213L4.52637 13.3687" stroke="#0063A2" stroke-width="2.3" stroke-linecap="round" stroke-linejoin="round"/>
</svg>
