<svg width="52" height="52" viewBox="0 0 52 52" fill="none" xmlns="http://www.w3.org/2000/svg">
<path d="M21.1934 40.5914L9.96509 32.519" stroke="#0063A2" stroke-width="2" stroke-linecap="round" stroke-linejoin="round"/>
<path d="M15.364 26.3704L24.5935 33.2125" stroke="#0063A2" stroke-width="2" stroke-linecap="round" stroke-linejoin="round"/>
<path d="M2 25.7496C2 27.5256 2.70549 29.2288 3.96126 30.4845C5.21704 31.7403 6.92023 32.4458 8.69617 32.4458C10.4721 32.4458 12.1753 31.7403 13.4311 30.4845C14.6868 29.2288 15.3923 27.5256 15.3923 25.7496C15.3923 23.9737 14.6868 22.2705 13.4311 21.0147C12.1753 19.759 10.4721 19.0535 8.69617 19.0535C6.92023 19.0535 5.21704 19.759 3.96126 21.0147C2.70549 22.2705 2 23.9737 2 25.7496Z" stroke="#0063A2" stroke-width="2" stroke-linecap="round" stroke-linejoin="round"/>
<path d="M14.8296 23.0637L24.8513 13.304" stroke="#0063A2" stroke-width="2" stroke-linecap="round" stroke-linejoin="round"/>
<path d="M21.775 6.26685L8.29248 19.0666" stroke="#0063A2" stroke-width="2" stroke-linecap="round" stroke-linejoin="round"/>
<path d="M21.5774 8.04433C21.5774 9.59934 22.1951 11.0907 23.2947 12.1902C24.3942 13.2898 25.8856 13.9075 27.4406 13.9075C28.9956 13.9075 30.4869 13.2898 31.5865 12.1902C32.686 11.0907 33.3037 9.59934 33.3037 8.04433C33.3037 6.48932 32.686 4.99799 31.5865 3.89844C30.4869 2.79888 28.9956 2.18115 27.4406 2.18115C25.8856 2.18115 24.3942 2.79888 23.2947 3.89844C22.1951 4.99799 21.5774 6.48932 21.5774 8.04433Z" stroke="#0063A2" stroke-width="2" stroke-linecap="round" stroke-linejoin="round"/>
<path d="M32.8701 10.2598L38.1815 15.6936C38.7143 16.2377 39.0172 16.9659 39.0276 17.7273C39.038 18.4887 38.755 19.2249 38.2374 19.7834C37.9641 20.0776 37.6339 20.3133 37.2669 20.4761C36.8998 20.6388 36.5035 20.7254 36.102 20.7304C35.7004 20.7354 35.3021 20.6588 34.9311 20.5053C34.5601 20.3517 34.2241 20.1244 33.9436 19.8371L28.104 13.8708" stroke="#0063A2" stroke-width="2" stroke-linecap="round" stroke-linejoin="round"/>
<path d="M2.56055 49.8186H49.7923" stroke="#0063A2" stroke-width="2" stroke-linecap="round" stroke-linejoin="round"/>
<path d="M21.1931 44.6102V38.7664C21.2235 37.1292 21.8951 35.5693 23.0637 34.4223C24.2322 33.2752 25.8042 32.6326 27.4417 32.6326C29.0791 32.6326 30.6511 33.2752 31.8197 34.4223C32.9882 35.5693 33.6598 37.1292 33.6902 38.7664V44.52" stroke="#0063A2" stroke-width="2" stroke-linecap="round" stroke-linejoin="round"/>
<path d="M7.62256 25.3935C7.62256 25.5345 7.65032 25.6741 7.70427 25.8043C7.75822 25.9345 7.83729 26.0529 7.93696 26.1526C8.03664 26.2522 8.15498 26.3313 8.28522 26.3853C8.41545 26.4392 8.55504 26.467 8.69601 26.467C8.83697 26.467 8.97656 26.4392 9.1068 26.3853C9.23703 26.3313 9.35537 26.2522 9.45505 26.1526C9.55473 26.0529 9.6338 25.9345 9.68774 25.8043C9.74169 25.6741 9.76945 25.5345 9.76945 25.3935C9.76945 25.1088 9.65636 24.8358 9.45505 24.6345C9.25374 24.4332 8.9807 24.3201 8.69601 24.3201C8.41131 24.3201 8.13827 24.4332 7.93696 24.6345C7.73565 24.8358 7.62256 25.1088 7.62256 25.3935Z" stroke="#0063A2" stroke-width="2" stroke-linecap="round" stroke-linejoin="round"/>
<path d="M26.3669 38.7192C26.3669 39.0039 26.48 39.2769 26.6814 39.4782C26.8827 39.6796 27.1557 39.7926 27.4404 39.7926C27.7251 39.7926 27.9981 39.6796 28.1994 39.4782C28.4007 39.2769 28.5138 39.0039 28.5138 38.7192C28.5138 38.4345 28.4007 38.1615 28.1994 37.9602C27.9981 37.7589 27.7251 37.6458 27.4404 37.6458C27.1557 37.6458 26.8827 37.7589 26.6814 37.9602C26.48 38.1615 26.3669 38.4345 26.3669 38.7192Z" stroke="#0063A2" stroke-width="2" stroke-linecap="round" stroke-linejoin="round"/>
<path d="M19.9435 44.6101H34.8365C35.4059 44.6101 35.952 44.8363 36.3546 45.2389C36.7572 45.6415 36.9834 46.1876 36.9834 46.757V49.8185H17.7966V46.757C17.7966 46.1876 18.0228 45.6415 18.4254 45.2389C18.8281 44.8363 19.3741 44.6101 19.9435 44.6101Z" stroke="#0063A2" stroke-width="2" stroke-linecap="round" stroke-linejoin="round"/>
<path d="M37.593 15.0689C37.9999 14.5593 38.5784 14.2151 39.2204 14.1007C40.5368 13.8597 41.8901 13.911 43.1845 14.2508C44.4789 14.5907 45.6829 15.2107 46.7112 16.0672C47.7395 16.9237 48.5671 17.9957 49.1354 19.2073C49.7037 20.419 49.9988 21.7407 49.9999 23.079C49.9999 23.7907 49.7172 24.4733 49.2139 24.9766C48.7106 25.4799 48.0281 25.7626 47.3163 25.7626C46.6046 25.7626 45.922 25.4799 45.4187 24.9766C44.9154 24.4733 44.6327 23.7907 44.6327 23.079C44.6319 22.5259 44.5093 21.9798 44.2734 21.4795C44.0376 20.9792 43.6944 20.537 43.2682 20.1844C42.8421 19.8318 42.3434 19.5775 41.8078 19.4396C41.2722 19.3017 40.7127 19.2835 40.1693 19.3863C39.7596 19.4587 39.3387 19.436 38.9391 19.3198" stroke="#0063A2" stroke-width="2" stroke-linecap="round" stroke-linejoin="round"/>
<path d="M36.9964 20.473C37.087 20.9792 37.0304 21.5008 36.8332 21.9758C36.6156 22.4844 36.5128 23.0348 36.5323 23.5876C36.5517 24.1405 36.6929 24.6822 36.9457 25.1743C37.1985 25.6664 37.5567 26.0966 37.9948 26.4344C38.4329 26.7721 38.9402 27.0091 39.4803 27.1284C40.1756 27.2815 40.7815 27.7046 41.1648 28.3045C41.5481 28.9044 41.6774 29.632 41.5242 30.3272C41.371 31.0225 40.948 31.6284 40.348 32.0117C39.7481 32.395 39.0205 32.5243 38.3253 32.3711C37.0198 32.0816 35.7938 31.5088 34.734 30.6933C33.6742 29.8779 32.8064 28.8395 32.192 27.6518C31.5777 26.464 31.2317 25.1558 31.1786 23.8196C31.1255 22.4834 31.3665 21.1519 31.8846 19.9191C32.034 19.5571 32.2612 19.2324 32.5502 18.968" stroke="#0063A2" stroke-width="2" stroke-linecap="round" stroke-linejoin="round"/>
</svg>
