<svg width="52" height="52" viewBox="0 0 52 52" fill="none" xmlns="http://www.w3.org/2000/svg">
<path d="M21.9883 9.54932H19.4368C18.81 9.55117 18.1984 9.74226 17.682 10.0976C17.1657 10.453 16.7687 10.9559 16.543 11.5407L15.205 14.9946L10.5999 17.6083L6.92822 17.0482C6.31687 16.9653 5.69464 17.0659 5.14059 17.3373C4.58654 17.6088 4.12572 18.0389 3.81664 18.5729L2.57203 20.751C2.25309 21.2935 2.10615 21.9199 2.15059 22.5477C2.19503 23.1754 2.42877 23.7749 2.82095 24.2671L5.15463 27.1608V32.3883L2.88318 35.2821C2.491 35.7742 2.25726 36.3737 2.21282 37.0015C2.16838 37.6291 2.31532 38.2557 2.63426 38.7983L3.87889 40.9761C4.18796 41.5102 4.64879 41.9403 5.2028 42.2118C5.75685 42.4833 6.37912 42.5839 6.99047 42.5011L10.6622 41.941L15.205 44.5545L16.543 48.0085C16.7687 48.5931 17.1657 49.0963 17.682 49.4517C18.1984 49.8068 18.81 49.9981 19.4368 49.9999H22.0505C22.6773 49.9981 23.289 49.8068 23.8053 49.4517C24.3217 49.0963 24.7187 48.5931 24.9443 48.0085L26.2823 44.5545L30.8252 41.941L34.4969 42.5011C35.1082 42.5839 35.7305 42.4833 36.2845 42.2118C36.8386 41.9403 37.2996 41.5102 37.6086 40.9761L38.8531 38.7983C39.1721 38.2557 39.3188 37.6291 39.2746 37.0015C39.2301 36.3737 38.9965 35.7742 38.6043 35.2821L36.2705 32.3883V29.0178M14.4894 29.7746C14.4894 31.0054 14.8544 32.2086 15.5382 33.232C16.222 34.2554 17.1939 35.053 18.331 35.5241C19.4682 35.9951 20.7194 36.1183 21.9266 35.8782C23.1338 35.638 24.2427 35.0454 25.113 34.175C25.9833 33.3047 26.576 32.1958 26.8161 30.9887C27.0562 29.7815 26.933 28.5302 26.462 27.3931C25.991 26.2559 25.1933 25.284 24.17 24.6002C23.1466 23.9164 21.9434 23.5514 20.7125 23.5514C19.0621 23.5514 17.4792 24.2071 16.3121 25.3741C15.145 26.5412 14.4894 28.1241 14.4894 29.7746Z" stroke="#0063A2" stroke-width="2.3" stroke-linecap="round" stroke-linejoin="round"/>
<path d="M30.0874 13.1582C28.9471 12.9598 28.9471 11.3229 30.0874 11.1245C34.2185 10.4058 37.5042 7.2592 38.4008 3.16302L38.4695 2.84904C38.7165 1.72205 40.3209 1.71503 40.5775 2.83982L40.6611 3.20574C41.5911 7.2826 44.8775 10.4026 48.9974 11.1193C50.1435 11.3187 50.1435 12.964 48.9974 13.1634C44.8775 13.8801 41.5911 17.0001 40.6611 21.077L40.5775 21.4429C40.3209 22.5677 38.7165 22.5607 38.4695 21.4337L38.4008 21.1197C37.5042 17.0235 34.2185 13.8769 30.0874 13.1582Z" stroke="#0063A2" stroke-width="2.3" stroke-linecap="round" stroke-linejoin="round"/>
</svg>
