<svg width="52" height="52" viewBox="0 0 52 52" fill="none" xmlns="http://www.w3.org/2000/svg">
<path d="M19.4121 14.99V4.11719" stroke="#0063A2" stroke-width="2.3" stroke-miterlimit="10" stroke-linecap="round"/>
<path d="M32.4502 14.99V4.11719" stroke="#0063A2" stroke-width="2.3" stroke-miterlimit="10" stroke-linecap="round"/>
<path d="M17.2237 21.646H8.51636" stroke="#0063A2" stroke-width="2.3" stroke-miterlimit="10" stroke-linecap="round"/>
<path d="M43.3458 21.646H34.6384" stroke="#0063A2" stroke-width="2.3" stroke-miterlimit="10" stroke-linecap="round"/>
<path d="M45.5116 21.6461C45.5056 16.455 43.4407 11.4782 39.77 7.8075C36.0993 4.1368 31.1225 2.07195 25.9314 2.06592C20.7402 2.07195 15.7634 4.1368 12.0927 7.8075C8.42202 11.4782 6.35718 16.455 6.35114 21.6461C5.71701 21.6432 5.08997 21.7795 4.51431 22.0455C3.93865 22.3115 3.42843 22.7006 3.01969 23.1855C2.61095 23.6703 2.31367 24.239 2.14884 24.8513C1.98402 25.4637 1.95569 26.1048 2.06583 26.7293C2.28362 27.7703 2.85854 28.7024 3.69107 29.3643C4.52361 30.0261 5.56135 30.3761 6.62467 30.3535H45.3748C46.4382 30.3761 47.4759 30.0261 48.3084 29.3643C49.141 28.7024 49.7159 27.7703 49.9337 26.7293C50.0463 26.0932 50.0152 25.44 49.8427 24.8175C49.6702 24.195 49.3606 23.619 48.9366 23.1316C48.5126 22.6443 47.985 22.2579 47.3924 22.0009C46.7997 21.7439 46.1571 21.6227 45.5116 21.6461Z" stroke="#0063A2" stroke-width="2.3" stroke-miterlimit="10" stroke-linecap="round"/>
<path d="M8.51636 30.3537H43.3459V32.6331C43.3158 37.232 41.4678 41.6323 38.2051 44.8736C34.9425 48.1149 30.5301 49.934 25.9311 49.9339C21.3124 49.9339 16.8829 48.0992 13.617 44.8333C10.3511 41.5674 8.51636 37.1379 8.51636 32.5192V30.2397V30.3537Z" stroke="#0063A2" stroke-width="2.3" stroke-miterlimit="10" stroke-linecap="round"/>
</svg>
