<svg width="44" height="44" viewBox="0 0 44 44" fill="none" xmlns="http://www.w3.org/2000/svg">
<mask id="mask0_1083_2788" style="mask-type:luminance" maskUnits="userSpaceOnUse" x="0" y="0" width="44" height="44">
<path d="M0 0H44V44H0V0Z" fill="white"/>
</mask>
<g mask="url(#mask0_1083_2788)">
<path d="M38.1357 4.18572H5.86437C3.33747 4.18572 1.28906 6.23413 1.28906 8.76095V35.239C1.28906 37.7658 3.33747 39.8142 5.86437 39.8142H38.1357C40.6625 39.8142 42.7109 37.7658 42.7109 35.239V8.76095C42.7109 6.23413 40.6625 4.18572 38.1357 4.18572Z" stroke="#C5161D" stroke-width="3" stroke-miterlimit="10" stroke-linecap="round" stroke-linejoin="round"/>
<path d="M22 34.658V28.9274" stroke="#C5161D" stroke-width="3" stroke-miterlimit="10" stroke-linecap="round" stroke-linejoin="round"/>
<path d="M22 23.6707V9.34204" stroke="#C5161D" stroke-width="3" stroke-miterlimit="10" stroke-linecap="round" stroke-linejoin="round"/>
<path d="M10.7852 15.0718V9.34207" stroke="#C5161D" stroke-width="3" stroke-miterlimit="10" stroke-linecap="round" stroke-linejoin="round"/>
<path d="M10.7852 34.658V20.3285" stroke="#C5161D" stroke-width="3" stroke-miterlimit="10" stroke-linecap="round" stroke-linejoin="round"/>
<path d="M33.2148 34.658V20.3285" stroke="#C5161D" stroke-width="3" stroke-miterlimit="10" stroke-linecap="round" stroke-linejoin="round"/>
<path d="M33.2148 15.0718V9.34207" stroke="#C5161D" stroke-width="3" stroke-miterlimit="10" stroke-linecap="round" stroke-linejoin="round"/>
<path d="M24.6282 26.2993C24.6282 24.8477 23.4516 23.671 22 23.671C20.5484 23.671 19.3717 24.8477 19.3717 26.2993C19.3717 27.7508 20.5484 28.9275 22 28.9275C23.4516 28.9275 24.6282 27.7508 24.6282 26.2993Z" stroke="#C5161D" stroke-width="3" stroke-miterlimit="10" stroke-linecap="round" stroke-linejoin="round"/>
<path d="M13.4135 17.6999C13.4135 16.2483 12.2367 15.0717 10.7852 15.0717C9.33366 15.0717 8.15692 16.2483 8.15692 17.6999C8.15692 19.1515 9.33366 20.3281 10.7852 20.3281C12.2367 20.3281 13.4135 19.1515 13.4135 17.6999Z" stroke="#C5161D" stroke-width="3" stroke-miterlimit="10" stroke-linecap="round" stroke-linejoin="round"/>
<path d="M35.8431 17.6999C35.8431 19.1515 34.6665 20.3281 33.2149 20.3281C31.7633 20.3281 30.5867 19.1515 30.5867 17.6999C30.5867 16.2483 31.7633 15.0717 33.2149 15.0717C34.6665 15.0717 35.8431 16.2483 35.8431 17.6999Z" stroke="#C5161D" stroke-width="3" stroke-miterlimit="10" stroke-linecap="round" stroke-linejoin="round"/>
</g>
</svg>
