<svg width="45" height="45" viewBox="0 0 45 45" fill="none" xmlns="http://www.w3.org/2000/svg">
<path d="M12.1693 19.9272L19.3761 3.96941C20.1849 2.17845 22.0752 0.87457 23.8015 1.81352C24.3216 2.09641 24.8036 2.45163 25.2313 2.87256C26.4319 4.05403 27.1063 5.65645 27.1063 7.3273V10.7272C27.1063 13.4887 29.3449 15.7272 32.1063 15.7272H39.184C39.8026 15.7204 40.4153 15.8459 40.9798 16.0952C41.5442 16.3445 42.0468 16.7116 42.4527 17.171C42.8587 17.6305 43.1583 18.1713 43.3308 18.756C43.5033 19.3407 43.5445 19.9553 43.4517 20.5572L40.507 39.4571C40.3526 40.4586 39.8357 41.3715 39.0515 42.0275C38.2672 42.6835 37.2685 43.0385 36.2392 43.0271H12.1693M12.1693 19.9272V43.0271M12.1693 19.9272H5.76772C4.63585 19.9272 3.55034 20.3697 2.74999 21.1574C1.94963 21.945 1.5 23.0133 1.5 24.1272V38.8271C1.5 39.941 1.94963 41.0093 2.74999 41.7969C3.55034 42.5846 4.63585 43.0271 5.76772 43.0271H12.1693" stroke="#C5161D" stroke-width="3" stroke-linecap="round" stroke-linejoin="round"/>
</svg>
