<svg width="60" height="60" viewBox="0 0 60 60" fill="none" xmlns="http://www.w3.org/2000/svg">
<path d="M19.6693 27.8999L26.8761 11.9421C27.6849 10.1511 29.5752 8.84723 31.3015 9.78618C31.8216 10.0691 32.3036 10.4243 32.7313 10.8452C33.9319 12.0267 34.6063 13.6291 34.6063 15.3V18.6999C34.6063 21.4613 36.8449 23.6999 39.6063 23.6999H46.684C47.3026 23.693 47.9153 23.8186 48.4798 24.0679C49.0442 24.3172 49.5468 24.6842 49.9527 25.1437C50.3587 25.6031 50.6583 26.1439 50.8308 26.7286C51.0033 27.3133 51.0445 27.9279 50.9517 28.5299L48.007 47.4298C47.8526 48.4312 47.3357 49.3441 46.5515 50.0001C45.7672 50.6562 44.7685 51.0112 43.7392 50.9997H19.6693M19.6693 27.8999V50.9997M19.6693 27.8999H13.2677C12.1358 27.8999 11.0503 28.3424 10.25 29.13C9.44963 29.9177 9 30.9859 9 32.0999V46.7998C9 47.9137 9.44963 48.9819 10.25 49.7696C11.0503 50.5572 12.1358 50.9997 13.2677 50.9997H19.6693" stroke="#C5161D" stroke-width="3" stroke-linecap="round" stroke-linejoin="round"/>
</svg>
