<svg width="60" height="60" viewBox="0 0 60 60" fill="none" xmlns="http://www.w3.org/2000/svg">
<path d="M11.1 26.6751C11.1 19.96 11.1 16.6026 11.8928 15.4731C12.6855 14.3435 15.8424 13.2629 22.1563 11.1017L23.3592 10.6899C26.6505 9.5633 28.296 9 30 9C31.7039 9 33.3495 9.5633 36.6408 10.6899L37.8437 11.1017C44.1575 13.2629 47.3145 14.3435 48.1072 15.4731C48.9 16.6026 48.9 19.96 48.9 26.6751V29.9819C48.9 41.8217 39.9981 47.5675 34.4129 50.0073C32.898 50.669 32.1405 51 30 51C27.8594 51 27.102 50.669 25.587 50.0073C20.0018 47.5675 11.1 41.8217 11.1 29.9819V26.6751Z" stroke="#C5161D" stroke-width="3"/>
<path d="M24.7499 30.8399L27.75 34.1999L35.2499 25.7999" stroke="#C5161D" stroke-width="3" stroke-linecap="round" stroke-linejoin="round"/>
</svg>
