<svg width="20" height="20" viewBox="0 0 20 20" fill="none" xmlns="http://www.w3.org/2000/svg">
<path d="M0.75 9.76737C0.75 6.27889 0.75 4.53466 1.8337 3.45092C2.91741 2.36719 4.6616 2.36719 8.15 2.36719H11.85C15.3384 2.36719 17.0826 2.36719 18.1663 3.45092C19.25 4.53466 19.25 6.27889 19.25 9.76737V11.6174C19.25 15.1059 19.25 16.8502 18.1663 17.9338C17.0826 19.0176 15.3384 19.0176 11.85 19.0176H8.15C4.6616 19.0176 2.91741 19.0176 1.8337 17.9338C0.75 16.8502 0.75 15.1059 0.75 11.6174V9.76737Z" stroke="#FF3A44" stroke-width="1.5"/>
<path d="M5.375 2.368V0.980469" stroke="#FF3A44" stroke-width="1.5" stroke-linecap="round"/>
<path d="M14.625 2.368V0.980469" stroke="#FF3A44" stroke-width="1.5" stroke-linecap="round"/>
<path d="M7.2258 12.0809L8.6133 10.6934V14.3935" stroke="#FF3A44" stroke-width="1.5" stroke-linecap="round" stroke-linejoin="round"/>
<path d="M10.9254 13.4684V11.6184C10.9254 11.1075 11.3395 10.6934 11.8504 10.6934C12.3613 10.6934 12.7754 11.1075 12.7754 11.6184V13.4684C12.7754 13.9793 12.3613 14.3935 11.8504 14.3935C11.3395 14.3935 10.9254 13.9793 10.9254 13.4684Z" stroke="#FF3A44" stroke-width="1.5" stroke-linecap="round"/>
<path d="M1.2117 6.99219H18.7867" stroke="#FF3A44" stroke-width="1.5" stroke-linecap="round"/>
</svg>
