<svg width="20" height="20" viewBox="0 0 20 20" fill="none" xmlns="http://www.w3.org/2000/svg">
<path d="M3.2 9.15065L2.78765 9.25375C2.03085 9.44295 1.5 10.1229 1.5 10.903V12.4984C1.5 13.2785 2.03085 13.9583 2.78765 14.1476L4.26628 14.5172C4.58819 14.5977 4.9 14.3543 4.9 14.0224V9.37893C4.9 9.04707 4.58819 8.80364 4.26628 8.88413L3.2 9.15065ZM3.2 9.15065V8.72586C3.2 4.9703 6.24444 1.92578 10 1.92578C13.7556 1.92578 16.8 4.9703 16.8 8.72586V9.15065M16.8 9.15065L17.2124 9.25375C17.9691 9.44295 18.5 10.1229 18.5 10.903V12.4984C18.5 13.2785 17.9692 13.9583 17.2124 14.1476L16.8 14.2507M16.8 9.15065L15.7337 8.88413C15.4118 8.80364 15.1 9.04707 15.1 9.37893V14.0224C15.1 14.3543 15.4118 14.5977 15.7337 14.5172L16.8 14.2507M16.8 14.2507V15.1008C16.8 16.0398 16.0389 16.8008 15.1 16.8008H12.55M12.55 16.8008C12.55 16.0967 11.9792 15.5259 11.275 15.5259H8.72502C8.02082 15.5259 7.44996 16.0967 7.44996 16.8008C7.44996 17.505 8.02082 18.0759 8.72502 18.0759H11.275C11.9792 18.0759 12.55 17.505 12.55 16.8008Z" stroke="#FF3A44" stroke-width="1.5"/>
</svg>
