<svg width="20" height="20" viewBox="0 0 20 20" fill="none" xmlns="http://www.w3.org/2000/svg">
<path d="M1.4994 4.89903C1.4994 5.80077 1.85762 6.66557 2.49524 7.3032C3.13287 7.94082 3.99767 8.29904 4.89941 8.29904C5.80115 8.29904 6.66596 7.94082 7.30358 7.3032C7.94121 6.66557 8.29942 5.80077 8.29942 4.89903C8.29942 3.99729 7.94121 3.13249 7.30358 2.49486C6.66596 1.85724 5.80115 1.49902 4.89941 1.49902C3.99767 1.49902 3.13287 1.85724 2.49524 2.49486C1.85762 3.13249 1.4994 3.99729 1.4994 4.89903Z" stroke="#FF3A44" stroke-width="1.5"/>
<path d="M11.701 4.89903C11.701 5.80077 12.0592 6.66557 12.6968 7.3032C13.3345 7.94082 14.1993 8.29904 15.101 8.29904C16.0027 8.29904 16.8676 7.94082 17.5052 7.3032C18.1428 6.66557 18.501 5.80077 18.501 4.89903C18.501 3.99729 18.1428 3.13249 17.5052 2.49486C16.8676 1.85724 16.0027 1.49902 15.101 1.49902C14.1993 1.49902 13.3345 1.85724 12.6968 2.49486C12.0592 3.13249 11.701 3.99729 11.701 4.89903Z" stroke="#FF3A44" stroke-width="1.5"/>
<path d="M1.4994 15.1002C1.4994 16.0019 1.85762 16.8667 2.49524 17.5044C3.13287 18.142 3.99767 18.5002 4.89941 18.5002C5.80115 18.5002 6.66596 18.142 7.30358 17.5044C7.94121 16.8667 8.29942 16.0019 8.29942 15.1002C8.29942 14.1985 7.94121 13.3337 7.30358 12.696C6.66596 12.0584 5.80115 11.7002 4.89941 11.7002C3.99767 11.7002 3.13287 12.0584 2.49524 12.696C1.85762 13.3337 1.4994 14.1985 1.4994 15.1002Z" stroke="#FF3A44" stroke-width="1.5"/>
<path d="M11.701 15.1002C11.701 16.0019 12.0592 16.8667 12.6968 17.5044C13.3345 18.142 14.1993 18.5002 15.101 18.5002C16.0027 18.5002 16.8676 18.142 17.5052 17.5044C18.1428 16.8667 18.501 16.0019 18.501 15.1002C18.501 14.1985 18.1428 13.3337 17.5052 12.696C16.8676 12.0584 16.0027 11.7002 15.101 11.7002C14.1993 11.7002 13.3345 12.0584 12.6968 12.696C12.0592 13.3337 11.701 14.1985 11.701 15.1002Z" stroke="#FF3A44" stroke-width="1.5"/>
</svg>
