<svg width="21" height="20" viewBox="0 0 21 20" fill="none" xmlns="http://www.w3.org/2000/svg">
<path d="M4.64962 6.10156H8.54961" stroke="#FF3A44" stroke-width="1.5" stroke-linecap="round" stroke-linejoin="round"/>
<path d="M19.1117 7.07617H16.5743C14.8346 7.07617 13.4242 8.38564 13.4242 10.0011C13.4242 11.6165 14.8346 12.9259 16.5743 12.9259H19.1117C19.193 12.9259 19.2336 12.9259 19.2679 12.9239C19.7937 12.8918 20.2125 12.503 20.247 12.0147C20.2492 11.9829 20.2492 11.9451 20.2492 11.8698V8.13235C20.2492 8.05698 20.2492 8.01921 20.247 7.98737C20.2125 7.49915 19.7937 7.11026 19.2679 7.07826C19.2336 7.07617 19.193 7.07617 19.1117 7.07617Z" stroke="#FF3A44" stroke-width="1.5"/>
<path d="M19.2408 7.07598C19.1651 5.25056 18.9206 4.13135 18.1326 3.34341C16.9904 2.20117 15.1519 2.20117 11.475 2.20117H8.54998C4.87303 2.20117 3.03456 2.20117 1.89228 3.34341C0.75 4.48565 0.75 6.32405 0.75 10.0009C0.75 13.6776 0.75 15.5161 1.89228 16.6583C3.03456 17.8005 4.87303 17.8005 8.54998 17.8005H11.475C15.1519 17.8005 16.9904 17.8005 18.1326 16.6583C18.9206 15.8704 19.1651 14.7512 19.2408 12.9257" stroke="#FF3A44" stroke-width="1.5"/>
<path d="M16.3401 10H16.3491" stroke="#FF3A44" stroke-width="1.5" stroke-linecap="round" stroke-linejoin="round"/>
</svg>
