<svg width="21" height="21" viewBox="0 0 21 21" fill="none" xmlns="http://www.w3.org/2000/svg">
<path d="M19.2268 12.6727L12.7837 19.1167L9.61708 19.75L10.2504 16.5833L16.6935 10.1393C17.0285 9.80444 17.4829 9.61621 17.9567 9.61621C18.4305 9.61621 18.8849 9.80444 19.22 10.1393L19.2268 10.1469C19.3928 10.3127 19.5245 10.5096 19.6144 10.7262C19.7043 10.9429 19.7506 11.1752 19.7506 11.4098C19.7506 11.6444 19.7043 11.8767 19.6144 12.0935C19.5245 12.3102 19.3928 12.507 19.2268 12.6727Z" stroke="#FF3A44" stroke-width="1.5" stroke-linecap="round" stroke-linejoin="round"/>
<path d="M2.96626 4.23335C2.96626 5.1572 3.33325 6.0432 3.98649 6.69646C4.63973 7.34971 5.52572 7.71671 6.44955 7.71671C7.37338 7.71671 8.25937 7.34971 8.9126 6.69646C9.56586 6.0432 9.93285 5.1572 9.93285 4.23335C9.93285 3.30951 9.56586 2.4235 8.9126 1.77025C8.25937 1.117 7.37338 0.75 6.44955 0.75C5.52572 0.75 4.63973 1.117 3.98649 1.77025C3.33325 2.4235 2.96626 3.30951 2.96626 4.23335Z" stroke="#FF3A44" stroke-width="1.5" stroke-linecap="round" stroke-linejoin="round"/>
<path d="M11.3798 11.8712C10.7616 10.7767 9.79792 9.91802 8.63961 9.42967C7.48134 8.94141 6.19382 8.85089 4.97863 9.17246C3.76344 9.49402 2.68916 10.2095 1.924 11.2068C1.15883 12.2041 0.745967 13.427 0.75003 14.6841" stroke="#FF3A44" stroke-width="1.5" stroke-linecap="round" stroke-linejoin="round"/>
</svg>
