<svg width="20" height="20" viewBox="0 0 20 20" fill="none" xmlns="http://www.w3.org/2000/svg">
<path d="M11.1738 9.99805H18.9998" stroke="#FF3A44" stroke-width="1.5" stroke-miterlimit="10" stroke-linecap="round" stroke-linejoin="round"/>
<path d="M15.8693 6.86914L18.9996 9.9995L15.8693 13.1299" stroke="#FF3A44" stroke-width="1.5" stroke-miterlimit="10" stroke-linecap="round" stroke-linejoin="round"/>
<path d="M6.6726 9.41145C6.34853 9.08716 5.8229 9.08707 5.49872 9.41125C5.17461 9.73536 5.17461 10.2608 5.49872 10.585C5.8229 10.9091 6.34853 10.909 6.6726 10.5848C6.99645 10.2607 6.99645 9.73551 6.6726 9.41145Z" stroke="#FF3A44" stroke-width="1.5" stroke-miterlimit="10" stroke-linecap="round" stroke-linejoin="round"/>
<path d="M13.5232 12.3457V14.0412C13.5232 15.6981 12.1801 17.0412 10.5232 17.0412H8.82765" stroke="#FF3A44" stroke-width="1.5" stroke-miterlimit="10" stroke-linecap="round" stroke-linejoin="round"/>
<path d="M8.82765 2.95703H10.5232C12.1801 2.95703 13.5232 4.30018 13.5232 5.95703V7.65258" stroke="#FF3A44" stroke-width="1.5" stroke-miterlimit="10" stroke-linecap="round" stroke-linejoin="round"/>
<path d="M8.82619 14.9482C8.82619 16.8414 7.09422 18.2612 5.23784 17.89L3.41186 17.5248C2.00959 17.2443 1.00021 16.0131 1.00021 14.583V5.41522C1.00021 3.98518 2.00959 2.75393 3.41186 2.47348L5.23784 2.10829C7.09421 1.73702 8.82619 3.15689 8.82619 5.05003V14.9482Z" stroke="#FF3A44" stroke-width="1.5" stroke-miterlimit="10" stroke-linecap="round" stroke-linejoin="round"/>
</svg>
