<svg width="20" height="20" viewBox="0 0 20 20" fill="none" xmlns="http://www.w3.org/2000/svg">
<path d="M2.35001 9.09961V11.7996C2.35001 15.1937 2.35001 16.8908 3.40443 17.9452C4.45887 18.9996 6.15594 18.9996 9.55009 18.9996H10.4501C13.8442 18.9996 15.5414 18.9996 16.5957 17.9452C17.6502 16.8908 17.6502 15.1937 17.6502 11.7996V9.09961" stroke="#FF3A44" stroke-width="1.5"/>
<path d="M7.74989 1H12.2499L12.8365 6.86563C13.0043 8.5438 11.6864 9.99999 9.99991 9.99999C8.31338 9.99999 6.9955 8.5438 7.16332 6.86563L7.74989 1Z" stroke="#FF3A44" stroke-width="1.5"/>
<path d="M2.19686 4.0162C2.35713 3.21484 2.43727 2.81416 2.6002 2.48936C2.94353 1.80495 3.56131 1.29851 4.29976 1.09607C4.65021 1 5.05882 1 5.87606 1H7.75016L7.09808 7.52074C6.95733 8.92819 5.77298 9.99999 4.3585 9.99999C2.62108 9.99999 1.31799 8.41051 1.65872 6.70683L2.19686 4.0162Z" stroke="#FF3A44" stroke-width="1.5"/>
<path d="M17.8027 4.0162C17.6424 3.21484 17.5622 2.81416 17.3993 2.48936C17.056 1.80495 16.4382 1.29851 15.6998 1.09607C15.3493 1 14.9407 1 14.1235 1H12.2494L12.9014 7.52074C13.0422 8.92819 14.2265 9.99999 15.6411 9.99999C17.3784 9.99999 18.6816 8.41051 18.3408 6.70683L17.8027 4.0162Z" stroke="#FF3A44" stroke-width="1.5"/>
<path d="M7.74933 18.5496V15.8496C7.74933 15.0085 7.74933 14.5879 7.9302 14.2746C8.04868 14.0694 8.21914 13.8989 8.42434 13.7805C8.73763 13.5996 9.15821 13.5996 9.99936 13.5996C10.8405 13.5996 11.2611 13.5996 11.5744 13.7805C11.7796 13.8989 11.95 14.0694 12.0685 14.2746C12.2494 14.5879 12.2494 15.0085 12.2494 15.8496V18.5496" stroke="#FF3A44" stroke-width="1.5" stroke-linecap="round"/>
</svg>
