<svg width="20" height="20" viewBox="0 0 20 20" fill="none" xmlns="http://www.w3.org/2000/svg">
<path d="M15.737 8.05314V7.45423C15.737 4.1658 13.1684 1.5 10 1.5C6.83153 1.5 4.26298 4.1658 4.26298 7.45423V8.05314C4.26298 8.77192 4.05799 9.47453 3.67384 10.0726L2.73247 11.5381C1.87262 12.8767 2.52905 14.6962 4.02453 15.1195C7.93673 16.2269 12.0633 16.2269 15.9754 15.1195C17.471 14.6962 18.1274 12.8767 17.2675 11.5381L16.3262 10.0726C15.942 9.47453 15.737 8.77192 15.737 8.05314Z" stroke="#FF3A44" stroke-width="1.5"/>
<path d="M6.17548 15.9512C6.73228 17.4368 8.23467 18.5012 10.0007 18.5012C11.7666 18.5012 13.2691 17.4368 13.8258 15.9512" stroke="#FF3A44" stroke-width="1.5" stroke-linecap="round"/>
</svg>
