<svg width="20" height="20" viewBox="0 0 20 20" fill="none" xmlns="http://www.w3.org/2000/svg">
<path d="M8.76933 2.68127C8.89996 2.47276 9.08141 2.30085 9.29667 2.18168C9.51194 2.06252 9.75395 2 9.99999 2C10.246 2 10.4881 2.06252 10.7033 2.18168C10.9186 2.30085 11.1 2.47276 11.2307 2.68127L13.6181 6.45939L16.7318 6.8409C16.9899 6.86975 17.2354 6.96854 17.4416 7.12659C17.6478 7.28466 17.8071 7.496 17.9021 7.73786C17.9969 7.97972 18.0242 8.24291 17.9805 8.49907C17.937 8.75522 17.8244 8.99462 17.6548 9.19147L15.058 12.1697L15.8949 16.2924C15.9474 16.5613 15.9219 16.8397 15.8217 17.0948C15.7213 17.3498 15.5503 17.571 15.3287 17.7323C15.1044 17.8906 14.84 17.9825 14.5659 17.9977C14.2917 18.013 14.0187 17.9509 13.7781 17.8184L9.99999 15.7508L6.22187 17.8184C5.98132 17.9509 5.70838 18.013 5.4342 17.9977C5.16001 17.9825 4.89563 17.8906 4.67124 17.7323C4.44963 17.571 4.27865 17.3498 4.17837 17.0948C4.07808 16.8397 4.05269 16.5613 4.10514 16.2924L4.94198 12.1697L2.34529 9.19147C2.17569 8.99462 2.06303 8.75522 2.01945 8.49907C1.97587 8.24291 2.00303 7.97972 2.098 7.73786C2.19297 7.496 2.35215 7.28466 2.55837 7.12659C2.76461 6.96854 3.01006 6.86975 3.26829 6.8409L6.38186 6.45939L8.76933 2.68127Z" fill="#FFA400" stroke="#FFA400" stroke-width="2.3" stroke-linecap="round" stroke-linejoin="round"/>
</svg>
