<svg width="21" height="20" viewBox="0 0 21 20" fill="none" xmlns="http://www.w3.org/2000/svg">
<path d="M17.325 17.7992V11.9492M17.325 11.9492L19.275 13.8992M17.325 11.9492L15.375 13.8992" stroke="#FF3A44" stroke-width="1.5" stroke-linecap="round" stroke-linejoin="round"/>
<path d="M20.25 9.99922C20.25 6.32226 20.25 4.48379 19.1077 3.3415C17.9655 2.19922 16.1269 2.19922 12.45 2.19922H8.55C4.87304 2.19922 3.03457 2.19922 1.89228 3.3415C0.75 4.48379 0.75 6.32226 0.75 9.99922C0.75 13.6761 0.75 15.5147 1.89228 16.6569C3.03457 17.7992 4.87304 17.7992 8.55 17.7992H12.45" stroke="#FF3A44" stroke-width="1.5" stroke-linecap="round"/>
<path d="M8.54963 13.9004H4.64963" stroke="#FF3A44" stroke-width="1.5" stroke-linecap="round"/>
<path d="M11.4743 13.9004H10.9868" stroke="#FF3A44" stroke-width="1.5" stroke-linecap="round"/>
<path d="M0.75 8.04883H20.25" stroke="#FF3A44" stroke-width="1.5" stroke-linecap="round"/>
</svg>
