<svg width="36" height="36" viewBox="0 0 36 36" fill="none" xmlns="http://www.w3.org/2000/svg">
<path d="M27.2905 24.4609H27.4355C28.238 24.4609 28.9742 24.9072 29.3453 25.6191L31.8508 30.4245C32.2247 31.1415 31.7046 31.9994 30.896 31.9994H5.10412C4.29902 31.9994 3.7786 31.1482 4.14554 30.4316L6.60268 25.6331C6.97111 24.9137 7.71143 24.4609 8.51979 24.4609H8.65973" stroke="black" stroke-width="2.3" stroke-linecap="round" stroke-linejoin="round"/>
<path d="M18.133 4H17.8798C12.6113 4 8.23865 8.0715 7.8633 13.3265C7.68042 15.8869 8.25821 18.4848 9.81341 20.527C11.7573 23.0795 13.731 24.846 16.8503 26.9359C17.549 27.4039 18.4638 27.4039 19.1625 26.9359C22.2819 24.846 24.2555 23.0795 26.1995 20.527C27.7546 18.4848 28.3324 15.8869 28.1496 13.3265C27.7742 8.0715 23.4014 4 18.133 4Z" stroke="black" stroke-width="2.3" stroke-linecap="round" stroke-linejoin="round"/>
<path d="M18.0068 16.9225C20.0745 16.9225 21.2375 15.7594 21.2375 13.6917C21.2375 11.624 20.0745 10.4609 18.0068 10.4609C15.9391 10.4609 14.776 11.624 14.776 13.6917C14.776 15.7594 15.9391 16.9225 18.0068 16.9225Z" stroke="black" stroke-width="2.3" stroke-linecap="round" stroke-linejoin="round"/>
</svg>
