<svg width="36" height="36" viewBox="0 0 36 36" fill="none" xmlns="http://www.w3.org/2000/svg">
<path d="M15.8463 5.19222C16.0749 4.82732 16.3925 4.52649 16.7692 4.31794C17.1459 4.1094 17.5694 4 18 4C18.4306 4 18.8541 4.1094 19.2308 4.31794C19.6075 4.52649 19.9251 4.82732 20.1537 5.19222L24.3318 11.8039L29.7806 12.4716C30.2324 12.5221 30.662 12.6949 31.0229 12.9715C31.3837 13.2482 31.6624 13.618 31.8286 14.0413C31.9946 14.4645 32.0423 14.9251 31.9659 15.3734C31.8898 15.8216 31.6926 16.2406 31.3958 16.5851L26.8515 21.7969L28.3161 29.0117C28.4079 29.4823 28.3633 29.9695 28.1879 30.4159C28.0123 30.8622 27.713 31.2492 27.3253 31.5315C26.9326 31.8086 26.4701 31.9694 25.9903 31.996C25.5104 32.0227 25.0327 31.9141 24.6117 31.6822L18 28.0639L11.3883 31.6822C10.9673 31.9141 10.4897 32.0227 10.0098 31.996C9.53002 31.9694 9.06737 31.8086 8.67467 31.5315C8.28686 31.2492 7.98764 30.8622 7.81216 30.4159C7.63665 29.9695 7.59221 29.4823 7.684 29.0117L9.14848 21.7969L4.60426 16.5851C4.30746 16.2406 4.1103 15.8216 4.03404 15.3734C3.95778 14.9251 4.00531 14.4645 4.17151 14.0413C4.33771 13.618 4.61627 13.2482 4.97716 12.9715C5.33807 12.6949 5.76761 12.5221 6.21951 12.4716L11.6683 11.8039L15.8463 5.19222Z" fill="#FFA400" stroke="#FFA400" stroke-width="2.3" stroke-linecap="round" stroke-linejoin="round"/>
</svg>
