<svg width="36" height="36" viewBox="0 0 36 36" fill="none" xmlns="http://www.w3.org/2000/svg">
<path d="M3.64105 17.6413C3.64105 12.2263 3.64105 9.51878 5.32331 7.83653C7.00558 6.1543 9.71312 6.1543 15.1282 6.1543H20.8718C26.2869 6.1543 28.9945 6.1543 30.6767 7.83653C32.359 9.51878 32.359 12.2263 32.359 17.6413V20.5131C32.359 25.9281 32.359 28.6357 30.6767 30.3179C28.9945 32.0001 26.2869 32.0001 20.8718 32.0001H15.1282C9.71312 32.0001 7.00558 32.0001 5.32331 30.3179C3.64105 28.6357 3.64105 25.9281 3.64105 20.5131V17.6413Z" stroke="black" stroke-width="2.3"/>
<path d="M10.8205 6.15382V4" stroke="black" stroke-width="2.3" stroke-linecap="round"/>
<path d="M25.1794 6.15382V4" stroke="black" stroke-width="2.3" stroke-linecap="round"/>
<path d="M4.35968 13.334H31.6417" stroke="black" stroke-width="2.3" stroke-linecap="round"/>
<path d="M26.6156 24.8206C26.6156 25.6137 25.9728 26.2565 25.1797 26.2565C24.3867 26.2565 23.7438 25.6137 23.7438 24.8206C23.7438 24.0276 24.3867 23.3848 25.1797 23.3848C25.9728 23.3848 26.6156 24.0276 26.6156 24.8206Z" fill="black"/>
<path d="M26.6156 19.0765C26.6156 19.8695 25.9728 20.5124 25.1797 20.5124C24.3867 20.5124 23.7438 19.8695 23.7438 19.0765C23.7438 18.2835 24.3867 17.6406 25.1797 17.6406C25.9728 17.6406 26.6156 18.2835 26.6156 19.0765Z" fill="black"/>
<path d="M19.4362 24.8206C19.4362 25.6137 18.7933 26.2565 18.0003 26.2565C17.2072 26.2565 16.5644 25.6137 16.5644 24.8206C16.5644 24.0276 17.2072 23.3848 18.0003 23.3848C18.7933 23.3848 19.4362 24.0276 19.4362 24.8206Z" fill="black"/>
<path d="M19.4362 19.0765C19.4362 19.8695 18.7933 20.5124 18.0003 20.5124C17.2072 20.5124 16.5644 19.8695 16.5644 19.0765C16.5644 18.2835 17.2072 17.6406 18.0003 17.6406C18.7933 17.6406 19.4362 18.2835 19.4362 19.0765Z" fill="black"/>
<path d="M12.2567 24.8206C12.2567 25.6137 11.6139 26.2565 10.8208 26.2565C10.0278 26.2565 9.38495 25.6137 9.38495 24.8206C9.38495 24.0276 10.0278 23.3848 10.8208 23.3848C11.6139 23.3848 12.2567 24.0276 12.2567 24.8206Z" fill="black"/>
<path d="M12.2567 19.0765C12.2567 19.8695 11.6139 20.5124 10.8208 20.5124C10.0278 20.5124 9.38495 19.8695 9.38495 19.0765C9.38495 18.2835 10.0278 17.6406 10.8208 17.6406C11.6139 17.6406 12.2567 18.2835 12.2567 19.0765Z" fill="black"/>
</svg>
