<svg width="40" height="40" viewBox="0 0 40 40" fill="none" xmlns="http://www.w3.org/2000/svg">
<rect x="0.5" y="0.5" width="39" height="39" rx="3.5" fill="white"/>
<rect x="0.5" y="0.5" width="39" height="39" rx="3.5" stroke="#F0EFEF"/>
<path d="M28.9999 21.7981C28.9739 24.8707 28.8032 26.5646 27.6863 27.6817C26.3679 29 24.2461 29 20.0024 29C15.7587 29 13.6369 29 12.3186 27.6817C11.0002 26.3633 11.0002 24.2414 11.0002 19.9977C11.0002 15.7539 11.0002 13.632 12.3186 12.3137C13.4356 11.1966 15.1294 11.0261 18.202 11" stroke="#686262" stroke-width="2" stroke-linecap="round"/>
<path d="M29.0003 15.5H21.8004C20.1646 15.5 19.1785 16.3028 18.8129 16.6703C18.6996 16.7841 18.643 16.841 18.6422 16.8417C18.6415 16.8425 18.5845 16.8991 18.4708 17.0124C18.1033 17.378 17.3005 18.3642 17.3005 20V22.7M29.0003 15.5L24.5004 11M29.0003 15.5L24.5004 20" stroke="#686262" stroke-width="2" stroke-linecap="round" stroke-linejoin="round"/>
</svg>
