<svg width="40" height="40" viewBox="0 0 40 40" fill="none" xmlns="http://www.w3.org/2000/svg">
<path d="M32.6525 15.2601C32.5383 15.1492 32.4474 15.0165 32.3851 14.87C32.3228 14.7234 32.2904 14.5659 32.2898 14.4067V11.0355C32.2887 10.1531 31.9377 9.30709 31.3137 8.68311C30.6897 8.05913 29.8437 7.70811 28.9613 7.70704H25.5901C25.4309 7.70635 25.2734 7.67391 25.1269 7.61163C24.9803 7.54935 24.8477 7.45848 24.7367 7.34432L22.3683 4.97597C21.7386 4.35082 20.8873 4 20 4C19.1127 4 18.2613 4.35082 17.6316 4.97597L15.2633 7.34432C15.1523 7.45848 15.0196 7.54935 14.8731 7.61163C14.7265 7.67391 14.5691 7.70635 14.4098 7.70704H11.0387C10.1562 7.70811 9.31025 8.05913 8.68627 8.68311C8.06229 9.30709 7.71126 10.1531 7.71019 11.0355V14.4067C7.70956 14.5659 7.67716 14.7234 7.61487 14.87C7.55259 15.0165 7.46168 15.1492 7.34747 15.2601L4.97913 17.6285C4.35377 18.2581 4.00281 19.1094 4.00281 19.9968C4.00281 20.8842 4.35377 21.7356 4.97913 22.3652L7.34747 24.7335C7.46168 24.8445 7.55259 24.9771 7.61487 25.1237C7.67716 25.2702 7.70956 25.4277 7.71019 25.587V28.9581C7.71126 29.8405 8.06229 30.6865 8.68627 31.3105C9.31025 31.9345 10.1562 32.2855 11.0387 32.2866H14.4098C14.5691 32.2873 14.7265 32.3197 14.8731 32.382C15.0196 32.4443 15.1523 32.5352 15.2633 32.6493L17.6316 35.0177C17.9426 35.3288 18.3118 35.5757 18.7181 35.7441C19.1245 35.9125 19.5601 35.9992 20 35.9992C20.4399 35.9992 20.8754 35.9125 21.2818 35.7441C21.6882 35.5757 22.0574 35.3288 22.3683 35.0177L24.7367 32.6493C24.8477 32.5352 24.9803 32.4443 25.1269 32.382C25.2734 32.3197 25.4309 32.2873 25.5901 32.2866H28.9613C29.8437 32.2855 30.6897 31.9345 31.3137 31.3105C31.9377 30.6865 32.2887 29.8405 32.2898 28.9581V25.587C32.2904 25.4277 32.3228 25.2702 32.3851 25.1237C32.4474 24.9771 32.5383 24.8445 32.6525 24.7335L35.0208 22.3652C35.6462 21.7356 35.9971 20.8842 35.9971 19.9968C35.9971 19.1094 35.6462 18.2581 35.0208 17.6285L32.6525 15.2601ZM25.014 17.9058L19.3385 23.6027C19.1332 23.7949 18.8624 23.9018 18.5811 23.9018C18.2998 23.9018 18.029 23.7949 17.8237 23.6027L14.9859 20.7436C14.7911 20.5449 14.6827 20.2773 14.6841 19.999C14.6855 19.7208 14.7967 19.4543 14.9934 19.2575C15.1902 19.0608 15.4566 18.9496 15.7349 18.9482C16.0132 18.9468 16.2807 19.0553 16.4795 19.25L18.5704 21.341L23.5205 16.391C23.7202 16.196 23.9882 16.0869 24.2673 16.0869C24.5463 16.0869 24.8143 16.196 25.014 16.391C25.1154 16.4894 25.1959 16.6071 25.2509 16.7372C25.3059 16.8673 25.3342 17.0071 25.3342 17.1484C25.3342 17.2897 25.3059 17.4295 25.2509 17.5596C25.1959 17.6897 25.1154 17.8074 25.014 17.9058Z" fill="#3EC300"/>
<path d="M32.6526 15.2605C32.5384 15.1496 32.4475 15.0169 32.3852 14.8704C32.3229 14.7238 32.2905 14.5663 32.2899 14.4071V11.0359C32.2888 10.1535 31.9378 9.30748 31.3138 8.6835C30.6898 8.05952 29.8439 7.7085 28.9614 7.70743H25.5903C25.431 7.70674 25.2735 7.67431 25.127 7.61203C24.9805 7.54975 24.8478 7.45887 24.7368 7.34471L22.3685 4.97637C22.0574 4.66575 21.6881 4.4196 21.2816 4.25206C20.8752 4.08451 20.4397 3.99886 20.0001 4.00001V19.9119L23.5206 16.3914C23.7203 16.1964 23.9883 16.0873 24.2674 16.0873C24.5465 16.0873 24.8145 16.1964 25.0142 16.3914C25.1155 16.4898 25.1961 16.6075 25.2511 16.7376C25.3061 16.8677 25.3344 17.0075 25.3344 17.1488C25.3344 17.29 25.3061 17.4299 25.2511 17.56C25.1961 17.6901 25.1155 17.8078 25.0142 17.9062L20.0001 22.9393V35.9995C20.4402 36.0007 20.8761 35.9146 21.2826 35.7461C21.6892 35.5776 22.0582 35.3302 22.3685 35.018L24.7368 32.6497C24.8478 32.5355 24.9805 32.4447 25.127 32.3824C25.2735 32.3201 25.431 32.2877 25.5903 32.287H28.9614C29.8439 32.2859 30.6898 31.9349 31.3138 31.3109C31.9378 30.6869 32.2888 29.8409 32.2899 28.9585V25.5873C32.2905 25.4281 32.3229 25.2706 32.3852 25.1241C32.4475 24.9775 32.5384 24.8449 32.6526 24.7339L35.021 22.3655C35.6463 21.736 35.9973 20.8846 35.9973 19.9972C35.9973 19.1098 35.6463 18.2585 35.021 17.6289L32.6526 15.2605Z" fill="#3EC300"/>
</svg>
