<svg width="189" height="56" viewBox="0 0 189 56" fill="none" xmlns="http://www.w3.org/2000/svg">
<path d="M187.746 49.3885C187.746 50.0933 187.607 50.7913 187.337 51.4423C187.067 52.0934 186.672 52.6849 186.173 53.1831C185.674 53.6812 185.082 54.0761 184.43 54.3453C183.779 54.6146 183.081 54.7527 182.376 54.752H6.62421C5.19973 54.7535 3.83299 54.1893 2.82455 53.1835C1.81612 52.1777 1.24856 50.8126 1.2467 49.3885V6.61657C1.24856 5.19183 1.81589 3.82606 2.82413 2.81914C3.83236 1.81222 5.19909 1.24646 6.62421 1.24609H182.374C183.08 1.24609 183.778 1.38502 184.43 1.65492C185.081 1.92483 185.674 2.32044 186.172 2.81915C186.671 3.31787 187.067 3.90992 187.336 4.56148C187.606 5.21305 187.745 5.91138 187.745 6.61657L187.746 49.3885Z" fill="white"/>
<path d="M182.376 56H6.62418C4.86939 55.9996 3.18641 55.3033 1.94454 54.0639C0.70267 52.8245 0.00333888 51.1431 0 49.3888L0 6.61822C0.00259595 4.86303 0.701466 3.18053 1.9433 1.93981C3.18513 0.699098 4.86852 0.00148145 6.62418 0L182.374 0C184.13 0.00222066 185.813 0.700075 187.054 1.94063C188.296 3.18119 188.995 4.86326 188.998 6.61822V49.3888C189.001 53.0354 186.025 56 182.376 56Z" fill="#A6A6A6"/>
<path d="M187.746 49.3885C187.746 50.0933 187.607 50.7913 187.337 51.4423C187.067 52.0934 186.672 52.6849 186.173 53.1831C185.674 53.6812 185.082 54.0761 184.43 54.3453C183.779 54.6146 183.081 54.7527 182.376 54.752H6.62421C5.19973 54.7535 3.83299 54.1893 2.82455 53.1835C1.81612 52.1777 1.24856 50.8126 1.2467 49.3885V6.61657C1.24856 5.19183 1.81589 3.82606 2.82413 2.81914C3.83236 1.81222 5.19909 1.24646 6.62421 1.24609H182.374C183.08 1.24609 183.778 1.38502 184.43 1.65492C185.081 1.92483 185.674 2.32044 186.172 2.81915C186.671 3.31787 187.067 3.90992 187.336 4.56148C187.606 5.21305 187.745 5.91138 187.745 6.61657L187.746 49.3885Z" fill="black"/>
<path d="M42.202 27.7051C42.1614 23.1916 45.8986 20.9958 46.0695 20.8936C43.9529 17.8086 40.6724 17.387 39.5195 17.3534C36.7642 17.0636 34.0916 19.0017 32.688 19.0017C31.2565 19.0017 29.0951 17.3814 26.7656 17.4291C23.768 17.4753 20.9637 19.2103 19.4257 21.9047C16.2516 27.3984 18.6188 35.4716 21.6599 39.9122C23.1811 42.0884 24.9587 44.5153 27.2853 44.4299C29.5616 44.3375 30.4118 42.9805 33.1587 42.9805C35.8804 42.9805 36.6788 44.4299 39.0517 44.3753C41.4946 44.3375 43.0326 42.1907 44.5006 39.9963C46.2586 37.505 46.9646 35.0487 46.9926 34.9227C46.9365 34.9031 42.2496 33.1134 42.202 27.7051ZM37.7196 14.4322C38.9438 12.9016 39.7815 10.8192 39.5489 8.70605C37.777 8.78448 35.561 9.93139 34.2849 11.4284C33.1559 12.7476 32.1474 14.9098 32.4079 16.9431C34.3984 17.0916 36.4421 15.939 37.7196 14.4322Z" fill="white"/>
<path d="M182.376 0H88.2378L125.11 56H182.376C184.131 55.9985 185.814 55.3013 187.055 54.0612C188.297 52.8211 188.996 51.1393 189 49.3846V6.61822C188.997 4.86314 188.298 3.18086 187.056 1.94022C185.814 0.699587 184.131 0.00185119 182.376 0Z" fill="url(#paint0_linear_1219_7092)"/>
<path d="M75.1716 44.1173H71.9905L70.2479 38.6432H64.1911L62.5312 44.1173H59.4341L65.4363 25.481H69.1427L75.1716 44.1173ZM69.7226 36.3465L68.1468 31.4802C67.9801 30.9831 67.6663 29.8123 67.2069 27.9694H67.1508C66.9659 28.7621 66.6704 29.9328 66.2656 31.4802L64.7163 36.3465H69.7226ZM90.5771 37.233C90.5771 39.5184 89.9566 41.3249 88.7141 42.6511C87.6019 43.8316 86.2193 44.4212 84.5707 44.4212C82.7903 44.4212 81.51 43.7868 80.7326 42.5152V49.5662H77.7462V35.096C77.7462 33.6606 77.7083 32.1888 77.6355 30.6792H80.2619L80.4286 32.8092H80.4846C81.4806 31.2043 82.992 30.4019 85.0203 30.4019C86.6059 30.4019 87.9297 31.0279 88.9886 32.2812C90.0462 33.5374 90.5771 35.187 90.5771 37.233ZM87.5347 37.3422C87.5347 36.0343 87.2405 34.956 86.6494 34.1059C86.0036 33.2223 85.1366 32.7798 84.0496 32.7798C83.3128 32.7798 82.6432 33.0262 82.0451 33.5122C81.4456 34.0023 81.0534 34.6423 80.8699 35.4349C80.7879 35.7313 80.7414 36.0364 80.7312 36.3437V38.5858C80.7312 39.5618 81.0309 40.3867 81.6305 41.0616C82.23 41.7338 83.0088 42.0713 83.9669 42.0713C85.0917 42.0713 85.9672 41.6358 86.5933 40.7718C87.2209 39.9049 87.5347 38.7622 87.5347 37.3422ZM106.037 37.233C106.037 39.5184 105.417 41.3249 104.174 42.6511C103.061 43.8316 101.679 44.4212 100.029 44.4212C98.249 44.4212 96.9687 43.7868 96.1913 42.5152V49.5662H93.2049V35.096C93.2049 33.6606 93.1671 32.1888 93.0943 30.6792H95.7207L95.8874 32.8092H95.9434C96.9379 31.2043 98.4493 30.4019 100.479 30.4019C102.063 30.4019 103.387 31.0279 104.449 32.2812C105.505 33.5374 106.037 35.187 106.037 37.233ZM102.993 37.3422C102.993 36.0343 102.698 34.956 102.107 34.1059C101.461 33.2223 100.597 32.7798 99.5097 32.7798C98.7729 32.7798 98.1034 33.0262 97.5024 33.5122C96.9029 34.0023 96.5121 34.6423 96.3286 35.4349C96.2375 35.8046 96.1885 36.1057 96.1885 36.3437V38.5858C96.1885 39.5618 96.4897 40.3867 97.0864 41.0616C97.6859 41.7324 98.4648 42.0713 99.4257 42.0713C100.552 42.0713 101.427 41.6358 102.052 40.7718C102.68 39.9049 102.993 38.7622 102.993 37.3422ZM123.323 38.8896C123.323 40.4763 122.768 41.766 121.665 42.7617C120.452 43.8484 118.759 44.3932 116.588 44.3932C114.582 44.3932 112.974 44.0066 111.761 43.2322L112.451 40.7438C113.761 41.5196 115.2 41.9061 116.766 41.9061C117.892 41.9061 118.767 41.6512 119.392 41.1457C120.018 40.6387 120.335 39.9609 120.335 39.1151C120.335 38.3575 120.073 37.7231 119.559 37.2064C119.042 36.691 118.187 36.2107 116.987 35.7696C113.723 34.5526 112.09 32.7728 112.09 30.4313C112.09 28.9021 112.667 27.6501 113.818 26.6713C114.97 25.6938 116.497 25.2051 118.396 25.2051C120.092 25.2051 121.506 25.5006 122.628 26.0901L121.878 28.524C120.822 27.9526 119.63 27.667 118.297 27.667C117.243 27.667 116.417 27.926 115.826 28.4414C115.328 28.9021 115.076 29.4636 115.076 30.1302C115.076 30.8654 115.363 31.476 115.935 31.9549C116.431 32.3961 117.336 32.8764 118.644 33.3917C120.249 34.0387 121.429 34.7921 122.184 35.6576C122.944 36.523 123.323 37.6027 123.323 38.8896ZM133.222 32.9198H129.93V39.4442C129.93 41.1037 130.51 41.9313 131.672 41.9313C132.206 41.9313 132.649 41.8865 132.999 41.7926L133.082 44.0599C132.493 44.2797 131.719 44.3904 130.759 44.3904C129.58 44.3904 128.658 44.0305 127.993 43.3107C127.33 42.5909 126.997 41.3851 126.997 39.6879V32.9142H125.036V30.6736H126.997V28.2131L129.93 27.3281V30.6736H133.222V32.9198ZM148.045 37.2876C148.045 39.3532 147.453 41.049 146.274 42.3752C145.04 43.7406 143.398 44.4212 141.352 44.4212C139.377 44.4212 137.806 43.7672 136.635 42.4606C135.464 41.1513 134.879 39.5016 134.879 37.5117C134.879 35.4293 135.484 33.7236 136.69 32.3975C137.899 31.0699 139.527 30.4061 141.573 30.4061C143.545 30.4061 145.13 31.0615 146.329 32.3694C147.474 33.6382 148.045 35.2766 148.045 37.2876ZM144.949 37.3562C144.949 36.1253 144.683 35.0694 144.149 34.1857C143.523 33.1187 142.626 32.5851 141.465 32.5851C140.269 32.5851 139.351 33.1187 138.727 34.1857C138.192 35.0694 137.925 36.1435 137.925 37.4122C137.925 38.6446 138.192 39.7033 138.727 40.5841C139.372 41.6512 140.273 42.1847 141.44 42.1847C142.582 42.1847 143.477 41.64 144.124 40.5575C144.673 39.6529 144.949 38.59 144.949 37.3562ZM157.756 33.3049C157.445 33.2488 157.13 33.2212 156.815 33.2223C155.764 33.2223 154.952 33.6172 154.38 34.4126C153.884 35.1128 153.635 35.9978 153.635 37.0663V44.1173H150.649V34.9111C150.651 33.5005 150.622 32.0899 150.562 30.6806H153.163L153.272 33.2517H153.355C153.671 32.368 154.167 31.6553 154.848 31.1217C155.471 30.6555 156.228 30.403 157.007 30.4019C157.283 30.4019 157.532 30.4215 157.753 30.4565L157.756 33.3049ZM171.112 36.7625C171.12 37.2163 171.083 37.6698 171.003 38.1166H162.044C162.077 39.4442 162.512 40.4609 163.344 41.1611C164.099 41.7856 165.075 42.0993 166.274 42.0993C167.6 42.0993 168.811 41.8893 169.899 41.465L170.367 43.5361C169.095 44.0907 167.593 44.3665 165.861 44.3665C163.776 44.3665 162.14 43.7532 160.95 42.5292C159.762 41.3039 159.167 39.6571 159.167 37.5943C159.167 35.5693 159.72 33.8819 160.828 32.5361C161.988 31.0993 163.555 30.3809 165.527 30.3809C167.465 30.3809 168.931 31.0993 169.927 32.5361C170.716 33.6746 171.112 35.0862 171.112 36.7625ZM168.264 35.988C168.285 35.1016 168.089 34.3384 167.685 33.6928C167.168 32.861 166.372 32.4465 165.306 32.4465C164.33 32.4465 163.534 32.8512 162.929 33.6634C162.432 34.309 162.136 35.0848 162.045 35.9852L168.264 35.988Z" fill="white"/>
<path d="M63.3296 18.8926C62.499 18.8926 61.7804 18.852 61.1823 18.7834V9.77332C62.0188 9.64413 62.8642 9.58045 63.7106 9.58287C67.1355 9.58287 68.7127 11.2675 68.7127 14.0137C68.7127 17.1814 66.8497 18.8926 63.3296 18.8926ZM63.8311 10.7382C63.3688 10.7382 62.9752 10.7662 62.6488 10.8334V17.6827C62.8253 17.7107 63.1643 17.7233 63.6406 17.7233C65.8846 17.7233 67.1621 16.4462 67.1621 14.0543C67.1621 11.9215 66.0065 10.7382 63.8311 10.7382ZM73.628 18.9613C71.6977 18.9613 70.4468 17.5203 70.4468 15.5639C70.4468 13.525 71.7243 12.0714 73.7372 12.0714C75.6395 12.0714 76.9183 13.4437 76.9183 15.4561C76.9183 17.5203 75.6002 18.9613 73.628 18.9613ZM73.684 13.144C72.6236 13.144 71.9443 14.1355 71.9443 15.5219C71.9443 16.8817 72.6376 17.8732 73.67 17.8732C74.7023 17.8732 75.3957 16.8131 75.3957 15.4939C75.3957 14.1495 74.7164 13.144 73.684 13.144ZM87.9255 12.2072L85.8594 18.8114H84.5132L83.6574 15.9434C83.4446 15.2419 83.2674 14.5301 83.1265 13.8106H83.0985C82.9906 14.5304 82.7861 15.2516 82.569 15.9434L81.6585 18.8114H80.2984L78.3541 12.2072H79.8627L80.6107 15.3469C80.7872 16.0947 80.9357 16.8005 81.059 17.467H81.087C81.1949 16.9111 81.3713 16.2165 81.6305 15.3609L82.569 12.2086H83.7652L84.6631 15.2936C84.8802 16.0414 85.0567 16.7752 85.194 17.4684H85.2332C85.3285 16.7893 85.4784 16.0681 85.6815 15.2936L86.4841 12.2086L87.9255 12.2072ZM95.5316 18.8114H94.0636V15.0192C94.0636 13.8512 93.6154 13.2659 92.7315 13.2659C91.8616 13.2659 91.2635 14.0137 91.2635 14.8833V18.8114H89.7955V14.0949C89.7955 13.511 89.7815 12.885 89.7409 12.2058H91.0324L91.101 13.2253H91.1416C91.5366 12.5195 92.3379 12.0714 93.2357 12.0714C94.6225 12.0714 95.533 13.1314 95.533 14.8567L95.5316 18.8114ZM99.5798 18.8114H98.1104V9.17676H99.5798V18.8114ZM104.932 18.9613C103.003 18.9613 101.751 17.5203 101.751 15.5639C101.751 13.525 103.028 12.0714 105.04 12.0714C106.944 12.0714 108.221 13.4437 108.221 15.4561C108.222 17.5203 106.903 18.9613 104.932 18.9613ZM104.987 13.144C103.926 13.144 103.247 14.1355 103.247 15.5219C103.247 16.8817 103.942 17.8732 104.971 17.8732C106.005 17.8732 106.697 16.8131 106.697 15.4939C106.698 14.1495 106.02 13.144 104.987 13.144ZM114.009 18.8114L113.903 18.051H113.863C113.415 18.663 112.761 18.9613 111.932 18.9613C110.748 18.9613 109.908 18.1322 109.908 17.0175C109.908 15.3875 111.321 14.5444 113.768 14.5444V14.4226C113.768 13.553 113.307 13.1174 112.397 13.1174C111.745 13.1174 111.174 13.2813 110.671 13.6076L110.373 12.6427C110.983 12.2618 111.745 12.0714 112.64 12.0714C114.366 12.0714 115.237 12.9816 115.237 14.8035V17.236C115.237 17.9026 115.267 18.4193 115.333 18.8128L114.009 18.8114ZM113.807 15.5219C112.177 15.5219 111.359 15.9168 111.359 16.8537C111.359 17.5469 111.78 17.8858 112.366 17.8858C113.112 17.8858 113.807 17.3158 113.807 16.5414V15.5219ZM122.366 18.8114L122.297 17.7513H122.257C121.835 18.5523 121.126 18.9613 120.136 18.9613C118.543 18.9613 117.364 17.5609 117.364 15.5905C117.364 13.525 118.587 12.07 120.256 12.07C121.14 12.07 121.766 12.3682 122.119 12.9676H122.149V9.17676H123.618V17.0315C123.618 17.6701 123.634 18.2681 123.673 18.8114H122.366ZM122.149 14.9253C122.149 14.0011 121.537 13.2127 120.602 13.2127C119.514 13.2127 118.849 14.1775 118.849 15.5359C118.849 16.8677 119.539 17.7793 120.573 17.7793C121.496 17.7793 122.149 16.9769 122.149 16.026V14.9253ZM132.935 18.9613C131.006 18.9613 129.755 17.5203 129.755 15.5639C129.755 13.525 131.032 12.0714 133.044 12.0714C134.947 12.0714 136.225 13.4437 136.225 15.4561C136.226 17.5203 134.908 18.9613 132.935 18.9613ZM132.989 13.144C131.93 13.144 131.251 14.1355 131.251 15.5219C131.251 16.8817 131.944 17.8732 132.975 17.8732C134.009 17.8732 134.701 16.8131 134.701 15.4939C134.704 14.1495 134.024 13.144 132.989 13.144ZM144.12 18.8114H142.65V15.0192C142.65 13.8512 142.202 13.2659 141.318 13.2659C140.448 13.2659 139.852 14.0137 139.852 14.8833V18.8114H138.382V14.0949C138.382 13.511 138.368 12.885 138.327 12.2058H139.619L139.688 13.2253H139.728C140.122 12.5195 140.924 12.07 141.821 12.07C143.208 12.07 144.12 13.13 144.12 14.8553V18.8114ZM153.996 13.3079H152.381V16.5148C152.381 17.3312 152.664 17.7387 153.236 17.7387C153.495 17.7387 153.712 17.7107 153.887 17.6701L153.928 18.7848C153.643 18.894 153.262 18.9486 152.789 18.9486C151.632 18.9486 150.94 18.3101 150.94 16.638V13.3079H149.976V12.2072H150.94V10.9973L152.381 10.5617V12.2058H153.996V13.3079ZM161.768 18.8114H160.301V15.0472C160.301 13.8652 159.854 13.2673 158.969 13.2673C158.208 13.2673 157.5 13.784 157.5 14.8301V18.8114H156.033V9.17676H157.5V13.144H157.529C157.991 12.4243 158.661 12.07 159.515 12.07C160.913 12.07 161.768 13.1567 161.768 14.8833V18.8114ZM169.73 15.8622H165.324C165.352 17.1127 166.18 17.8185 167.406 17.8185C168.057 17.8185 168.657 17.7093 169.186 17.5063L169.414 18.5257C168.79 18.7974 168.054 18.9332 167.198 18.9332C165.132 18.9332 163.91 17.6281 163.91 15.6045C163.91 13.5796 165.162 12.0574 167.033 12.0574C168.721 12.0574 169.78 13.3079 169.78 15.197C169.79 15.42 169.773 15.6432 169.73 15.8622ZM168.384 14.8161C168.384 13.7966 167.869 13.0768 166.931 13.0768C166.088 13.0768 165.421 13.8106 165.326 14.8161H168.384Z" fill="white"/>
<defs>
<linearGradient id="paint0_linear_1219_7092" x1="138.617" y1="56.1487" x2="138.617" y2="-145.814" gradientUnits="userSpaceOnUse">
<stop stop-color="#1A1A1A" stop-opacity="0.1"/>
<stop offset="0.123" stop-color="#212121" stop-opacity="0.151"/>
<stop offset="0.308" stop-color="#353535" stop-opacity="0.227"/>
<stop offset="0.532" stop-color="#575757" stop-opacity="0.318"/>
<stop offset="0.783" stop-color="#858585" stop-opacity="0.421"/>
<stop offset="1" stop-color="#B3B3B3" stop-opacity="0.51"/>
</linearGradient>
</defs>
</svg>
