<svg width="189" height="56" viewBox="0 0 189 56" fill="none" xmlns="http://www.w3.org/2000/svg">
<path d="M182 56H7C3.08 56 0 52.92 0 49V7C0 3.08 3.08 0 7 0H182C185.92 0 189 3.08 189 7V49C189 52.92 185.92 56 182 56Z" fill="black"/>
<path d="M182 1.12C185.22 1.12 187.88 3.78 187.88 7V49C187.88 52.22 185.22 54.88 182 54.88H7C3.78 54.88 1.12 52.22 1.12 49V7C1.12 3.78 3.78 1.12 7 1.12H182ZM182 0H7C3.08 0 0 3.22 0 7V49C0 52.92 3.08 56 7 56H182C185.92 56 189 52.92 189 49V7C189 3.22 185.92 0 182 0Z" fill="#A6A6A6"/>
<path d="M66.36 14.2792C66.36 15.3992 66.08 16.3792 65.38 17.0792C64.54 17.9192 63.56 18.3392 62.3 18.3392C61.04 18.3392 60.06 17.9192 59.22 17.0792C58.38 16.2392 57.96 15.2592 57.96 13.9992C57.96 12.7392 58.38 11.7592 59.22 10.9192C60.06 10.0792 61.04 9.65918 62.3 9.65918C62.86 9.65918 63.42 9.79918 63.98 10.0792C64.54 10.3592 64.96 10.6392 65.24 11.0592L64.54 11.7592C63.98 11.0592 63.28 10.7792 62.3 10.7792C61.46 10.7792 60.62 11.0592 60.06 11.7592C59.36 12.3192 59.08 13.1592 59.08 14.1392C59.08 15.1192 59.36 15.9592 60.06 16.5192C60.76 17.0792 61.46 17.4992 62.3 17.4992C63.28 17.4992 63.98 17.2192 64.68 16.5192C65.1 16.0992 65.38 15.5392 65.38 14.8392H62.3V13.7192H66.36V14.2792ZM72.8 10.7792H69.02V13.4392H72.52V14.4192H69.02V17.0792H72.8V18.1992H67.9V9.79918H72.8V10.7792ZM77.42 18.1992H76.3V10.7792H73.92V9.79918H79.8V10.7792H77.42V18.1992ZM83.86 18.1992V9.79918H84.98V18.1992H83.86ZM89.74 18.1992H88.62V10.7792H86.24V9.79918H91.98V10.7792H89.6V18.1992H89.74ZM103.04 17.0792C102.2 17.9192 101.22 18.3392 99.96 18.3392C98.7 18.3392 97.72 17.9192 96.88 17.0792C96.04 16.2392 95.62 15.2592 95.62 13.9992C95.62 12.7392 96.04 11.7592 96.88 10.9192C97.72 10.0792 98.7 9.65918 99.96 9.65918C101.22 9.65918 102.2 10.0792 103.04 10.9192C103.88 11.7592 104.3 12.7392 104.3 13.9992C104.3 15.2592 103.88 16.2392 103.04 17.0792ZM97.72 16.3792C98.28 16.9392 99.12 17.3592 99.96 17.3592C100.8 17.3592 101.64 17.0792 102.2 16.3792C102.76 15.8192 103.18 14.9792 103.18 13.9992C103.18 13.0192 102.9 12.1792 102.2 11.6192C101.64 11.0592 100.8 10.6392 99.96 10.6392C99.12 10.6392 98.28 10.9192 97.72 11.6192C97.16 12.1792 96.74 13.0192 96.74 13.9992C96.74 14.9792 97.02 15.8192 97.72 16.3792ZM105.84 18.1992V9.79918H107.1L111.16 16.3792V9.79918H112.28V18.1992H111.16L106.82 11.3392V18.1992H105.84Z" fill="white" stroke="white" stroke-width="1.18519" stroke-miterlimit="10"/>
<path d="M95.34 30.5204C91.98 30.5204 89.32 33.0404 89.32 36.5404C89.32 39.9004 91.98 42.5604 95.34 42.5604C98.7 42.5604 101.36 40.0404 101.36 36.5404C101.36 32.9004 98.7 30.5204 95.34 30.5204ZM95.34 40.0404C93.52 40.0404 91.98 38.5004 91.98 36.4004C91.98 34.3004 93.52 32.7604 95.34 32.7604C97.16 32.7604 98.7 34.1604 98.7 36.4004C98.7 38.5004 97.16 40.0404 95.34 40.0404ZM82.32 30.5204C78.96 30.5204 76.3 33.0404 76.3 36.5404C76.3 39.9004 78.96 42.5604 82.32 42.5604C85.68 42.5604 88.34 40.0404 88.34 36.5404C88.34 32.9004 85.68 30.5204 82.32 30.5204ZM82.32 40.0404C80.5 40.0404 78.96 38.5004 78.96 36.4004C78.96 34.3004 80.5 32.7604 82.32 32.7604C84.14 32.7604 85.68 34.1604 85.68 36.4004C85.68 38.5004 84.14 40.0404 82.32 40.0404ZM66.78 32.3404V34.8604H72.8C72.66 36.2604 72.1 37.3804 71.4 38.0804C70.56 38.9204 69.16 39.9004 66.78 39.9004C63 39.9004 60.2 36.9604 60.2 33.1804C60.2 29.4004 63.14 26.4604 66.78 26.4604C68.74 26.4604 70.28 27.3004 71.4 28.2804L73.22 26.4604C71.68 25.0604 69.72 23.9404 66.92 23.9404C61.88 23.9404 57.54 28.1404 57.54 33.1804C57.54 38.2204 61.88 42.4204 66.92 42.4204C69.72 42.4204 71.68 41.5804 73.36 39.7604C75.04 38.0804 75.6 35.7004 75.6 33.8804C75.6 33.3204 75.6 32.7604 75.46 32.3404H66.78ZM130.34 34.3004C129.78 32.9004 128.38 30.5204 125.3 30.5204C122.22 30.5204 119.7 32.9004 119.7 36.5404C119.7 39.9004 122.22 42.5604 125.58 42.5604C128.24 42.5604 129.92 40.8804 130.48 39.9004L128.52 38.5004C127.82 39.4804 126.98 40.1804 125.58 40.1804C124.18 40.1804 123.34 39.6204 122.64 38.3604L130.62 35.0004L130.34 34.3004ZM122.22 36.2604C122.22 34.0204 124.04 32.7604 125.3 32.7604C126.28 32.7604 127.26 33.3204 127.54 34.0204L122.22 36.2604ZM115.64 42.0004H118.3V24.5004H115.64V42.0004ZM111.44 31.7804C110.74 31.0804 109.62 30.3804 108.22 30.3804C105.28 30.3804 102.48 33.0404 102.48 36.4004C102.48 39.7604 105.14 42.2804 108.22 42.2804C109.62 42.2804 110.74 41.5804 111.3 40.8804H111.44V41.7204C111.44 43.9604 110.18 45.2204 108.22 45.2204C106.68 45.2204 105.56 44.1004 105.28 43.1204L103.04 44.1004C103.74 45.6404 105.42 47.6004 108.36 47.6004C111.44 47.6004 113.96 45.7804 113.96 41.4404V30.8004H111.44V31.7804ZM108.36 40.0404C106.54 40.0404 105 38.5004 105 36.4004C105 34.3004 106.54 32.7604 108.36 32.7604C110.18 32.7604 111.58 34.3004 111.58 36.4004C111.58 38.5004 110.18 40.0404 108.36 40.0404ZM142.52 24.5004H136.22V42.0004H138.88V35.4204H142.52C145.46 35.4204 148.26 33.3204 148.26 29.9604C148.26 26.6004 145.46 24.5004 142.52 24.5004ZM142.66 32.9004H138.88V26.8804H142.66C144.62 26.8804 145.74 28.5604 145.74 29.8204C145.6 31.3604 144.48 32.9004 142.66 32.9004ZM158.76 30.3804C156.8 30.3804 154.84 31.2204 154.14 33.0404L156.52 34.0204C157.08 33.0404 157.92 32.7604 158.9 32.7604C160.3 32.7604 161.56 33.6004 161.7 35.0004V35.1404C161.28 34.8604 160.16 34.4404 159.04 34.4404C156.52 34.4404 154 35.8404 154 38.3604C154 40.7404 156.1 42.2804 158.34 42.2804C160.16 42.2804 161 41.4404 161.7 40.6004H161.84V42.0004H164.36V35.2804C164.08 32.2004 161.7 30.3804 158.76 30.3804ZM158.48 40.0404C157.64 40.0404 156.38 39.6204 156.38 38.5004C156.38 37.1004 157.92 36.6804 159.18 36.6804C160.3 36.6804 160.86 36.9604 161.56 37.2404C161.28 38.9204 159.88 40.0404 158.48 40.0404ZM173.18 30.8004L170.24 38.3604H170.1L167.02 30.8004H164.22L168.84 41.4404L166.18 47.3204H168.84L175.98 30.8004H173.18ZM149.66 42.0004H152.32V24.5004H149.66V42.0004Z" fill="white"/>
<path d="M14.56 10.5C14.14 10.92 14 11.62 14 12.46V43.4C14 44.24 14.28 44.94 14.7 45.36L14.84 45.5L32.2 28.14V27.86L14.56 10.5Z" fill="url(#paint0_linear_1219_7103)"/>
<path d="M37.7999 34.0201L32.0599 28.2801V27.8601L37.7999 22.1201L37.9399 22.2601L44.7999 26.1801C46.7599 27.3001 46.7599 29.1201 44.7999 30.2401L37.7999 34.0201Z" fill="url(#paint1_linear_1219_7103)"/>
<path d="M37.9399 33.88L32.0599 28L14.5599 45.5C15.2599 46.2 16.2399 46.2 17.4999 45.64L37.9399 33.88Z" fill="url(#paint2_linear_1219_7103)"/>
<path d="M37.9399 22.1203L17.4999 10.5003C16.2399 9.80025 15.2599 9.94025 14.5599 10.6403L32.0599 28.0003L37.9399 22.1203Z" fill="url(#paint3_linear_1219_7103)"/>
<path opacity="0.2" d="M37.7999 33.7402L17.4999 45.2202C16.3799 45.9202 15.3999 45.7802 14.6999 45.2202L14.5599 45.3602L14.6999 45.5002C15.3999 46.0602 16.3799 46.2002 17.4999 45.5002L37.7999 33.7402Z" fill="black"/>
<path opacity="0.12" d="M14.56 45.22C14.14 44.8 14 44.1 14 43.26V43.4C14 44.24 14.28 44.94 14.7 45.36V45.22H14.56ZM44.8 29.82L37.8 33.74L37.94 33.88L44.8 29.96C45.78 29.4 46.2 28.7 46.2 28C46.2 28.7 45.64 29.26 44.8 29.82Z" fill="black"/>
<path opacity="0.25" d="M17.5 10.6398L44.8 26.1798C45.64 26.7398 46.2 27.2998 46.2 27.9998C46.2 27.2998 45.78 26.5998 44.8 26.0398L17.5 10.4998C15.54 9.37979 14 10.2198 14 12.4598V12.5998C14 10.4998 15.54 9.51979 17.5 10.6398Z" fill="white"/>
<defs>
<linearGradient id="paint0_linear_1219_7103" x1="30.52" y1="12.194" x2="7.0238" y2="35.6888" gradientUnits="userSpaceOnUse">
<stop stop-color="#00A0FF"/>
<stop offset="0.007" stop-color="#00A1FF"/>
<stop offset="0.26" stop-color="#00BEFF"/>
<stop offset="0.512" stop-color="#00D2FF"/>
<stop offset="0.76" stop-color="#00DFFF"/>
<stop offset="1" stop-color="#00E3FF"/>
</linearGradient>
<linearGradient id="paint1_linear_1219_7103" x1="47.3675" y1="28.0015" x2="13.4917" y2="28.0015" gradientUnits="userSpaceOnUse">
<stop stop-color="#FFE000"/>
<stop offset="0.409" stop-color="#FFBD00"/>
<stop offset="0.775" stop-color="#FFA500"/>
<stop offset="1" stop-color="#FF9C00"/>
</linearGradient>
<linearGradient id="paint2_linear_1219_7103" x1="34.7577" y1="31.2144" x2="2.89654" y2="63.0756" gradientUnits="userSpaceOnUse">
<stop stop-color="#FF3A44"/>
<stop offset="1" stop-color="#C31162"/>
</linearGradient>
<linearGradient id="paint3_linear_1219_7103" x1="10.2157" y1="0.246655" x2="24.4439" y2="14.4749" gradientUnits="userSpaceOnUse">
<stop stop-color="#32A071"/>
<stop offset="0.069" stop-color="#2DA771"/>
<stop offset="0.476" stop-color="#15CF74"/>
<stop offset="0.801" stop-color="#06E775"/>
<stop offset="1" stop-color="#00F076"/>
</linearGradient>
</defs>
</svg>
